SplineFontDB: 2.0
FontName: THKoHo-BoldItalic
FullName: THKoHo-BoldItalic
FamilyName: TH KoHo
Weight: Bold
Copyright: Copyright (c) 2006¢y Department of Intellectual Property (DIP), Ministry of Commerce and Software Industry Promotion Agency (Public Organization) (SIPA). All rights reserved.
Version: 1.1
ItalicAngle: -12
UnderlinePosition: -35
UnderlineWidth: 30
Ascent: 800
Descent: 200
Order2: 1
XUID: [1021 375 425136265 10630497]
FSType: 0
OS2Version: 3
OS2_WeightWidthSlopeOnly: 0
OS2_UseTypoMetrics: 1
CreationTime: 1158666900
ModificationTime: 1196262637
PfmFamily: 17
TTFWeight: 700
TTFWidth: 5
LineGap: 60
VLineGap: 0
Panose: 2 0 8 6 0 0 0 2 0 4
OS2TypoAscent: 0
OS2TypoAOffset: 1
OS2TypoDescent: 0
OS2TypoDOffset: 1
OS2TypoLinegap: 0
OS2WinAscent: -43
OS2WinAOffset: 1
OS2WinDescent: -196
OS2WinDOffset: 1
HheadAscent: -43
HheadAOffset: 1
HheadDescent: 196
HheadDOffset: 1
OS2SubXSize: 700
OS2SubYSize: 650
OS2SubXOff: 0
OS2SubYOff: 140
OS2SupXSize: 700
OS2SupYSize: 650
OS2SupXOff: 0
OS2SupYOff: 477
OS2StrikeYSize: 30
OS2StrikeYPos: 250
OS2FamilyClass: 773
OS2Vendor: 'IPTH'
Lookup: 4 0 0 "'frac' Diagonal Fractions in Latin lookup 0"  {"'frac' Diagonal Fractions in Latin lookup 0 subtable"  } ['frac' ('latn' <'dflt' > ) ]
Lookup: 6 0 0 "'liga' Standard Ligatures in Latin lookup 1"  {"'liga' Standard Ligatures in Latin lookup 1 subtable"  } ['liga' ('latn' <'dflt' > ) ]
Lookup: 6 0 0 "'liga' Standard Ligatures in Latin lookup 2"  {"'liga' Standard Ligatures in Latin lookup 2 subtable"  } ['liga' ('latn' <'dflt' > ) ]
Lookup: 6 0 0 "'liga' Standard Ligatures in Latin lookup 3"  {"'liga' Standard Ligatures in Latin lookup 3 subtable"  } ['liga' ('latn' <'dflt' > ) ]
Lookup: 6 0 0 "'liga' Standard Ligatures in Latin lookup 4"  {"'liga' Standard Ligatures in Latin lookup 4 subtable"  } ['liga' ('latn' <'dflt' > ) ]
Lookup: 6 0 0 "'liga' Standard Ligatures in Latin lookup 5"  {"'liga' Standard Ligatures in Latin lookup 5 subtable"  } ['liga' ('latn' <'dflt' > ) ]

StartChar: .notdef
Encoding: 65536 -1 0
Width: 733
VWidth: 1467
Flags: W
HStem: 0 51<150 597> 968 52<346 792>
Fore
597 51 m 1,0,-1
 792 968 l 1,1,-1
 346 968 l 1,2,-1
 150 51 l 1,3,-1
 597 51 l 1,0,-1
640 0 m 1,4,-1
 92 0 l 1,5,-1
 307 1020 l 1,6,-1
 852 1020 l 1,7,-1
 640 0 l 1,4,-1
EndSplineSet
EndChar
StartChar: numbersign
Encoding: 35 35 4
Width: 746
VWidth: 1467
Flags: W
HStem: -1 21G<166 248.514 409 492.697> 217 46<129 236 327 481 572 703> 425 46<192 304 395 549 641 761>
Fore
625 425 m 1,0,1
 612 384 612 384 598.5 341.5 c 128,-1,2
 585 299 585 299 572 263 c 1,3,-1
 723 263 l 1,4,-1
 703 217 l 1,5,-1
 559 217 l 1,6,-1
 486 -1 l 1,7,-1
 409 -1 l 1,8,-1
 481 217 l 1,9,-1
 313 217 l 1,10,-1
 242 -1 l 1,11,-1
 166 -1 l 1,12,-1
 236 217 l 1,13,-1
 109 217 l 1,14,-1
 129 263 l 1,15,-1
 251 263 l 1,16,17
 263 305 263 305 277 344.5 c 128,-1,18
 291 384 291 384 304 425 c 1,19,-1
 170 425 l 1,20,-1
 192 471 l 1,21,-1
 320 471 l 1,22,-1
 389 682 l 1,23,-1
 462 682 l 1,24,-1
 395 471 l 1,25,-1
 565 471 l 1,26,27
 582 522 582 522 599 576.5 c 128,-1,28
 616 631 616 631 631 682 c 1,29,-1
 709 682 l 1,30,-1
 641 471 l 1,31,-1
 783 471 l 1,32,-1
 761 425 l 1,33,-1
 625 425 l 1,0,1
379 425 m 1,34,35
 367 384 367 384 353 344.5 c 128,-1,36
 339 305 339 305 327 263 c 1,37,-1
 496 263 l 1,38,-1
 549 425 l 1,39,-1
 379 425 l 1,34,35
EndSplineSet
EndChar
StartChar: dollar
Encoding: 36 36 5
Width: 698
VWidth: 1467
Flags: W
HStem: -13 69<301.375 308 395 427.468> 647 68<536 573.729>
Fore
666 192 m 0,0,1
 657 142 657 142 628.5 105.5 c 128,-1,2
 600 69 600 69 560.5 44 c 128,-1,3
 521 19 521 19 474 5 c 128,-1,4
 427 -9 427 -9 381 -13 c 1,5,-1
 355 -142 l 1,6,-1
 282 -142 l 1,7,-1
 308 -13 l 1,8,9
 273 -10 273 -10 238.5 -1.5 c 128,-1,10
 204 7 204 7 174.5 25.5 c 128,-1,11
 145 44 145 44 124.5 72 c 128,-1,12
 104 100 104 100 97 141 c 1,13,-1
 176 141 l 1,14,15
 182 117 182 117 197.5 102.5 c 128,-1,16
 213 88 213 88 234 78.5 c 128,-1,17
 255 69 255 69 278.5 64 c 128,-1,18
 302 59 302 59 323 56 c 1,19,-1
 381 333 l 1,20,21
 342 340 342 340 306 352 c 128,-1,22
 270 364 270 364 243.5 383.5 c 128,-1,23
 217 403 217 403 204 435 c 128,-1,24
 191 467 191 467 200 515 c 0,25,26
 207 560 207 560 233.5 594.5 c 128,-1,27
 260 629 260 629 296.5 654 c 128,-1,28
 333 679 333 679 376.5 694 c 128,-1,29
 420 709 420 709 462 713 c 1,30,-1
 487 829 l 1,31,-1
 559 829 l 1,32,-1
 536 715 l 1,33,34
 568 712 568 712 601 701.5 c 128,-1,35
 634 691 634 691 659.5 673.5 c 128,-1,36
 685 656 685 656 701 630 c 128,-1,37
 717 604 717 604 717 569 c 1,38,-1
 641 569 l 1,39,40
 625 610 625 610 591.5 625 c 128,-1,41
 558 640 558 640 521 647 c 1,42,-1
 465 380 l 1,43,44
 506 374 506 374 546.5 364.5 c 128,-1,45
 587 355 587 355 617 335 c 128,-1,46
 647 315 647 315 661.5 281.5 c 128,-1,47
 676 248 676 248 666 192 c 0,0,1
279 515 m 0,48,49
 274 484 274 484 281 463 c 128,-1,50
 288 442 288 442 303 428.5 c 128,-1,51
 318 415 318 415 341.5 408 c 128,-1,52
 365 401 365 401 395 395 c 1,53,-1
 447 646 l 1,54,55
 423 641 423 641 396.5 633 c 128,-1,56
 370 625 370 625 346.5 610.5 c 128,-1,57
 323 596 323 596 304.5 572.5 c 128,-1,58
 286 549 286 549 279 515 c 0,48,49
395 54 m 1,59,60
 427 56 427 56 457 63 c 128,-1,61
 487 70 487 70 512.5 85.5 c 128,-1,62
 538 101 538 101 556.5 127 c 128,-1,63
 575 153 575 153 584 192 c 0,64,65
 591 222 591 222 582.5 242.5 c 128,-1,66
 574 263 574 263 555 277 c 128,-1,67
 536 291 536 291 508.5 300.5 c 128,-1,68
 481 310 481 310 452 318 c 1,69,-1
 395 54 l 1,59,60
EndSplineSet
EndChar
StartChar: percent
Encoding: 37 37 6
Width: 1018
VWidth: 1467
Flags: W
HStem: 15 61<745.017 808.914> 295 62<261.986 327.541> 361 63<816.977 890.663> 687 20G<787.769 896>
Fore
896 707 m 1,0,-1
 320 -4 l 1,1,-1
 227 -4 l 1,2,-1
 804 707 l 1,3,-1
 896 707 l 1,0,-1
508 502 m 0,4,5
 499 459 499 459 477.5 421.5 c 128,-1,6
 456 384 456 384 427 355.5 c 128,-1,7
 398 327 398 327 361 311 c 128,-1,8
 324 295 324 295 283 295 c 0,9,10
 248 295 248 295 220 312 c 128,-1,11
 192 329 192 329 175 357.5 c 128,-1,12
 158 386 158 386 153 423.5 c 128,-1,13
 148 461 148 461 157 502 c 256,14,15
 166 543 166 543 187 580.5 c 128,-1,16
 208 618 208 618 238 645 c 128,-1,17
 268 672 268 672 302.5 688 c 128,-1,18
 337 704 337 704 373 704 c 0,19,20
 409 706 409 706 438 689.5 c 128,-1,21
 467 673 467 673 485 645.5 c 128,-1,22
 503 618 503 618 509.5 580.5 c 128,-1,23
 516 543 516 543 508 502 c 0,4,5
298 357 m 0,24,25
 320 355 320 355 340.5 366 c 128,-1,26
 361 377 361 377 378 397 c 128,-1,27
 395 417 395 417 406.5 444.5 c 128,-1,28
 418 472 418 472 424 503 c 0,29,30
 436 562 436 562 417.5 604 c 128,-1,31
 399 646 399 646 355 641 c 0,32,33
 333 638 333 638 314 625.5 c 128,-1,34
 295 613 295 613 279.5 594 c 128,-1,35
 264 575 264 575 253 551.5 c 128,-1,36
 242 528 242 528 238 505 c 2,37,38
 227 475 227 475 228 449 c 128,-1,39
 229 423 229 423 237.5 403 c 128,-1,40
 246 383 246 383 261.5 370.5 c 128,-1,41
 277 358 277 358 298 357 c 0,24,25
855 424 m 0,42,43
 891 425 891 425 921.5 410.5 c 128,-1,44
 952 396 952 396 972.5 369 c 128,-1,45
 993 342 993 342 999.5 304.5 c 128,-1,46
 1006 267 1006 267 996 222 c 0,47,48
 984 179 984 179 963.5 141.5 c 128,-1,49
 943 104 943 104 914.5 75.5 c 128,-1,50
 886 47 886 47 848.5 30 c 128,-1,51
 811 13 811 13 767 15 c 0,52,53
 728 16 728 16 698 33 c 128,-1,54
 668 50 668 50 649.5 78 c 128,-1,55
 631 106 631 106 626 143 c 128,-1,56
 621 180 621 180 629 222 c 256,57,58
 638 263 638 263 661.5 301 c 128,-1,59
 685 339 685 339 716.5 367.5 c 128,-1,60
 748 396 748 396 785 411.5 c 128,-1,61
 822 427 822 427 855 424 c 0,42,43
782 76 m 0,62,63
 804 75 804 75 824.5 86 c 128,-1,64
 845 97 845 97 862.5 116.5 c 128,-1,65
 880 136 880 136 892.5 164 c 128,-1,66
 905 192 905 192 911 223 c 0,67,68
 921 282 921 282 903.5 320.5 c 128,-1,69
 886 359 886 359 839 361 c 0,70,71
 817 361 817 361 797.5 348.5 c 128,-1,72
 778 336 778 336 761 316 c 128,-1,73
 744 296 744 296 732 272 c 128,-1,74
 720 248 720 248 716 224 c 0,75,76
 707 195 707 195 708 168.5 c 128,-1,77
 709 142 709 142 718.5 122.5 c 128,-1,78
 728 103 728 103 744.5 90.5 c 128,-1,79
 761 78 761 78 782 76 c 0,62,63
EndSplineSet
EndChar
StartChar: ampersand
Encoding: 38 38 7
Width: 698
VWidth: 1467
Flags: W
HStem: -6 69<224.448 352.177>
Fore
575 -1 m 1,0,-1
 509 78 l 1,1,2
 472 51 472 51 441.5 35 c 128,-1,3
 411 19 411 19 381.5 10 c 128,-1,4
 352 1 352 1 323.5 -2.5 c 128,-1,5
 295 -6 295 -6 264 -6 c 0,6,7
 220 -6 220 -6 179 9.5 c 128,-1,8
 138 25 138 25 108 51.5 c 128,-1,9
 78 78 78 78 63 114.5 c 128,-1,10
 48 151 48 151 59 194 c 0,11,12
 67 233 67 233 88.5 266 c 128,-1,13
 110 299 110 299 138.5 325.5 c 128,-1,14
 167 352 167 352 201 372.5 c 128,-1,15
 235 393 235 393 268 408 c 1,16,17
 245 449 245 449 235.5 485.5 c 128,-1,18
 226 522 226 522 235 558 c 0,19,20
 249 624 249 624 305.5 675 c 128,-1,21
 362 726 362 726 459 731 c 0,22,23
 493 732 493 732 523 722 c 128,-1,24
 553 712 553 712 573.5 692.5 c 128,-1,25
 594 673 594 673 604.5 646 c 128,-1,26
 615 619 615 619 609 587 c 0,27,28
 602 549 602 549 580.5 519.5 c 128,-1,29
 559 490 559 490 526.5 467.5 c 128,-1,30
 494 445 494 445 454 426.5 c 128,-1,31
 414 408 414 408 368 393 c 1,32,33
 420 321 420 321 457 267 c 128,-1,34
 494 213 494 213 524 179 c 1,35,36
 540 197 540 197 555.5 212 c 128,-1,37
 571 227 571 227 585.5 249 c 128,-1,38
 600 271 600 271 616 303 c 128,-1,39
 632 335 632 335 651 383 c 1,40,-1
 735 383 l 1,41,42
 697 288 697 288 654.5 227.5 c 128,-1,43
 612 167 612 167 571 129 c 1,44,45
 596 98 596 98 632 60.5 c 128,-1,46
 668 23 668 23 691 0 c 1,47,-1
 575 -1 l 1,0,-1
531 581 m 0,48,49
 541 624 541 624 516.5 649.5 c 128,-1,50
 492 675 492 675 445 672 c 0,51,52
 389 669 389 669 356 639.5 c 128,-1,53
 323 610 323 610 313 563 c 0,54,55
 304 519 304 519 319.5 489 c 128,-1,56
 335 459 335 459 346 442 c 1,57,58
 383 458 383 458 414.5 472 c 128,-1,59
 446 486 446 486 469.5 501 c 128,-1,60
 493 516 493 516 509 535.5 c 128,-1,61
 525 555 525 555 531 581 c 0,48,49
282 63 m 0,62,63
 343 63 343 63 383 81.5 c 128,-1,64
 423 100 423 100 461 126 c 1,65,66
 442 150 442 150 400.5 210.5 c 128,-1,67
 359 271 359 271 301 359 c 1,68,69
 280 351 280 351 256.5 337.5 c 128,-1,70
 233 324 233 324 211 306 c 128,-1,71
 189 288 189 288 172.5 263 c 128,-1,72
 156 238 156 238 148 202 c 0,73,74
 141 166 141 166 152 139.5 c 128,-1,75
 163 113 163 113 183.5 96 c 128,-1,76
 204 79 204 79 231 71 c 128,-1,77
 258 63 258 63 282 63 c 0,62,63
EndSplineSet
EndChar
StartChar: quotesingle
Encoding: 39 39 8
Width: 201
VWidth: 1467
Flags: W
HStem: 497 207<204 227 176 289 204 204>
Fore
227 497 m 1,0,-1
 176 497 l 1,1,-1
 204 704 l 1,2,-1
 289 704 l 1,3,-1
 227 497 l 1,0,-1
EndSplineSet
EndChar
StartChar: parenleft
Encoding: 40 40 9
Width: 324
VWidth: 1467
Flags: W
VStem: 138.5 76.5<141.32 268.714>
Fore
226 -85 m 1,0,1
 202 -51 202 -51 181.5 -8.5 c 128,-1,2
 161 34 161 34 150 87.5 c 128,-1,3
 139 141 139 141 138.5 204.5 c 128,-1,4
 138 268 138 268 154 343 c 0,5,6
 172 423 172 423 199.5 486.5 c 128,-1,7
 227 550 227 550 261 603 c 128,-1,8
 295 656 295 656 333 699 c 128,-1,9
 371 742 371 742 409 781 c 1,10,-1
 489 781 l 1,11,12
 393 693 393 693 327 590 c 128,-1,13
 261 487 261 487 230 343 c 0,14,15
 216 273 216 273 215 213 c 128,-1,16
 214 153 214 153 225 101.5 c 128,-1,17
 236 50 236 50 256 3.5 c 128,-1,18
 276 -43 276 -43 302 -85 c 1,19,-1
 226 -85 l 1,0,1
EndSplineSet
EndChar
StartChar: parenright
Encoding: 41 41 10
Width: 325
VWidth: 1467
Flags: W
VStem: 251.5 76.5<422.075 483 483 554.68>
Fore
242 781 m 1,0,1
 266 747 266 747 285.5 704.5 c 128,-1,2
 305 662 305 662 316 608.5 c 128,-1,3
 327 555 327 555 328 491 c 128,-1,4
 329 427 329 427 313 352 c 0,5,6
 295 273 295 273 268 208.5 c 128,-1,7
 241 144 241 144 206.5 91 c 128,-1,8
 172 38 172 38 133.5 -5 c 128,-1,9
 95 -48 95 -48 57 -85 c 1,10,-1
 -18 -85 l 1,11,12
 28 -41 28 -41 67.5 6 c 128,-1,13
 107 53 107 53 139.5 105.5 c 128,-1,14
 172 158 172 158 196 219 c 128,-1,15
 220 280 220 280 236 352 c 0,16,17
 251 423 251 423 251.5 483 c 128,-1,18
 252 543 252 543 242 594.5 c 128,-1,19
 232 646 232 646 212 692 c 128,-1,20
 192 738 192 738 166 781 c 1,21,-1
 242 781 l 1,0,1
EndSplineSet
EndChar
StartChar: asterisk
Encoding: 42 42 11
Width: 466
VWidth: 1467
Flags: W
HStem: 361 381<252 437 437 437> 573 20<155.61 298 395 549>
VStem: 142 407<509 593 509 509>
Fore
549 593 m 1,0,-1
 531 511 l 1,1,-1
 386 524 l 1,2,-1
 450 411 l 1,3,-1
 373 370 l 1,4,-1
 335 494 l 1,5,-1
 252 361 l 1,6,-1
 186 395 l 1,7,-1
 295 524 l 1,8,-1
 142 509 l 1,9,-1
 160 591 l 1,10,-1
 298 580 l 1,11,-1
 233 697 l 1,12,-1
 311 738 l 1,13,-1
 352 603 l 1,14,-1
 437 742 l 1,15,-1
 502 707 l 1,16,-1
 395 578 l 1,17,-1
 549 593 l 1,0,-1
EndSplineSet
EndChar
StartChar: plus
Encoding: 43 43 12
Width: 641
VWidth: 1467
Flags: W
HStem: 0 21G<276 367.95> 238 80<109 323 428 647>
Fore
411 238 m 1,0,-1
 364 0 l 1,1,-1
 276 0 l 1,2,-1
 323 238 l 1,3,-1
 91 238 l 1,4,-1
 109 318 l 1,5,-1
 340 318 l 1,6,-1
 392 562 l 1,7,-1
 480 562 l 1,8,-1
 428 318 l 1,9,-1
 665 318 l 1,10,-1
 647 238 l 1,11,-1
 411 238 l 1,0,-1
EndSplineSet
EndChar
StartChar: comma
Encoding: 44 44 13
Width: 206
VWidth: 1467
Flags: W
HStem: -109 213.5<44 128 128 128>
VStem: 0 180<-109 45 -109 -109>
Fore
163 98 m 0,0,1
 175 91 175 91 179 76.5 c 128,-1,2
 183 62 183 62 180 45 c 0,3,4
 175 16 175 16 160 -8 c 128,-1,5
 145 -32 145 -32 125.5 -51 c 128,-1,6
 106 -70 106 -70 84.5 -85 c 128,-1,7
 63 -100 63 -100 44 -109 c 1,8,-1
 0 -109 l 1,9,10
 37 -89 37 -89 70.5 -61.5 c 128,-1,11
 104 -34 104 -34 120 0 c 1,12,13
 78 -23 78 -23 53 -3 c 1,14,15
 43 10 43 10 48.5 34.5 c 128,-1,16
 54 59 54 59 79 82 c 0,17,18
 103 103 103 103 128 104.5 c 128,-1,19
 153 106 153 106 163 98 c 0,0,1
EndSplineSet
EndChar
StartChar: hyphen
Encoding: 45 45 14
Width: 371
VWidth: 1467
Flags: W
HStem: 235 83<122 359 103 377 122 122>
Fore
103 235 m 1,0,-1
 122 318 l 1,1,-1
 377 318 l 1,2,-1
 359 235 l 1,3,-1
 103 235 l 1,0,-1
EndSplineSet
EndChar
StartChar: period
Encoding: 46 46 15
Width: 206
VWidth: 1467
Flags: W
HStem: -16 132<102.181 137.406>
VStem: 61 97.5<20.0314 51 51 66.9729 66.9729 95.0781>
Fore
125 116 m 1,0,1
 148 119 148 119 158.5 100 c 128,-1,2
 169 81 169 81 163 51 c 0,3,4
 157 23 157 23 138 3.5 c 128,-1,5
 119 -16 119 -16 97 -16 c 0,6,7
 72 -16 72 -16 61 3.5 c 128,-1,8
 50 23 50 23 57 51 c 0,9,10
 63 81 63 81 83.5 100 c 128,-1,11
 104 119 104 119 125 116 c 1,0,1
EndSplineSet
EndChar
StartChar: slash
Encoding: 47 47 16
Width: 448
VWidth: 1467
Flags: W
Fore
63 -43 m 1,0,-1
 -19 -43 l 1,1,-1
 511 723 l 1,2,-1
 599 723 l 1,3,-1
 63 -43 l 1,0,-1
EndSplineSet
EndChar
StartChar: zero
Encoding: 48 48 17
Width: 642
VWidth: 1467
Flags: W
HStem: 3 59<303.125 408.106> 640 58<377.671 486.717>
Fore
461 698 m 2,0,-1
 472 698 l 2,1,2
 541 698 541 698 580 669.5 c 128,-1,3
 619 641 619 641 636 595.5 c 128,-1,4
 653 550 653 550 652 495 c 128,-1,5
 651 440 651 440 643 386 c 0,6,7
 631 324 631 324 609 258 c 128,-1,8
 587 192 587 192 544 131 c 0,9,10
 508 78 508 78 456.5 42 c 128,-1,11
 405 6 405 6 330 3 c 2,12,-1
 320 3 l 2,13,14
 270 3 270 3 235 17 c 128,-1,15
 200 31 200 31 178 55 c 128,-1,16
 156 79 156 79 145 112 c 128,-1,17
 134 145 134 145 131 182 c 0,18,19
 129 197 129 197 128.5 210.5 c 128,-1,20
 128 224 128 224 129 239 c 256,21,22
 131 254 131 254 132.5 268 c 128,-1,23
 134 282 134 282 135 296 c 1,24,-1
 136 298 l 1,25,26
 138 307 138 307 139.5 315 c 128,-1,27
 141 323 141 323 142 330 c 0,28,29
 156 386 156 386 178.5 448.5 c 128,-1,30
 201 511 201 511 238 566 c 0,31,32
 276 622 276 622 330 658.5 c 128,-1,33
 384 695 384 695 461 698 c 2,0,-1
458 640 m 2,34,-1
 456 640 l 2,35,36
 401 640 401 640 358 604 c 128,-1,37
 315 568 315 568 289 516 c 0,38,39
 260 464 260 464 244.5 404.5 c 128,-1,40
 229 345 229 345 220 301 c 0,41,42
 216 273 216 273 213 243 c 128,-1,43
 210 213 210 213 213 185 c 128,-1,44
 216 157 216 157 225.5 132 c 128,-1,45
 235 107 235 107 252 91 c 1,46,47
 266 75 266 75 288 69 c 128,-1,48
 310 63 310 63 332 62 c 2,49,-1
 333 62 l 1,50,-1
 337 62 l 2,51,52
 387 65 387 65 425.5 95.5 c 128,-1,53
 464 126 464 126 489 170 c 0,54,55
 518 223 518 223 534 281 c 128,-1,56
 550 339 550 339 562 389 c 0,57,58
 566 415 566 415 568.5 446 c 128,-1,59
 571 477 571 477 568 506.5 c 128,-1,60
 565 536 565 536 556 563 c 128,-1,61
 547 590 547 590 531 607 c 0,62,63
 524 615 524 615 517.5 621.5 c 128,-1,64
 511 628 511 628 502 631 c 2,65,66
 484 640 484 640 458 640 c 2,34,-1
EndSplineSet
EndChar
StartChar: one
Encoding: 49 49 18
Width: 642
VWidth: 1467
Flags: W
HStem: -4 21G<288 367>
VStem: 288 224<-4 694 -4 -4>
Fore
289 6 m 1,0,-1
 417 602 l 1,1,-1
 362 574 l 1,2,-1
 343 565 l 1,3,-1
 349 582 l 1,4,-1
 364 643 l 1,5,-1
 364 649 l 1,6,-1
 370 650 l 1,7,-1
 450 693 l 1,8,-1
 456 694 l 1,9,-1
 502 694 l 1,10,-1
 512 694 l 1,11,-1
 511 684 l 1,12,-1
 367 6 l 1,13,-1
 365 -4 l 1,14,-1
 355 -4 l 1,15,-1
 298 -4 l 1,16,-1
 288 -4 l 1,17,-1
 289 6 l 1,0,-1
EndSplineSet
EndChar
StartChar: two
Encoding: 50 50 19
Width: 642
VWidth: 1467
Flags: W
HStem: 3 69<232 368.969 368.969 433.485 433.485 533.378> 631.5 65.5<366.375 510.981>
Fore
527 3 m 1,0,-1
 100 3 l 1,1,-1
 89 3 l 1,2,-1
 92 15 l 1,3,-1
 101 48 l 1,4,-1
 104 54 l 1,5,6
 163 101 163 101 218 148 c 128,-1,7
 273 195 273 195 329 245 c 0,8,9
 383 292 383 292 439.5 342.5 c 128,-1,10
 496 393 496 393 546 446 c 0,11,12
 558 459 558 459 566 470 c 128,-1,13
 574 481 574 481 581 492 c 0,14,15
 582 494 582 494 587 499 c 1,16,17
 599 525 599 525 603 541 c 0,18,19
 609 571 609 571 596 590 c 1,20,21
 581 604 581 604 547 618 c 0,22,23
 494 638 494 638 429.5 631.5 c 128,-1,24
 365 625 365 625 304 610 c 0,25,26
 286 607 286 607 267 602 c 1,27,-1
 252 600 l 1,28,-1
 258 613 l 1,29,-1
 276 673 l 1,30,-1
 285 675 l 2,31,32
 321 682 321 682 365 688 c 128,-1,33
 409 694 409 694 452 697 c 0,34,35
 499 698 499 698 540.5 692.5 c 128,-1,36
 582 687 582 687 615 671 c 0,37,38
 635 660 635 660 650.5 645.5 c 128,-1,39
 666 631 666 631 673 612 c 0,40,41
 675 609 675 609 676.5 604.5 c 128,-1,42
 678 600 678 600 679 597 c 1,43,44
 685 571 685 571 679 543 c 0,45,46
 675 519 675 519 662 496 c 0,47,48
 654 484 654 484 646 471.5 c 128,-1,49
 638 459 638 459 626 445 c 0,50,51
 584 392 584 392 535 342 c 128,-1,52
 486 292 486 292 434 245 c 0,53,54
 387 201 387 201 334.5 157 c 128,-1,55
 282 113 282 113 232 72 c 1,56,-1
 271 72 l 2,57,58
 307 72 307 72 337.5 72 c 128,-1,59
 368 72 368 72 400.5 72.5 c 128,-1,60
 433 73 433 73 466.5 74 c 128,-1,61
 500 75 500 75 541 78 c 2,62,-1
 552 79 l 1,63,-1
 549 67 l 1,64,-1
 538 13 l 1,65,-1
 537 3 l 1,66,-1
 527 3 l 1,0,-1
EndSplineSet
EndChar
StartChar: three
Encoding: 51 51 20
Width: 642
VWidth: 1467
Flags: W
HStem: -1.5 62<203.441 348.719> 323 70<305 325.273 325.273 349.242 349.242 413.917> 635 61.5<324.11 365 365 383.571 383.571 387 387 422.669 422.669 427.727 425.198 503.558>
Fore
291 333 m 1,0,-1
 302 386 l 1,1,-1
 305 395 l 1,2,-1
 313 393 l 1,3,4
 326 393 326 393 337.5 392.5 c 128,-1,5
 349 392 349 392 361 392 c 0,6,7
 395 392 395 392 427 397.5 c 128,-1,8
 459 403 459 403 489 417 c 0,9,10
 516 431 516 431 543.5 454 c 128,-1,11
 571 477 571 477 580 511 c 2,12,13
 582 515 582 515 585 528 c 1,14,15
 587 562 587 562 576.5 582.5 c 128,-1,16
 566 603 566 603 548 615.5 c 128,-1,17
 530 628 530 628 504 633 c 128,-1,18
 478 638 478 638 449 641 c 0,19,20
 427 641 427 641 406.5 639.5 c 128,-1,21
 386 638 386 638 365 635 c 0,22,23
 343 632 343 632 323.5 629 c 128,-1,24
 304 626 304 626 283 619 c 1,25,-1
 268 616 l 1,26,-1
 273 629 l 1,27,-1
 286 675 l 1,28,-1
 289 682 l 1,29,-1
 298 684 l 2,30,31
 346 693 346 693 387 696.5 c 128,-1,32
 428 700 428 700 458 700 c 0,33,34
 497 700 497 700 538.5 692.5 c 128,-1,35
 580 685 580 685 609 668 c 0,36,37
 643 649 643 649 659.5 618.5 c 128,-1,38
 676 588 676 588 666 543 c 0,39,40
 649 462 649 462 594 417 c 0,41,42
 550 377 550 377 489 362 c 1,43,44
 543 346 543 346 562.5 332 c 128,-1,45
 582 318 582 318 596 305 c 1,46,47
 626 254 626 254 603 192 c 0,48,49
 578 119 578 119 529 78 c 128,-1,50
 480 37 480 37 422.5 18.5 c 128,-1,51
 365 0 365 0 306.5 -1.5 c 128,-1,52
 248 -3 248 -3 202 1 c 0,53,54
 189 4 189 4 176 6.5 c 128,-1,55
 163 9 163 9 148 12 c 0,56,57
 136 15 136 15 122.5 18 c 128,-1,58
 109 21 109 21 97 23 c 2,59,-1
 89 26 l 1,60,-1
 91 32 l 1,61,-1
 98 87 l 1,62,-1
 100 101 l 1,63,-1
 113 95 l 2,64,65
 170 70 170 70 242.5 60.5 c 128,-1,66
 315 51 315 51 383 73 c 0,67,68
 427 89 427 89 455.5 107.5 c 128,-1,69
 484 126 484 126 500 146 c 128,-1,70
 516 166 516 166 522 185 c 128,-1,71
 528 204 528 204 530 220 c 0,72,73
 530 252 530 252 512 277 c 1,74,75
 475 311 475 311 426 318.5 c 128,-1,76
 377 326 377 326 329 323 c 2,77,-1
 296 323 l 1,78,-1
 286 323 l 1,79,-1
 291 333 l 1,0,-1
EndSplineSet
EndChar
StartChar: four
Encoding: 52 52 21
Width: 642
VWidth: 1467
Flags: W
HStem: -6 21G<398 487> 239 66<233 452 543 632> 681 20G<521 628>
Fore
399 3 m 1,0,-1
 452 239 l 1,1,-1
 136 239 l 1,2,-1
 126 239 l 1,3,-1
 129 249 l 1,4,-1
 141 305 l 1,5,-1
 144 311 l 1,6,-1
 521 697 l 1,7,-1
 525 701 l 1,8,-1
 531 701 l 1,9,-1
 618 701 l 1,10,-1
 628 701 l 1,11,-1
 626 691 l 1,12,-1
 543 305 l 1,13,-1
 647 305 l 1,14,-1
 644 295 l 1,15,-1
 635 249 l 1,16,-1
 632 239 l 1,17,-1
 528 239 l 1,18,-1
 487 4 l 1,19,-1
 487 -6 l 1,20,-1
 477 -6 l 1,21,-1
 406 -6 l 1,22,-1
 398 -6 l 1,23,-1
 399 3 l 1,0,-1
233 305 m 1,24,-1
 465 305 l 1,25,-1
 525 621 l 1,26,-1
 233 305 l 1,24,-1
EndSplineSet
EndChar
StartChar: five
Encoding: 53 53 22
Width: 642
VWidth: 1467
Flags: W
HStem: -18 55.5<132.312 151.5 181.5 221.273 221.273 229.969 229.969 339.266> 352.5 65<275.25 320.632 320.632 391.204 391.204 397.925> 635 62<348 550.242 550.242 633.873 633.873 681>
Fore
180 352 m 1,0,-1
 291 687 l 1,1,-1
 292 697 l 1,2,-1
 298 697 l 1,3,-1
 687 697 l 1,4,-1
 695 697 l 1,5,-1
 694 687 l 1,6,-1
 684 637 l 1,7,-1
 681 628 l 1,8,-1
 672 628 l 2,9,10
 629 631 629 631 589.5 633 c 128,-1,11
 550 635 550 635 511 635 c 2,12,-1
 348 635 l 1,13,-1
 270 409 l 1,14,-1
 274 409 l 2,15,16
 314 414 314 414 356 417.5 c 128,-1,17
 398 421 398 421 437.5 419 c 128,-1,18
 477 417 477 417 512 406 c 128,-1,19
 547 395 547 395 572 370 c 0,20,21
 607 339 607 339 612 298 c 0,22,23
 618 273 618 273 612.5 245 c 128,-1,24
 607 217 607 217 596 191 c 256,25,26
 584 164 584 164 566.5 138 c 128,-1,27
 549 112 549 112 525 89 c 0,28,29
 499 63 499 63 466.5 41 c 128,-1,30
 434 19 434 19 401 7 c 0,31,32
 345 -13 345 -13 287 -18 c 128,-1,33
 229 -23 229 -23 173 -18 c 0,34,35
 161 -16 161 -16 151.5 -14.5 c 128,-1,36
 142 -13 142 -13 132 -12 c 0,37,38
 120 -9 120 -9 110.5 -7.5 c 128,-1,39
 101 -6 101 -6 91 -3 c 1,40,-1
 89 -3 l 1,41,-1
 85 -1 l 1,42,-1
 85 6 l 1,43,-1
 88 44 l 1,44,-1
 89 59 l 1,45,-1
 100 54 l 1,46,47
 141 44 141 44 181.5 37.5 c 128,-1,48
 222 31 222 31 261 34 c 256,49,50
 301 37 301 37 340.5 48 c 128,-1,51
 380 59 380 59 423 85 c 0,52,53
 450 103 450 103 477 132 c 0,54,55
 509 169 509 169 518 205 c 0,56,57
 524 223 524 223 524 246.5 c 128,-1,58
 524 270 524 270 516 286 c 0,59,60
 506 305 506 305 492 318 c 0,61,62
 464 339 464 339 428 346.5 c 128,-1,63
 392 354 392 354 351 355 c 256,64,65
 310 357 310 357 268 352.5 c 128,-1,66
 226 348 226 348 189 342 c 2,67,-1
 176 340 l 1,68,-1
 180 352 l 1,0,-1
EndSplineSet
EndChar
StartChar: six
Encoding: 54 54 23
Width: 642
VWidth: 1467
Flags: W
HStem: 333.5 63.5<275.062 321 347.5 358.031 358.031 375.444 366.737 489.278> 677 20G<475 555>
VStem: 100.5 82.5<107.298 189.14> 536 77<155.037 204 204 227.969 227.969 231.875 231.875 286.983>
Fore
285 500 m 0,0,1
 330 552 330 552 379 599.5 c 128,-1,2
 428 647 428 647 475 694 c 2,3,-1
 478 697 l 1,4,-1
 484 697 l 1,5,-1
 536 697 l 1,6,-1
 555 697 l 1,7,-1
 541 682 l 2,8,9
 534 675 534 675 526 665.5 c 128,-1,10
 518 656 518 656 508 644 c 0,11,12
 487 621 487 621 457.5 591.5 c 128,-1,13
 428 562 428 562 396 529 c 128,-1,14
 364 496 364 496 332.5 459.5 c 128,-1,15
 301 423 301 423 274 386 c 1,16,17
 305 393 305 393 347.5 397 c 128,-1,18
 390 401 390 401 420 401 c 0,19,20
 462 401 462 401 497.5 392.5 c 128,-1,21
 533 384 533 384 559 365 c 0,22,23
 618 327 618 327 619 249 c 0,24,25
 619 227 619 227 613 204 c 0,26,27
 603 156 603 156 575 114.5 c 128,-1,28
 547 73 547 73 506 43 c 0,29,30
 425 -21 425 -21 314 -21 c 0,31,32
 264 -21 264 -21 227 -12 c 0,33,34
 188 -1 188 -1 161 18.5 c 128,-1,35
 134 38 134 38 119 65 c 0,36,37
 103 94 103 94 100.5 127.5 c 128,-1,38
 98 161 98 161 106 200 c 128,-1,39
 114 239 114 239 132 282 c 0,40,41
 158 337 158 337 198 392 c 128,-1,42
 238 447 238 447 285 500 c 0,0,1
233 305 m 1,43,44
 222 286 222 286 212 267 c 128,-1,45
 202 248 202 248 197 229 c 0,46,47
 183 195 183 195 183 163.5 c 128,-1,48
 183 132 183 132 196.5 106.5 c 128,-1,49
 210 81 210 81 238.5 62.5 c 128,-1,50
 267 44 267 44 311 38 c 0,51,52
 349 34 349 34 386 45.5 c 128,-1,53
 423 57 423 57 453 80 c 128,-1,54
 483 103 483 103 505 136 c 128,-1,55
 527 169 527 169 536 208 c 0,56,57
 540 227 540 227 537 248 c 0,58,59
 536 271 536 271 522 287.5 c 128,-1,60
 508 304 508 304 490 315 c 0,61,62
 455 337 455 337 395 337 c 0,63,64
 359 337 359 337 321 333.5 c 128,-1,65
 283 330 283 330 249 314 c 2,66,-1
 233 305 l 1,43,44
EndSplineSet
EndChar
StartChar: seven
Encoding: 55 55 24
Width: 642
VWidth: 1467
Flags: W
HStem: -12 21G<109 207> 628 69<242 316.22 316.22 588>
Fore
280 216 m 0,0,1
 354 313 354 313 431 414 c 128,-1,2
 508 515 508 515 588 628 c 1,3,-1
 543 628 l 2,4,5
 467 628 467 628 393.5 628 c 128,-1,6
 320 628 320 628 236 625 c 2,7,-1
 227 625 l 1,8,-1
 229 634 l 1,9,-1
 241 687 l 1,10,-1
 242 697 l 1,11,-1
 251 697 l 1,12,-1
 678 697 l 1,13,-1
 688 697 l 1,14,-1
 687 687 l 1,15,-1
 673 629 l 1,16,-1
 671 626 l 1,17,18
 622 559 622 559 573.5 493 c 128,-1,19
 525 427 525 427 475 361 c 0,20,21
 406 270 406 270 340 180.5 c 128,-1,22
 274 91 274 91 207 -6 c 2,23,-1
 202 -12 l 1,24,-1
 197 -12 l 1,25,-1
 125 -12 l 1,26,-1
 109 -12 l 1,27,-1
 119 3 l 2,28,29
 160 57 160 57 199 109 c 128,-1,30
 238 161 238 161 280 216 c 0,0,1
EndSplineSet
EndChar
StartChar: eight
Encoding: 56 56 25
Width: 642
VWidth: 1467
Flags: W
HStem: -16 61<242.102 418.056> 326 86<333.355 470.028> 653 62<369.796 535.823>
Fore
571 536 m 0,0,1
 582 587 582 587 549 620 c 128,-1,2
 516 653 516 653 458 653 c 0,3,4
 398 653 398 653 351 620 c 128,-1,5
 304 587 304 587 292 536 c 0,6,7
 282 486 282 486 315.5 449 c 128,-1,8
 349 412 349 412 406 412 c 0,9,10
 462 412 462 412 511 449 c 128,-1,11
 560 486 560 486 571 536 c 0,0,1
515 183 m 0,12,13
 528 245 528 245 491.5 285.5 c 128,-1,14
 455 326 455 326 389 326 c 256,15,16
 323 326 323 326 268 285 c 128,-1,17
 213 244 213 244 200 183 c 0,18,19
 186 122 186 122 222 83.5 c 128,-1,20
 258 45 258 45 329 45 c 0,21,22
 393 45 393 45 448 85 c 128,-1,23
 503 125 503 125 515 183 c 0,12,13
647 541 m 0,24,25
 625 439 625 439 494 374 c 1,26,27
 560 352 560 352 585 302 c 128,-1,28
 610 252 610 252 597 191 c 0,29,30
 578 98 578 98 497.5 41 c 128,-1,31
 417 -16 417 -16 318 -16 c 0,32,33
 210 -16 210 -16 157 40.5 c 128,-1,34
 104 97 104 97 123 191 c 0,35,36
 136 249 136 249 183 300.5 c 128,-1,37
 230 352 230 352 301 376 c 1,38,39
 198 439 198 439 222 533 c 0,40,41
 239 618 239 618 302 666.5 c 128,-1,42
 365 715 365 715 471 715 c 0,43,44
 571 715 571 715 617 668 c 128,-1,45
 663 621 663 621 647 541 c 0,24,25
EndSplineSet
EndChar
StartChar: nine
Encoding: 57 57 26
Width: 642
VWidth: 1467
Flags: W
HStem: 291.5 62.5<297.344 438.79> 634 67<414.471 493.729>
VStem: 584.5 77<514.359 518.5 518.5 579.154>
Fore
477 195 m 0,0,1
 431 144 431 144 391 96 c 128,-1,2
 351 48 351 48 304 4 c 1,3,-1
 301 3 l 1,4,-1
 296 3 l 1,5,-1
 246 3 l 1,6,-1
 227 3 l 1,7,-1
 241 18 l 2,8,9
 248 26 248 26 256 34.5 c 128,-1,10
 264 43 264 43 273 54 c 0,11,12
 315 100 315 100 374 166 c 128,-1,13
 433 232 433 232 486 307 c 1,14,15
 428 291 428 291 367.5 291.5 c 128,-1,16
 307 292 307 292 260.5 312.5 c 128,-1,17
 214 333 214 333 189 375 c 128,-1,18
 164 417 164 417 178 483 c 1,19,-1
 179 484 l 1,20,21
 191 531 191 531 217.5 570.5 c 128,-1,22
 244 610 244 610 282 640 c 0,23,24
 323 669 323 669 370.5 686 c 128,-1,25
 418 703 418 703 470 701 c 2,26,-1
 471 701 l 2,27,28
 519 701 519 701 555 693 c 0,29,30
 593 682 593 682 613.5 663 c 128,-1,31
 634 644 634 644 649 616 c 0,32,33
 660 594 660 594 661.5 567.5 c 128,-1,34
 663 541 663 541 658.5 513.5 c 128,-1,35
 654 486 654 486 644.5 458.5 c 128,-1,36
 635 431 635 431 625 406 c 0,37,38
 599 351 599 351 560 298 c 128,-1,39
 521 245 521 245 477 195 c 0,0,1
533 383 m 1,40,41
 544 403 544 403 553 417 c 128,-1,42
 562 431 562 431 569 449 c 0,43,44
 585 484 585 484 584.5 518.5 c 128,-1,45
 584 553 584 553 567 580 c 128,-1,46
 550 607 550 607 517 622.5 c 128,-1,47
 484 638 484 638 436 634 c 0,48,49
 376 634 376 634 332 599 c 0,50,51
 291 565 291 565 269.5 524.5 c 128,-1,52
 248 484 248 484 249 442 c 0,53,54
 251 420 251 420 265.5 403.5 c 128,-1,55
 280 387 280 387 296 376 c 0,56,57
 332 354 332 354 389 354 c 0,58,59
 423 354 423 354 461 361 c 128,-1,60
 499 368 499 368 533 383 c 1,40,41
EndSplineSet
EndChar
StartChar: colon
Encoding: 58 58 27
Width: 201
VWidth: 1467
Flags: W
HStem: -16 21G<84.5 108>
VStem: 57 184<51 420 73.5065 95.0781> 61 97.5<7.23096 73.5065 73.5065 95.0781> 136 105<390.666 471.987>
Fore
125 116 m 1,0,1
 148 119 148 119 158.5 100 c 128,-1,2
 169 81 169 81 163 51 c 0,3,4
 157 23 157 23 138 3.5 c 128,-1,5
 119 -16 119 -16 97 -16 c 0,6,7
 72 -16 72 -16 61 3.5 c 128,-1,8
 50 23 50 23 57 51 c 0,9,10
 63 81 63 81 83.5 100 c 128,-1,11
 104 119 104 119 125 116 c 1,0,1
205 484 m 1,12,13
 226 487 226 487 237 468 c 128,-1,14
 248 449 248 449 241 420 c 0,15,16
 235 392 235 392 216.5 372 c 128,-1,17
 198 352 198 352 176 352 c 0,18,19
 153 352 153 352 141 372 c 128,-1,20
 129 392 129 392 136 420 c 0,21,22
 144 449 144 449 163.5 468 c 128,-1,23
 183 487 183 487 205 484 c 1,12,13
EndSplineSet
EndChar
StartChar: semicolon
Encoding: 59 59 28
Width: 215
VWidth: 1467
Flags: W
HStem: -20 20G<99 112>
VStem: 0 241<-109 420 -109 -109> 136 105<390.666 471.987>
Fore
163 98 m 0,0,1
 175 91 175 91 179 76.5 c 128,-1,2
 183 62 183 62 180 45 c 0,3,4
 175 16 175 16 160 -8 c 128,-1,5
 145 -32 145 -32 125.5 -51 c 128,-1,6
 106 -70 106 -70 84.5 -85 c 128,-1,7
 63 -100 63 -100 44 -109 c 1,8,-1
 0 -109 l 1,9,10
 37 -89 37 -89 70.5 -61.5 c 128,-1,11
 104 -34 104 -34 120 0 c 1,12,13
 78 -23 78 -23 53 -3 c 1,14,15
 43 10 43 10 48.5 34.5 c 128,-1,16
 54 59 54 59 79 82 c 0,17,18
 103 103 103 103 128 104.5 c 128,-1,19
 153 106 153 106 163 98 c 0,0,1
205 484 m 1,20,21
 226 487 226 487 237 468 c 128,-1,22
 248 449 248 449 241 420 c 0,23,24
 235 392 235 392 216.5 372 c 128,-1,25
 198 352 198 352 176 352 c 0,26,27
 153 352 153 352 141 372 c 128,-1,28
 129 392 129 392 136 420 c 0,29,30
 144 449 144 449 163.5 468 c 128,-1,31
 183 487 183 487 205 484 c 1,20,21
EndSplineSet
EndChar
StartChar: less
Encoding: 60 60 29
Width: 632
VWidth: 1467
Flags: W
HStem: -1 21G<535.5 553.381> 571 20G<648.5 670.888>
Fore
549 -1 m 1,0,1
 522 50 522 50 472.5 97 c 128,-1,2
 423 144 423 144 363.5 182 c 128,-1,3
 304 220 304 220 243.5 248.5 c 128,-1,4
 183 277 183 277 136 292 c 1,5,6
 191 310 191 310 261.5 338.5 c 128,-1,7
 332 367 332 367 406 405 c 128,-1,8
 480 443 480 443 551 490 c 128,-1,9
 622 537 622 537 675 591 c 1,10,-1
 653 484 l 1,11,12
 613 450 613 450 567 421.5 c 128,-1,13
 521 393 521 393 472 369 c 128,-1,14
 423 345 423 345 373 326 c 128,-1,15
 323 307 323 307 276 292 c 1,16,17
 315 279 315 279 357 262 c 128,-1,18
 399 245 399 245 438.5 222.5 c 128,-1,19
 478 200 478 200 512.5 170.5 c 128,-1,20
 547 141 547 141 572 104 c 1,21,-1
 549 -1 l 1,0,1
EndSplineSet
EndChar
StartChar: equal
Encoding: 61 61 30
Width: 657
VWidth: 1467
Flags: W
HStem: 147 83<101 629> 343 84<144 671>
Fore
84 147 m 1,0,-1
 101 230 l 1,1,-1
 647 230 l 1,2,-1
 629 147 l 1,3,-1
 84 147 l 1,0,-1
126 343 m 1,4,-1
 144 427 l 1,5,-1
 688 427 l 1,6,-1
 671 343 l 1,7,-1
 126 343 l 1,4,-1
EndSplineSet
EndChar
StartChar: greater
Encoding: 62 62 31
Width: 629
VWidth: 1467
Flags: W
HStem: -1 21G<73.2991 95.5> 571 20G<192.81 210>
Fore
197 591 m 1,0,1
 223 540 223 540 273 493 c 128,-1,2
 323 446 323 446 381.5 408 c 128,-1,3
 440 370 440 370 501 341.5 c 128,-1,4
 562 313 562 313 609 298 c 1,5,6
 555 280 555 280 483.5 251.5 c 128,-1,7
 412 223 412 223 338 185 c 128,-1,8
 264 147 264 147 193 100 c 128,-1,9
 122 53 122 53 69 -1 c 1,10,-1
 92 106 l 1,11,12
 172 173 172 173 273 220.5 c 128,-1,13
 374 268 374 268 470 298 c 1,14,15
 430 311 430 311 388 328 c 128,-1,16
 346 345 346 345 306.5 367.5 c 128,-1,17
 267 390 267 390 232.5 418.5 c 128,-1,18
 198 447 198 447 175 486 c 1,19,-1
 197 591 l 1,0,1
EndSplineSet
EndChar
StartChar: question
Encoding: 63 63 32
Width: 550
VWidth: 1467
Flags: W
HStem: -16 21G<248.5 272>
VStem: 162 442<502 507.5 540 553 527.5 535.5 527.5 527.5> 225 98<3.5 100>
Fore
374 533 m 0,0,1
 362 509 362 509 344 488 c 128,-1,2
 326 467 326 467 304.5 450.5 c 128,-1,3
 283 434 283 434 259 426 c 128,-1,4
 235 418 235 418 213 423 c 0,5,6
 194 425 194 425 181.5 441.5 c 128,-1,7
 169 458 169 458 164.5 480 c 128,-1,8
 160 502 160 502 162 527.5 c 128,-1,9
 164 553 164 553 176 578 c 0,10,11
 183 596 183 596 188.5 607 c 128,-1,12
 194 618 194 618 205 629 c 0,13,14
 238 668 238 668 273 689 c 128,-1,15
 308 710 308 710 364 723 c 0,16,17
 445 737 445 737 503.5 712.5 c 128,-1,18
 562 688 562 688 588.5 642 c 128,-1,19
 615 596 615 596 604 535.5 c 128,-1,20
 593 475 593 475 534 417 c 0,21,22
 516 399 516 399 495.5 385 c 128,-1,23
 475 371 475 371 454 356.5 c 128,-1,24
 433 342 433 342 414.5 326 c 128,-1,25
 396 310 396 310 384 289 c 0,26,27
 371 266 371 266 364 246.5 c 128,-1,28
 357 227 357 227 352 213 c 0,29,30
 346 197 346 197 346 182 c 1,31,-1
 260 180 l 1,32,33
 258 195 258 195 263 213 c 0,34,35
 266 229 266 229 274.5 251 c 128,-1,36
 283 273 283 273 301 302 c 0,37,38
 314 324 314 324 338 346 c 128,-1,39
 362 368 362 368 387 386 c 0,40,41
 415 406 415 406 446 424 c 1,42,43
 499 465 499 465 516.5 510.5 c 128,-1,44
 534 556 534 556 526 593.5 c 128,-1,45
 518 631 518 631 488 655 c 128,-1,46
 458 679 458 679 415 679 c 0,47,48
 402 679 402 679 380 677 c 128,-1,49
 358 675 358 675 339 666 c 1,50,51
 354 659 354 659 365.5 650 c 128,-1,52
 377 641 377 641 383 625.5 c 128,-1,53
 389 610 389 610 387.5 587.5 c 128,-1,54
 386 565 386 565 374 533 c 0,0,1
236 568 m 0,55,56
 230 555 230 555 225 538.5 c 128,-1,57
 220 522 220 522 218.5 507.5 c 128,-1,58
 217 493 217 493 220 482 c 128,-1,59
 223 471 223 471 233 470 c 1,60,61
 242 467 242 467 254 473.5 c 128,-1,62
 266 480 266 480 277 490 c 128,-1,63
 288 500 288 500 298 513.5 c 128,-1,64
 308 527 308 527 314 540 c 0,65,66
 327 566 327 566 329.5 594 c 128,-1,67
 332 622 332 622 313 629 c 0,68,69
 292 635 292 635 270.5 614 c 128,-1,70
 249 593 249 593 236 568 c 0,55,56
289 116 m 1,71,72
 313 119 313 119 323 100 c 128,-1,73
 333 81 333 81 327 51 c 0,74,75
 321 23 321 23 302 3.5 c 128,-1,76
 283 -16 283 -16 261 -16 c 0,77,78
 236 -16 236 -16 225 3.5 c 128,-1,79
 214 23 214 23 222 51 c 0,80,81
 227 81 227 81 247.5 100 c 128,-1,82
 268 119 268 119 289 116 c 1,71,72
EndSplineSet
EndChar
StartChar: at
Encoding: 64 64 33
Width: 934
VWidth: 1467
Flags: W
HStem: -163 59<307.596 474.39> 519 68<457.077 711.34>
Fore
615 587 m 0,0,1
 698 587 698 587 762 562.5 c 128,-1,2
 826 538 826 538 867 494 c 128,-1,3
 908 450 908 450 923 388 c 128,-1,4
 938 326 938 326 920 251 c 0,5,6
 908 198 908 198 882.5 155 c 128,-1,7
 857 112 857 112 823 78 c 128,-1,8
 789 44 789 44 752 20.5 c 128,-1,9
 715 -3 715 -3 681 -15 c 0,10,11
 650 -22 650 -22 637.5 -14.5 c 128,-1,12
 625 -7 625 -7 622 -4 c 1,13,14
 616 7 616 7 613 20.5 c 128,-1,15
 610 34 610 34 610 45 c 1,16,17
 597 37 597 37 573 22 c 128,-1,18
 549 7 549 7 517.5 -4.5 c 128,-1,19
 486 -16 486 -16 450.5 -22.5 c 128,-1,20
 415 -29 415 -29 380 -23 c 0,21,22
 330 -16 330 -16 302 16 c 128,-1,23
 274 48 274 48 285 100 c 0,24,25
 293 144 293 144 324 169 c 128,-1,26
 355 194 355 194 394.5 207 c 128,-1,27
 434 220 434 220 477.5 226.5 c 128,-1,28
 521 233 521 233 556 241 c 0,29,30
 568 244 568 244 585 249 c 128,-1,31
 602 254 602 254 618 261 c 128,-1,32
 634 268 634 268 647 279.5 c 128,-1,33
 660 291 660 291 663 305 c 0,34,35
 666 324 666 324 664 338 c 128,-1,36
 662 352 662 352 646 367 c 0,37,38
 626 384 626 384 591 388.5 c 128,-1,39
 556 393 556 393 515 388.5 c 128,-1,40
 474 384 474 384 432 372.5 c 128,-1,41
 390 361 390 361 359 346 c 1,42,-1
 379 401 l 1,43,44
 412 417 412 417 455.5 425.5 c 128,-1,45
 499 434 499 434 542 435 c 128,-1,46
 585 436 585 436 624 430 c 128,-1,47
 663 424 663 424 690 409 c 0,48,49
 715 398 715 398 725 368.5 c 128,-1,50
 735 339 735 339 728 304 c 2,51,-1
 679 75 l 2,52,53
 678 66 678 66 676.5 58 c 128,-1,54
 675 50 675 50 676 43 c 1,55,56
 701 53 701 53 727.5 72 c 128,-1,57
 754 91 754 91 777 117.5 c 128,-1,58
 800 144 800 144 816.5 176 c 128,-1,59
 833 208 833 208 842 245 c 0,60,61
 855 307 855 307 843.5 358 c 128,-1,62
 832 409 832 409 799 446 c 128,-1,63
 766 483 766 483 713 502 c 128,-1,64
 660 521 660 521 593 519 c 0,65,66
 515 516 515 516 446 494 c 128,-1,67
 377 472 377 472 322 430.5 c 128,-1,68
 267 389 267 389 229 328 c 128,-1,69
 191 267 191 267 173 186 c 0,70,71
 160 120 160 120 174 66.5 c 128,-1,72
 188 13 188 13 221.5 -25 c 128,-1,73
 255 -63 255 -63 306 -83.5 c 128,-1,74
 357 -104 357 -104 417 -104 c 0,75,76
 468 -104 468 -104 510 -97.5 c 128,-1,77
 552 -91 552 -91 593 -73 c 1,78,-1
 631 -106 l 1,79,80
 580 -132 580 -132 517.5 -146.5 c 128,-1,81
 455 -161 455 -161 402 -163 c 0,82,83
 326 -164 326 -164 263 -139 c 128,-1,84
 200 -114 200 -114 157 -68 c 128,-1,85
 114 -22 114 -22 96.5 42.5 c 128,-1,86
 79 107 79 107 95 182 c 0,87,88
 113 260 113 260 151 332.5 c 128,-1,89
 189 405 189 405 251.5 460.5 c 128,-1,90
 314 516 314 516 404 550.5 c 128,-1,91
 494 585 494 585 615 587 c 0,0,1
650 232 m 1,92,93
 597 197 597 197 540 188 c 0,94,95
 512 183 512 183 480.5 178 c 128,-1,96
 449 173 449 173 421 163.5 c 128,-1,97
 393 154 393 154 374 139.5 c 128,-1,98
 355 125 355 125 351 100 c 0,99,100
 343 66 343 66 362 46 c 128,-1,101
 381 26 381 26 414 25 c 0,102,103
 459 22 459 22 498 35 c 128,-1,104
 537 48 537 48 565 65 c 0,105,106
 597 84 597 84 624 110 c 1,107,-1
 650 232 l 1,92,93
EndSplineSet
EndChar
StartChar: A
Encoding: 65 65 34
Width: 698
VWidth: 1467
Flags: W
HStem: 1 21G<53 138.245 560.868 637> 213 58<257 549>
VStem: 550 72<151.167 213>
Fore
550 213 m 1,0,-1
 227 213 l 1,1,-1
 129 1 l 1,2,-1
 53 1 l 1,3,-1
 299 534 l 2,4,5
 318 569 318 569 336.5 601.5 c 128,-1,6
 355 634 355 634 378 658 c 128,-1,7
 401 682 401 682 429.5 696 c 128,-1,8
 458 710 458 710 497 709 c 0,9,10
 531 707 531 707 551.5 694 c 128,-1,11
 572 681 572 681 584 661 c 128,-1,12
 596 641 596 641 600 616 c 128,-1,13
 604 591 604 591 606 566 c 0,14,15
 616 424 616 424 622 283 c 128,-1,16
 628 142 628 142 637 1 c 1,17,-1
 562 1 l 1,18,-1
 550 213 l 1,0,-1
549 271 m 1,19,-1
 537 509 l 2,20,21
 534 537 534 537 532.5 559 c 128,-1,22
 531 581 531 581 525 600 c 0,23,24
 521 625 521 625 507.5 637 c 128,-1,25
 494 649 494 649 478 648 c 128,-1,26
 462 647 462 647 445 635.5 c 128,-1,27
 428 624 428 624 417 603 c 0,28,29
 408 588 408 588 402 577 c 128,-1,30
 396 566 396 566 391 556 c 128,-1,31
 386 546 386 546 381 535 c 128,-1,32
 376 524 376 524 368 509 c 2,33,-1
 257 271 l 1,34,-1
 549 271 l 1,19,-1
EndSplineSet
EndChar
StartChar: B
Encoding: 66 66 35
Width: 736
VWidth: 1467
Flags: W
HStem: 0 60<189 433> 389 67<403 518.063> 641 56<311 596.748>
Fore
524 418 m 1,0,1
 549 412 549 412 581 399 c 128,-1,2
 613 386 613 386 639.5 361.5 c 128,-1,3
 666 337 666 337 680 300 c 128,-1,4
 694 263 694 263 682 210 c 0,5,6
 669 148 669 148 640.5 109 c 128,-1,7
 612 70 612 70 576 46.5 c 128,-1,8
 540 23 540 23 502 13 c 128,-1,9
 464 3 464 3 430 1 c 1,10,-1
 433 0 l 1,11,-1
 104 0 l 1,12,-1
 249 697 l 1,13,-1
 568 697 l 2,14,15
 594 694 594 694 618.5 686.5 c 128,-1,16
 643 679 643 679 659 663 c 128,-1,17
 675 647 675 647 682.5 621.5 c 128,-1,18
 690 596 690 596 681 558 c 0,19,20
 676 533 676 533 663 512.5 c 128,-1,21
 650 492 650 492 631 471 c 0,22,23
 613 452 613 452 581.5 438.5 c 128,-1,24
 550 425 550 425 524 418 c 1,0,1
420 60 m 2,25,26
 447 60 447 60 476.5 66 c 128,-1,27
 506 72 506 72 532.5 89 c 128,-1,28
 559 106 559 106 580.5 136 c 128,-1,29
 602 166 602 166 612 214 c 0,30,31
 621 257 621 257 608.5 289 c 128,-1,32
 596 321 596 321 572.5 342.5 c 128,-1,33
 549 364 549 364 519 375 c 128,-1,34
 489 386 489 386 462 389 c 2,35,-1
 390 389 l 1,36,-1
 403 455 l 1,37,-1
 487 456 l 2,38,39
 527 459 527 459 565 485.5 c 128,-1,40
 603 512 603 512 612 555 c 0,41,42
 621 596 621 596 599.5 617 c 128,-1,43
 578 638 578 638 540 641 c 2,44,-1
 311 641 l 1,45,46
 296 574 296 574 281 498.5 c 128,-1,47
 266 423 266 423 249.5 346.5 c 128,-1,48
 233 270 233 270 217.5 196.5 c 128,-1,49
 202 123 202 123 189 60 c 1,50,-1
 420 60 l 2,25,26
EndSplineSet
EndChar
StartChar: C
Encoding: 67 67 36
Width: 654
VWidth: 1467
Flags: W
VStem: 671 48<587.637 622.817>
Fore
147 211 m 0,0,1
 151 230 151 230 158.5 265.5 c 128,-1,2
 166 301 166 301 174.5 342 c 128,-1,3
 183 383 183 383 192.5 427 c 128,-1,4
 202 471 202 471 211 509 c 0,5,6
 217 538 217 538 233 564 c 128,-1,7
 249 590 249 590 270 610.5 c 128,-1,8
 291 631 291 631 313 647 c 128,-1,9
 335 663 335 663 352 672 c 0,10,11
 393 694 393 694 451 702 c 128,-1,12
 509 710 509 710 564 702.5 c 128,-1,13
 619 695 619 695 662.5 671 c 128,-1,14
 706 647 706 647 719 603 c 1,15,-1
 671 560 l 1,16,17
 662 597 662 597 627.5 617.5 c 128,-1,18
 593 638 593 638 547.5 644 c 128,-1,19
 502 650 502 650 455 642.5 c 128,-1,20
 408 635 408 635 376 618 c 0,21,22
 342 600 342 600 316.5 572 c 128,-1,23
 291 544 291 544 283 512 c 0,24,25
 273 465 273 465 265 426 c 128,-1,26
 257 387 257 387 249 350.5 c 128,-1,27
 241 314 241 314 232.5 275 c 128,-1,28
 224 236 224 236 214 189 c 0,29,30
 207 157 207 157 221.5 129 c 128,-1,31
 236 101 236 101 263 84 c 0,32,33
 288 66 288 66 332 58.5 c 128,-1,34
 376 51 376 51 423 57 c 128,-1,35
 470 63 470 63 513 83 c 128,-1,36
 556 103 556 103 581 141 c 1,37,-1
 612 98 l 1,38,39
 580 54 580 54 526 30 c 128,-1,40
 472 6 472 6 413.5 -1.5 c 128,-1,41
 355 -9 355 -9 301.5 -1 c 128,-1,42
 248 7 248 7 216 29 c 0,43,44
 201 38 201 38 185.5 55 c 128,-1,45
 170 72 170 72 159 94.5 c 128,-1,46
 148 117 148 117 143.5 146.5 c 128,-1,47
 139 176 139 176 147 211 c 0,0,1
EndSplineSet
EndChar
StartChar: D
Encoding: 68 68 37
Width: 682
VWidth: 1467
Flags: W
HStem: 4 56<182 202.692 202.692 233.788 233.788 380.077> 647 57<307 342.676>
Fore
606 628 m 1,0,1
 678 563 678 563 686 473.5 c 128,-1,2
 694 384 694 384 662 288 c 0,3,4
 646 238 646 238 619.5 186.5 c 128,-1,5
 593 135 593 135 548 94 c 128,-1,6
 503 53 503 53 437 27 c 128,-1,7
 371 1 371 1 277 4 c 2,8,9
 261.5 4 l 2,10,11
 246 4 246 4 224 4 c 128,-1,12
 202 4 202 4 177.5 3.5 c 128,-1,13
 153 3 153 3 133 3 c 128,-1,14
 113 3 113 3 103.5 3 c 128,-1,15
 94 3 94 3 101 3 c 1,16,-1
 252 704 l 1,17,-1
 296 704 l 2,18,19
 386 700 386 700 441.5 690.5 c 128,-1,20
 497 681 497 681 530 670 c 128,-1,21
 563 659 563 659 578.5 647 c 128,-1,22
 594 635 594 635 606 628 c 1,0,1
527 169 m 0,23,24
 581 251 581 251 598.5 321.5 c 128,-1,25
 616 392 616 392 609.5 447 c 128,-1,26
 603 502 603 502 581 539.5 c 128,-1,27
 559 577 559 577 536 593 c 0,28,29
 506 612 506 612 471 623 c 128,-1,30
 436 634 436 634 403 639 c 128,-1,31
 370 644 370 644 343.5 645.5 c 128,-1,32
 317 647 317 647 307 647 c 1,33,-1
 182 60 l 1,34,35
 235 59 235 59 285.5 61 c 128,-1,36
 336 63 336 63 381.5 75 c 128,-1,37
 427 87 427 87 463.5 109 c 128,-1,38
 500 131 500 131 527 169 c 0,23,24
EndSplineSet
EndChar
StartChar: E
Encoding: 69 69 38
Width: 664
VWidth: 1467
Flags: W
HStem: -4 57<339.808 593> 315 59<252 549> 640 57<465.656 562.177 562.177 611.938 611.938 674.062 674.062 719.744 719.744 729>
Fore
531 640 m 1,0,1
 490 640 490 640 449 634.5 c 128,-1,2
 408 629 408 629 372 609.5 c 128,-1,3
 336 590 336 590 308 550.5 c 128,-1,4
 280 511 280 511 267 443 c 2,5,-1
 252 374 l 1,6,-1
 562 374 l 1,7,-1
 549 315 l 1,8,-1
 239 315 l 1,9,-1
 226 249 l 2,10,11
 210 180 210 180 221 141.5 c 128,-1,12
 232 103 232 103 260 83 c 128,-1,13
 288 63 288 63 326.5 58 c 128,-1,14
 365 53 365 53 406 53 c 2,15,-1
 604 53 l 1,16,-1
 593 -4 l 1,17,-1
 396 -4 l 2,18,19
 343 -3 343 -3 292 5 c 128,-1,20
 241 13 241 13 204 40 c 128,-1,21
 167 67 167 67 151.5 117 c 128,-1,22
 136 167 136 167 154 252 c 2,23,-1
 194 440 l 2,24,25
 213 525 213 525 249.5 575 c 128,-1,26
 286 625 286 625 333.5 652 c 128,-1,27
 381 679 381 679 436.5 687 c 128,-1,28
 492 695 492 695 544 697 c 0,29,30
 552 697 552 697 581 697.5 c 128,-1,31
 610 698 610 698 643 698 c 128,-1,32
 676 698 676 698 705 697.5 c 128,-1,33
 734 697 734 697 741 697 c 1,34,-1
 729 640 l 1,35,-1
 531 640 l 1,0,1
EndSplineSet
EndChar
StartChar: F
Encoding: 70 70 39
Width: 660
VWidth: 1467
Flags: W
HStem: 1 21G<103 179.177> 317 59<254 550> 641 57<484.395 564.935 564.935 614.181 614.181 676.304 676.304 722.001 722.001 731>
Fore
533 641 m 1,0,1
 492 641 492 641 450.5 636 c 128,-1,2
 409 631 409 631 373 611 c 128,-1,3
 337 591 337 591 309.5 551.5 c 128,-1,4
 282 512 282 512 268 445 c 2,5,-1
 254 376 l 1,6,-1
 563 376 l 1,7,-1
 550 317 l 1,8,-1
 241 317 l 1,9,-1
 175 1 l 1,10,-1
 103 1 l 1,11,-1
 195 442 l 2,12,13
 214 527 214 527 251 576.5 c 128,-1,14
 288 626 288 626 336 653.5 c 128,-1,15
 384 681 384 681 438.5 689 c 128,-1,16
 493 697 493 697 547 698 c 0,17,18
 555 698 555 698 583.5 699 c 128,-1,19
 612 700 612 700 645 700 c 128,-1,20
 678 700 678 700 707.5 699 c 128,-1,21
 737 698 737 698 744 698 c 1,22,-1
 731 641 l 1,23,-1
 533 641 l 1,0,1
EndSplineSet
EndChar
StartChar: G
Encoding: 71 71 40
Width: 698
VWidth: 1467
Flags: W
HStem: -6 66<351.143 437.436>
Fore
392 60 m 0,0,1
 481 59 481 59 529 97.5 c 128,-1,2
 577 136 577 136 597 216 c 0,3,4
 607 258 607 258 598.5 281 c 128,-1,5
 590 304 590 304 570 314 c 128,-1,6
 550 324 550 324 523 326.5 c 128,-1,7
 496 329 496 329 470 332 c 1,8,-1
 481 392 l 1,9,10
 531 398 531 398 572 392 c 128,-1,11
 613 386 613 386 639.5 364 c 128,-1,12
 666 342 666 342 675 304 c 128,-1,13
 684 266 684 266 669 210 c 0,14,15
 651 147 651 147 622.5 105 c 128,-1,16
 594 63 594 63 556.5 38 c 128,-1,17
 519 13 519 13 474.5 3.5 c 128,-1,18
 430 -6 430 -6 380 -6 c 0,19,20
 327 -4 327 -4 278 4.5 c 128,-1,21
 229 13 229 13 196 41 c 128,-1,22
 163 69 163 69 149.5 119.5 c 128,-1,23
 136 170 136 170 154 254 c 2,24,-1
 213 524 l 2,25,26
 219 552 219 552 234 575.5 c 128,-1,27
 249 599 249 599 269 616.5 c 128,-1,28
 289 634 289 634 311 648 c 128,-1,29
 333 662 333 662 352 671 c 0,30,31
 393 693 393 693 451 701 c 128,-1,32
 509 709 509 709 565 701.5 c 128,-1,33
 621 694 621 694 665 670 c 128,-1,34
 709 646 709 646 722 602 c 1,35,-1
 671 546 l 1,36,37
 663 582 663 582 630 605 c 128,-1,38
 597 628 597 628 554 636 c 128,-1,39
 511 644 511 644 464.5 639 c 128,-1,40
 418 634 418 634 386 616 c 0,41,42
 352 599 352 599 324 566 c 128,-1,43
 296 533 296 533 289 500 c 0,44,45
 285 475 285 475 279.5 454.5 c 128,-1,46
 274 434 274 434 268.5 407 c 128,-1,47
 263 380 263 380 254.5 342.5 c 128,-1,48
 246 305 246 305 235 248 c 0,49,50
 223 182 223 182 233.5 145.5 c 128,-1,51
 244 109 244 109 267.5 90.5 c 128,-1,52
 291 72 291 72 324 67 c 128,-1,53
 357 62 357 62 392 60 c 0,0,1
EndSplineSet
EndChar
StartChar: H
Encoding: 72 72 41
Width: 735
VWidth: 1467
Flags: W
HStem: 1 21G<104 182.177 559 636.275> 317 59<257 625> 678 20G<247.753 326 702.714 781>
Fore
707 698 m 1,0,-1
 781 698 l 1,1,-1
 632 1 l 1,2,-1
 559 1 l 1,3,-1
 625 317 l 1,4,-1
 244 317 l 1,5,-1
 178 1 l 1,6,-1
 104 1 l 1,7,-1
 252 698 l 1,8,-1
 326 698 l 1,9,-1
 257 376 l 1,10,-1
 638 376 l 1,11,-1
 707 698 l 1,0,-1
EndSplineSet
EndChar
StartChar: I
Encoding: 73 73 42
Width: 280
VWidth: 1467
Flags: W
HStem: 1 21G<100 179.247> 678 20G<244.725 323>
VStem: 100 223<1 698 1 1>
Fore
249 698 m 1,0,-1
 323 698 l 1,1,-1
 175 1 l 1,2,-1
 100 1 l 1,3,-1
 249 698 l 1,0,-1
EndSplineSet
EndChar
StartChar: J
Encoding: 74 74 43
Width: 470
VWidth: 1467
Flags: W
HStem: 677 20G<438 515>
VStem: 54 69<65.2731 144>
Fore
123 144 m 1,0,1
 117 89 117 89 144.5 64.5 c 128,-1,2
 172 40 172 40 209 42.5 c 128,-1,3
 246 45 246 45 282 77.5 c 128,-1,4
 318 110 318 110 332 170 c 0,5,6
 342 220 342 220 356.5 289.5 c 128,-1,7
 371 359 371 359 387 433.5 c 128,-1,8
 403 508 403 508 418 577.5 c 128,-1,9
 433 647 433 647 443 697 c 1,10,-1
 515 697 l 1,11,12
 503 641 503 641 488.5 569 c 128,-1,13
 474 497 474 497 458 422.5 c 128,-1,14
 442 348 442 348 426.5 275 c 128,-1,15
 411 202 411 202 399 147 c 0,16,17
 387 95 387 95 354 60.5 c 128,-1,18
 321 26 321 26 279.5 8.5 c 128,-1,19
 238 -9 238 -9 193 -9.5 c 128,-1,20
 148 -10 148 -10 113.5 6.5 c 128,-1,21
 79 23 79 23 61 57 c 128,-1,22
 43 91 43 91 54 144 c 1,23,-1
 123 144 l 1,0,1
EndSplineSet
EndChar
StartChar: K
Encoding: 75 75 44
Width: 720
VWidth: 1467
Flags: W
VStem: 603.5 77<234.462 337.5 337.5 406.429>
Fore
580 409 m 0,0,1
 556 430 556 430 523 440 c 128,-1,2
 490 450 490 450 453 453 c 1,3,-1
 235 280 l 1,4,-1
 178 4 l 1,5,-1
 100 3 l 1,6,-1
 100 4 l 1,7,-1
 252 716 l 1,8,-1
 329 716 l 1,9,-1
 260 379 l 1,10,-1
 695 716 l 1,11,-1
 781 716 l 1,12,-1
 515 511 l 1,13,14
 558 508 558 508 593.5 490 c 128,-1,15
 629 472 629 472 653 449 c 0,16,17
 682 415 682 415 680.5 363 c 128,-1,18
 679 311 679 311 663 232 c 2,19,-1
 615 3 l 1,20,-1
 541 3 l 1,21,-1
 590 229 l 2,22,23
 603 286 603 286 603.5 337.5 c 128,-1,24
 604 389 604 389 580 409 c 0,0,1
EndSplineSet
EndChar
StartChar: L
Encoding: 76 76 45
Width: 620
VWidth: 1467
Flags: W
HStem: -1 58<326.837 550> 678 20G<244.666 320>
VStem: 144.5 418.5<57 121 121 121>
Fore
550 -1 m 1,0,-1
 354 -1 l 2,1,2
 301 0 301 0 256 9 c 128,-1,3
 211 18 211 18 182.5 44 c 128,-1,4
 154 70 154 70 144.5 121 c 128,-1,5
 135 172 135 172 153 255 c 2,6,-1
 249 698 l 1,7,-1
 320 698 l 1,8,-1
 226 254 l 2,9,10
 210 185 210 185 218.5 146 c 128,-1,11
 227 107 227 107 252 87 c 128,-1,12
 277 67 277 67 314 62 c 128,-1,13
 351 57 351 57 392 57 c 2,14,-1
 563 57 l 1,15,-1
 550 -1 l 1,0,-1
EndSplineSet
EndChar
StartChar: M
Encoding: 77 77 46
Width: 874
VWidth: 1467
Flags: W
HStem: 0 21G<103 177.5 703 777.155> 678 20G<244.817 334.5 829 918>
Fore
336 713 m 1,0,-1
 337 713 l 1,1,-1
 336 713 l 1,0,-1
321 698 m 1,2,3
 348 684 348 684 377 658 c 128,-1,4
 406 632 406 632 435 599 c 128,-1,5
 464 566 464 566 489 529 c 128,-1,6
 514 492 514 492 530 455 c 1,7,8
 568 499 568 499 611 537 c 128,-1,9
 654 575 654 575 696 606.5 c 128,-1,10
 738 638 738 638 776 661.5 c 128,-1,11
 814 685 814 685 844 698 c 1,12,-1
 918 698 l 1,13,-1
 773 0 l 1,14,-1
 703 0 l 1,15,16
 707 23 707 23 716.5 72.5 c 128,-1,17
 726 122 726 122 739.5 183.5 c 128,-1,18
 753 245 753 245 767 314 c 128,-1,19
 781 383 781 383 794 444.5 c 128,-1,20
 807 506 807 506 817.5 554.5 c 128,-1,21
 828 603 828 603 832 626 c 1,22,23
 817 622 817 622 790.5 605 c 128,-1,24
 764 588 764 588 732 564 c 128,-1,25
 700 540 700 540 665.5 510.5 c 128,-1,26
 631 481 631 481 599.5 452 c 128,-1,27
 568 423 568 423 543.5 396.5 c 128,-1,28
 519 370 519 370 508 352 c 1,29,30
 492 399 492 399 467.5 443 c 128,-1,31
 443 487 443 487 415 523.5 c 128,-1,32
 387 560 387 560 358.5 587.5 c 128,-1,33
 330 615 330 615 305 626 c 1,34,35
 301 606 301 606 290.5 558.5 c 128,-1,36
 280 511 280 511 267.5 448.5 c 128,-1,37
 255 386 255 386 240.5 317 c 128,-1,38
 226 248 226 248 213 185 c 128,-1,39
 200 122 200 122 189.5 72 c 128,-1,40
 179 22 179 22 176 0 c 1,41,-1
 103 0 l 1,42,-1
 249 698 l 1,43,-1
 321 698 l 1,2,3
EndSplineSet
EndChar
StartChar: N
Encoding: 78 78 47
Width: 760
VWidth: 1467
Flags: W
HStem: -6 21G<91 174.296 518.5 530.5> 680 20G<237.68 321.1 731 811>
Fore
622 163 m 0,0,1
 632 213 632 213 647.5 284 c 128,-1,2
 663 355 663 355 679 430.5 c 128,-1,3
 695 506 695 506 710 577.5 c 128,-1,4
 725 649 725 649 737 700 c 1,5,-1
 811 700 l 1,6,-1
 690 131 l 2,7,8
 682 94 682 94 662.5 68.5 c 128,-1,9
 643 43 643 43 618 26.5 c 128,-1,10
 593 10 593 10 566.5 2 c 128,-1,11
 540 -6 540 -6 521 -6 c 1,12,13
 516 4 516 4 498.5 48 c 128,-1,14
 481 92 481 92 457 152.5 c 128,-1,15
 433 213 433 213 405 282 c 128,-1,16
 377 351 377 351 353 411 c 128,-1,17
 329 471 329 471 312 515 c 128,-1,18
 295 559 295 559 292 569 c 1,19,-1
 170 1 l 1,20,-1
 91 1 l 1,21,-1
 242 700 l 1,22,-1
 313 700 l 1,23,-1
 571 63 l 1,24,25
 593 70 593 70 603 94.5 c 128,-1,26
 613 119 613 119 622 163 c 0,0,1
EndSplineSet
EndChar
StartChar: O
Encoding: 79 79 48
Width: 724
VWidth: 1467
Flags: W
HStem: -15 62<289.75 436.86> 649 63<457.569 550.25>
Fore
534 712 m 0,0,1
 580 709 580 709 620 696.5 c 128,-1,2
 660 684 660 684 688.5 661 c 128,-1,3
 717 638 717 638 730.5 605 c 128,-1,4
 744 572 744 572 735 528 c 2,5,-1
 659 167 l 2,6,7
 650 123 650 123 620.5 89.5 c 128,-1,8
 591 56 591 56 548.5 33 c 128,-1,9
 506 10 506 10 454.5 -1.5 c 128,-1,10
 403 -13 403 -13 349 -15 c 0,11,12
 288 -15 288 -15 244.5 1.5 c 128,-1,13
 201 18 201 18 174 42.5 c 128,-1,14
 147 67 147 67 137.5 100.5 c 128,-1,15
 128 134 128 134 135 167 c 2,16,-1
 213 528 l 2,17,18
 223 577 223 577 256 613 c 128,-1,19
 289 649 289 649 334.5 671.5 c 128,-1,20
 380 694 380 694 433 704.5 c 128,-1,21
 486 715 486 715 534 712 c 0,0,1
659 509 m 2,22,23
 668 550 668 550 657.5 578 c 128,-1,24
 647 606 647 606 623.5 621.5 c 128,-1,25
 600 637 600 637 567 643 c 128,-1,26
 534 649 534 649 497 649 c 0,27,28
 462 649 462 649 427 642 c 128,-1,29
 392 635 392 635 362 619 c 128,-1,30
 332 603 332 603 310 576.5 c 128,-1,31
 288 550 288 550 279 509 c 2,32,-1
 210 186 l 2,33,34
 201 145 201 145 212 118 c 128,-1,35
 223 91 223 91 246.5 75.5 c 128,-1,36
 270 60 270 60 302.5 53.5 c 128,-1,37
 335 47 335 47 370 47 c 256,38,39
 405 47 405 47 441 53.5 c 128,-1,40
 477 60 477 60 507 75.5 c 128,-1,41
 537 91 537 91 559 118 c 128,-1,42
 581 145 581 145 590 186 c 2,43,-1
 659 509 l 2,22,23
EndSplineSet
EndChar
StartChar: P
Encoding: 80 80 49
Width: 669
VWidth: 1467
Flags: W
HStem: -1 21G<94 174.5> 267 56<239 463.502> 643 52<308 531.682>
Fore
524 695 m 2,0,1
 558 695 558 695 594.5 684 c 128,-1,2
 631 673 631 673 658 646 c 128,-1,3
 685 619 685 619 699 575 c 128,-1,4
 713 531 713 531 700 465 c 0,5,6
 691 423 691 423 667 387 c 128,-1,7
 643 351 643 351 606 324.5 c 128,-1,8
 569 298 569 298 524.5 282.5 c 128,-1,9
 480 267 480 267 430 267 c 2,10,-1
 227 267 l 1,11,12
 211 195 211 195 195.5 124 c 128,-1,13
 180 53 180 53 169 -1 c 1,14,-1
 94 -1 l 1,15,-1
 244 695 l 1,16,-1
 524 695 l 2,0,1
430 324 m 2,17,18
 461 326 461 326 494 332.5 c 128,-1,19
 527 339 527 339 554.5 353.5 c 128,-1,20
 582 368 582 368 603.5 394 c 128,-1,21
 625 420 625 420 634 461 c 0,22,23
 644 514 644 514 635 548 c 128,-1,24
 626 582 626 582 605 603.5 c 128,-1,25
 584 625 584 625 554.5 634 c 128,-1,26
 525 643 525 643 497 643 c 2,27,-1
 308 643 l 1,28,29
 276 495 l 0,30,31
 260 421 260 421 239 323 c 1,32,-1
 430 324 l 2,17,18
EndSplineSet
EndChar
StartChar: Q
Encoding: 81 81 50
Width: 723
VWidth: 1467
Flags: W
HStem: -100 53<574.302 602> -15 62<318.079 397.047> 649 63<422.062 513.83 513.83 526.212 526.212 547 552.5 597.55>
Fore
602 -100 m 1,0,1
 577 -100 577 -100 550.5 -96 c 128,-1,2
 524 -92 524 -92 499 -82.5 c 128,-1,3
 474 -73 474 -73 453.5 -55.5 c 128,-1,4
 433 -38 433 -38 423 -10 c 1,5,6
 412 -13 412 -13 397.5 -14 c 128,-1,7
 383 -15 383 -15 368 -15 c 2,8,-1
 333 -15 l 2,9,10
 288 -12 288 -12 247.5 0.5 c 128,-1,11
 207 13 207 13 179 36 c 128,-1,12
 151 59 151 59 138.5 92 c 128,-1,13
 126 125 126 125 135 167 c 2,14,-1
 213 528 l 2,15,16
 222 572 222 572 250.5 605 c 128,-1,17
 279 638 279 638 318.5 661.5 c 128,-1,18
 358 685 358 685 405 697 c 128,-1,19
 452 709 452 709 500 712 c 0,20,21
 525 712 525 712 552.5 709 c 128,-1,22
 580 706 580 706 604.5 699.5 c 128,-1,23
 629 693 629 693 650.5 683 c 128,-1,24
 672 673 672 673 687 663 c 0,25,26
 716 640 716 640 730.5 606 c 128,-1,27
 745 572 745 572 735 528 c 2,28,-1
 659 167 l 2,29,30
 646 106 646 106 596.5 64.5 c 128,-1,31
 547 23 547 23 483 3 c 1,32,33
 500 -10 500 -10 521 -22 c 0,34,35
 538 -32 538 -32 561.5 -40 c 128,-1,36
 585 -48 585 -48 613 -47 c 1,37,-1
 602 -100 l 1,0,1
365 47 m 0,38,39
 390 47 390 47 425.5 53 c 128,-1,40
 461 59 461 59 494.5 75 c 128,-1,41
 528 91 528 91 554.5 118 c 128,-1,42
 581 145 581 145 590 186 c 2,43,-1
 659 509 l 2,44,45
 668 550 668 550 651.5 578 c 128,-1,46
 635 606 635 606 607.5 622 c 128,-1,47
 580 638 580 638 547 644 c 128,-1,48
 514 650 514 650 489 649 c 0,49,50
 455 646 455 646 421 639 c 128,-1,51
 387 632 387 632 358.5 617 c 128,-1,52
 330 602 330 602 309 575.5 c 128,-1,53
 288 549 288 549 279 509 c 2,54,-1
 210 186 l 2,55,56
 201 145 201 145 212 118.5 c 128,-1,57
 223 92 223 92 245.5 76 c 128,-1,58
 268 60 268 60 300 53.5 c 128,-1,59
 332 47 332 47 365 47 c 0,38,39
EndSplineSet
EndChar
StartChar: R
Encoding: 82 82 51
Width: 683
VWidth: 1467
Flags: W
HStem: 0 21G<100 175.5 531 610.577> 321 56<249 334.396 334.396 389.108> 644 53<308 511.969 511.969 519.778 519.778 541 568 592.795>
Fore
511 351 m 1,0,1
 537 339 537 339 563.5 321.5 c 128,-1,2
 590 304 590 304 608 276.5 c 128,-1,3
 626 249 626 249 633 212 c 128,-1,4
 640 175 640 175 629 123 c 2,5,-1
 607 0 l 1,6,-1
 531 0 l 1,7,-1
 553 120 l 2,8,9
 565 175 565 175 557 210.5 c 128,-1,10
 549 246 549 246 527.5 268.5 c 128,-1,11
 506 291 506 291 476 301 c 128,-1,12
 446 311 446 311 412 315 c 0,13,14
 402 317 402 317 389.5 318.5 c 128,-1,15
 377 320 377 320 358 320.5 c 128,-1,16
 339 321 339 321 310.5 321 c 128,-1,17
 282 321 282 321 238 321 c 1,18,19
 230 286 230 286 220.5 241.5 c 128,-1,20
 211 197 211 197 202.5 152 c 128,-1,21
 194 107 194 107 186 66.5 c 128,-1,22
 178 26 178 26 173 0 c 1,23,-1
 100 0 l 1,24,-1
 245 697 l 1,25,-1
 493 697 l 2,26,27
 527 697 527 697 568 690.5 c 128,-1,28
 609 684 609 684 643.5 664 c 128,-1,29
 678 644 678 644 696.5 606 c 128,-1,30
 715 568 715 568 703 505 c 0,31,32
 695 474 695 474 676 449 c 128,-1,33
 657 424 657 424 630.5 405 c 128,-1,34
 604 386 604 386 572.5 372.5 c 128,-1,35
 541 359 541 359 511 351 c 1,0,1
425 377 m 2,36,37
 456 380 456 380 488.5 383.5 c 128,-1,38
 521 387 521 387 548 399 c 128,-1,39
 575 411 575 411 596.5 434.5 c 128,-1,40
 618 458 618 458 626 499 c 0,41,42
 637 552 637 552 626.5 580.5 c 128,-1,43
 616 609 616 609 593.5 623 c 128,-1,44
 571 637 571 637 541 640.5 c 128,-1,45
 511 644 511 644 483 644 c 2,46,-1
 308 644 l 1,47,48
 301 607 301 607 295 579.5 c 128,-1,49
 289 552 289 552 282.5 523 c 128,-1,50
 276 494 276 494 268 459.5 c 128,-1,51
 260 425 260 425 249 377 c 1,52,-1
 425 377 l 2,36,37
EndSplineSet
EndChar
StartChar: S
Encoding: 83 83 52
Width: 698
VWidth: 1467
Flags: W
HStem: -16 21G<323.5 366.5> 656 59<450.665 539.043>
Fore
580 191 m 0,0,1
 587 239 587 239 557 262.5 c 128,-1,2
 527 286 527 286 479 298.5 c 128,-1,3
 431 311 431 311 375.5 320 c 128,-1,4
 320 329 320 329 275 348.5 c 128,-1,5
 230 368 230 368 206 405.5 c 128,-1,6
 182 443 182 443 198 514 c 0,7,8
 208 563 208 563 240.5 601.5 c 128,-1,9
 273 640 273 640 316 665 c 128,-1,10
 359 690 359 690 408.5 702.5 c 128,-1,11
 458 715 458 715 502 715 c 0,12,13
 538 715 538 715 576.5 706 c 128,-1,14
 615 697 615 697 645.5 679.5 c 128,-1,15
 676 662 676 662 696 634 c 128,-1,16
 716 606 716 606 716 568 c 1,17,-1
 644 568 l 1,18,19
 632 599 632 599 614.5 615.5 c 128,-1,20
 597 632 597 632 576 641 c 128,-1,21
 555 650 555 650 532 653 c 128,-1,22
 509 656 509 656 489 656 c 0,23,24
 461 656 461 656 428 649.5 c 128,-1,25
 395 643 395 643 365 626.5 c 128,-1,26
 335 610 335 610 311.5 582.5 c 128,-1,27
 288 555 288 555 282 514 c 0,28,29
 273 458 273 458 301 432 c 128,-1,30
 329 406 329 406 376 394.5 c 128,-1,31
 423 383 423 383 478.5 376.5 c 128,-1,32
 534 370 534 370 579.5 353 c 128,-1,33
 625 336 625 336 650.5 299.5 c 128,-1,34
 676 263 676 263 665 191 c 0,35,36
 656 136 656 136 622 97.5 c 128,-1,37
 588 59 588 59 542 33 c 128,-1,38
 496 7 496 7 443 -4.5 c 128,-1,39
 390 -16 390 -16 343 -16 c 0,40,41
 304 -16 304 -16 263.5 -9.5 c 128,-1,42
 223 -3 223 -3 188.5 14.5 c 128,-1,43
 154 32 154 32 129 62 c 128,-1,44
 104 92 104 92 95 139 c 1,45,-1
 170 139 l 1,46,47
 178 109 178 109 202.5 89.5 c 128,-1,48
 227 70 227 70 257.5 59 c 128,-1,49
 288 48 288 48 317 44.5 c 128,-1,50
 346 41 346 41 364 44 c 0,51,52
 402 50 402 50 438 59.5 c 128,-1,53
 474 69 474 69 503.5 86 c 128,-1,54
 533 103 533 103 552.5 128.5 c 128,-1,55
 572 154 572 154 580 191 c 0,0,1
EndSplineSet
EndChar
StartChar: T
Encoding: 84 84 53
Width: 654
VWidth: 1467
Flags: W
HStem: -1 21G<283 362.257> 638 59<214 420 494 719>
Fore
731 697 m 1,0,-1
 719 638 l 1,1,-1
 494 638 l 1,2,-1
 358 -1 l 1,3,-1
 283 -1 l 1,4,-1
 420 638 l 1,5,-1
 202 638 l 1,6,-1
 214 697 l 1,7,-1
 731 697 l 1,0,-1
EndSplineSet
EndChar
StartChar: U
Encoding: 85 85 54
Width: 749
VWidth: 1467
Flags: W
HStem: -15 59<331.296 438.309> 677 20G<246.5 320 721 797>
Fore
797 697 m 1,0,1
 792 673 792 673 783.5 632 c 128,-1,2
 775 591 775 591 764.5 542 c 128,-1,3
 754 493 754 493 742.5 438.5 c 128,-1,4
 731 384 731 384 720.5 333 c 128,-1,5
 710 282 710 282 700.5 238.5 c 128,-1,6
 691 195 691 195 685 169 c 0,7,8
 672 107 672 107 623 66.5 c 128,-1,9
 574 26 574 26 508.5 5.5 c 128,-1,10
 443 -15 443 -15 371 -15 c 128,-1,11
 299 -15 299 -15 242.5 5.5 c 128,-1,12
 186 26 186 26 154 66.5 c 128,-1,13
 122 107 122 107 135 169 c 0,14,15
 141 195 141 195 150.5 238.5 c 128,-1,16
 160 282 160 282 171 333 c 128,-1,17
 182 384 182 384 193.5 438.5 c 128,-1,18
 205 493 205 493 215.5 543 c 128,-1,19
 226 593 226 593 235 634 c 128,-1,20
 244 675 244 675 249 698 c 1,21,-1
 320 698 l 1,22,23
 314 675 314 675 306 636 c 128,-1,24
 298 597 298 597 287.5 548.5 c 128,-1,25
 277 500 277 500 266 447.5 c 128,-1,26
 255 395 255 395 245 345.5 c 128,-1,27
 235 296 235 296 226 254.5 c 128,-1,28
 217 213 217 213 211 188 c 0,29,30
 202 148 202 148 212.5 121 c 128,-1,31
 223 94 223 94 246.5 77 c 128,-1,32
 270 60 270 60 303.5 52.5 c 128,-1,33
 337 45 337 45 374 44 c 0,34,35
 412 43 412 43 452 49.5 c 128,-1,36
 492 56 492 56 525.5 72 c 128,-1,37
 559 88 559 88 584 116.5 c 128,-1,38
 609 145 609 145 618 188 c 0,39,40
 626 226 626 226 641 298 c 128,-1,41
 656 370 656 370 672 447.5 c 128,-1,42
 688 525 688 525 702.5 594 c 128,-1,43
 717 663 717 663 725 697 c 1,44,-1
 797 697 l 1,0,1
EndSplineSet
EndChar
StartChar: V
Encoding: 86 86 55
Width: 708
VWidth: 1467
Flags: W
HStem: 677 20G<205 276.906 707.277 794>
VStem: 205 71<619.696 697>
Fore
512 129 m 0,0,1
 500 104 500 104 484 78.5 c 128,-1,2
 468 53 468 53 446.5 31.5 c 128,-1,3
 425 10 425 10 399.5 -3 c 128,-1,4
 374 -16 374 -16 342 -13 c 1,5,6
 291 -21 291 -21 259 16.5 c 128,-1,7
 227 54 227 54 224 112 c 2,8,-1
 205 697 l 1,9,-1
 276 697 l 1,10,-1
 299 189 l 2,11,12
 301 160 301 160 304 139.5 c 128,-1,13
 307 119 307 119 311 91 c 0,14,15
 315 70 315 70 326 57.5 c 128,-1,16
 337 45 337 45 352.5 44 c 128,-1,17
 368 43 368 43 385 54 c 128,-1,18
 402 65 402 65 418 89 c 2,19,-1
 471 191 l 1,20,-1
 717 697 l 1,21,-1
 794 697 l 1,22,23
 760 629 760 629 724 555 c 128,-1,24
 688 481 688 481 652 406.5 c 128,-1,25
 616 332 616 332 580 261.5 c 128,-1,26
 544 191 544 191 512 129 c 0,0,1
EndSplineSet
EndChar
StartChar: W
Encoding: 87 87 56
Width: 878
VWidth: 1467
Flags: W
HStem: 0 21G<178 261.5 611.5 701.776> 677 20G<204.225 274 882.5 965>
VStem: 205 69<606.648 697>
Fore
178 0 m 1,0,-1
 205 697 l 1,1,-1
 274 697 l 1,2,-1
 258 76 l 1,3,4
 317 126 317 126 361.5 190.5 c 128,-1,5
 406 255 406 255 441.5 322 c 128,-1,6
 477 389 477 389 503.5 453.5 c 128,-1,7
 530 518 530 518 555 568 c 1,8,9
 562 519 562 519 565 457.5 c 128,-1,10
 568 396 568 396 574 331 c 128,-1,11
 580 266 580 266 593.5 200.5 c 128,-1,12
 607 135 607 135 638 78 c 1,13,14
 665 145 665 145 699.5 225 c 128,-1,15
 734 305 734 305 769 387.5 c 128,-1,16
 804 470 804 470 837 549.5 c 128,-1,17
 870 629 870 629 895 697 c 1,18,-1
 965 697 l 1,19,-1
 694 0 l 1,20,-1
 626 0 l 1,21,22
 597 12 597 12 575 49.5 c 128,-1,23
 553 87 553 87 538.5 138 c 128,-1,24
 524 189 524 189 517.5 249.5 c 128,-1,25
 511 310 511 310 515 367 c 1,26,27
 494 299 494 299 462 239 c 128,-1,28
 430 179 430 179 392.5 130.5 c 128,-1,29
 355 82 355 82 316 48.5 c 128,-1,30
 277 15 277 15 246 0 c 1,31,-1
 178 0 l 1,0,-1
EndSplineSet
EndChar
StartChar: X
Encoding: 88 88 57
Width: 704
VWidth: 1467
Flags: W
HStem: 1 21G<53 153.731 582.754 675> 681 20G<202 294.141 721.403 823>
Fore
283 701 m 1,0,-1
 449 403 l 1,1,-1
 741 701 l 1,2,-1
 823 701 l 1,3,-1
 477 351 l 1,4,-1
 675 1 l 1,5,-1
 594 1 l 1,6,-1
 427 298 l 1,7,-1
 134 1 l 1,8,-1
 53 1 l 1,9,-1
 396 351 l 1,10,-1
 202 701 l 1,11,-1
 283 701 l 1,0,-1
EndSplineSet
EndChar
StartChar: Y
Encoding: 89 89 58
Width: 691
VWidth: 1467
Flags: W
HStem: -1 21G<302 384.336> 677 20G<201 286.5 679.5 779>
Fore
364 283 m 1,0,1
 348 291 348 291 338.5 311.5 c 128,-1,2
 329 332 329 332 326 339 c 0,3,4
 310 376 310 376 293.5 421.5 c 128,-1,5
 277 467 277 467 261 515 c 128,-1,6
 245 563 245 563 229.5 610 c 128,-1,7
 214 657 214 657 201 697 c 1,8,-1
 274 697 l 1,9,10
 299 616 299 616 330.5 531.5 c 128,-1,11
 362 447 362 447 389 373 c 0,12,13
 401 340 401 340 412 338.5 c 128,-1,14
 423 337 423 337 447 368 c 0,15,16
 511 445 511 445 580 530.5 c 128,-1,17
 649 616 649 616 710 697 c 1,18,-1
 779 697 l 1,19,20
 747 654 747 654 711.5 607 c 128,-1,21
 676 560 676 560 639.5 513.5 c 128,-1,22
 603 467 603 467 567 420.5 c 128,-1,23
 531 374 531 374 499 335 c 0,24,25
 489 323 489 323 473.5 307.5 c 128,-1,26
 458 292 458 292 442 285 c 1,27,-1
 380 -1 l 1,28,-1
 302 -1 l 1,29,-1
 364 283 l 1,0,1
EndSplineSet
EndChar
StartChar: Z
Encoding: 90 90 59
Width: 754
VWidth: 1467
Flags: W
HStem: 1 74<232.321 666> 625 75<245 672>
Fore
681 75 m 1,0,-1
 666 1 l 1,1,-1
 226 1 l 2,2,3
 189 1 189 1 165.5 13.5 c 128,-1,4
 142 26 142 26 129.5 44.5 c 128,-1,5
 117 63 117 63 113.5 86 c 128,-1,6
 110 109 110 109 114 129 c 1,7,8
 125 136 125 136 167.5 173.5 c 128,-1,9
 210 211 210 211 269.5 264 c 128,-1,10
 329 317 329 317 395.5 376.5 c 128,-1,11
 462 436 462 436 521 488.5 c 128,-1,12
 580 541 580 541 621.5 578.5 c 128,-1,13
 663 616 663 616 672 625 c 1,14,-1
 229 625 l 1,15,-1
 245 700 l 1,16,-1
 814 700 l 1,17,-1
 800 631 l 1,18,-1
 220 119 l 1,19,20
 222 97 222 97 232 86 c 128,-1,21
 242 75 242 75 286 75 c 2,22,-1
 681 75 l 1,0,-1
EndSplineSet
EndChar
StartChar: bracketleft
Encoding: 91 91 60
Width: 322
VWidth: 1467
Flags: W
HStem: -117 45<156 292> 679 44<315 462>
VStem: 65 406<-117 723 -117 -117>
Fore
65 -117 m 1,0,-1
 245 723 l 1,1,-1
 471 723 l 1,2,-1
 462 679 l 1,3,-1
 315 679 l 1,4,-1
 156 -72 l 1,5,-1
 302 -72 l 1,6,-1
 292 -117 l 1,7,-1
 65 -117 l 1,0,-1
EndSplineSet
EndChar
StartChar: backslash
Encoding: 92 92 61
Width: 463
VWidth: 1467
Flags: W
VStem: 154 298<-44 722 722 722>
Fore
154 722 m 1,0,-1
 242 722 l 1,1,-1
 452 -44 l 1,2,-1
 362 -44 l 1,3,-1
 154 722 l 1,0,-1
EndSplineSet
EndChar
StartChar: bracketright
Encoding: 93 93 62
Width: 322
VWidth: 1467
Flags: W
HStem: -117 45<-15 128> 679 44<153 288>
VStem: -25 404<-117 723 -133.054 -117>
Fore
-25 -117 m 1,0,-1
 -15 -72 l 1,1,-1
 128 -72 l 1,2,-1
 288 679 l 1,3,-1
 144 679 l 1,4,-1
 153 723 l 1,5,-1
 379 723 l 1,6,-1
 200 -117 l 1,7,-1
 -25 -117 l 1,0,-1
EndSplineSet
EndChar
StartChar: asciicircum
Encoding: 94 94 63
Width: 710
VWidth: 1467
Flags: W
Fore
117 204 m 1,0,1
 169 249 169 249 226 313 c 128,-1,2
 283 377 283 377 336.5 447.5 c 128,-1,3
 390 518 390 518 435 589 c 128,-1,4
 480 660 480 660 505 722 c 1,5,6
 505 660 505 660 519.5 591 c 128,-1,7
 534 522 534 522 557.5 452.5 c 128,-1,8
 581 383 581 383 611 318.5 c 128,-1,9
 641 254 641 254 673 204 c 1,10,-1
 571 204 l 1,11,12
 528 285 528 285 500 377.5 c 128,-1,13
 472 470 472 470 475 571 c 1,14,15
 431 471 431 471 363 377 c 128,-1,16
 295 283 295 283 219 204 c 1,17,-1
 117 204 l 1,0,1
EndSplineSet
EndChar
StartChar: underscore
Encoding: 95 95 64
Width: 528
VWidth: 1467
Flags: W
HStem: -292 76<-45 462>
Fore
-62 -292 m 1,0,-1
 -45 -216 l 1,1,-1
 478 -216 l 1,2,-1
 462 -292 l 1,3,-1
 -62 -292 l 1,0,-1
EndSplineSet
EndChar
StartChar: grave
Encoding: 96 96 65
Width: 300
VWidth: 1467
Flags: W
HStem: 566 153<289 299 200 359 200 200>
Fore
289 566 m 1,0,-1
 200 719 l 1,1,-1
 299 719 l 1,2,-1
 359 566 l 1,3,-1
 289 566 l 1,0,-1
EndSplineSet
EndChar
StartChar: a
Encoding: 97 97 66
Width: 639
VWidth: 1467
Flags: W
HStem: -10 21G<501.5 512.5> 461.5 50<335.846 440.264>
Fore
521 286 m 1,0,1
 490 266 490 266 461.5 254 c 128,-1,2
 433 242 433 242 399 236 c 0,3,4
 367 230 367 230 330 225 c 128,-1,5
 293 220 293 220 261 209 c 128,-1,6
 229 198 229 198 204.5 179 c 128,-1,7
 180 160 180 160 175 129 c 0,8,9
 167 91 167 91 182.5 67.5 c 128,-1,10
 198 44 198 44 236 43 c 0,11,12
 293 40 293 40 338.5 53.5 c 128,-1,13
 384 67 384 67 418 84 c 0,14,15
 456 103 456 103 487 129 c 1,16,-1
 521 286 l 1,0,1
509 -10 m 1,17,18
 494 -3 494 -3 483 22 c 128,-1,19
 472 47 472 47 474 67 c 1,20,21
 459 57 459 57 432 41.5 c 128,-1,22
 405 26 405 26 370.5 13 c 128,-1,23
 336 0 336 0 295.5 -6.5 c 128,-1,24
 255 -13 255 -13 216 -4 c 0,25,26
 189 0 189 0 165.5 11 c 128,-1,27
 142 22 142 22 125.5 38 c 128,-1,28
 109 54 109 54 100.5 77 c 128,-1,29
 92 100 92 100 98 129 c 0,30,31
 109 179 109 179 144 205.5 c 128,-1,32
 179 232 179 232 224.5 246 c 128,-1,33
 270 260 270 260 319 265.5 c 128,-1,34
 368 271 368 271 408 280 c 0,35,36
 421 283 421 283 441.5 290.5 c 128,-1,37
 462 298 462 298 481 308 c 128,-1,38
 500 318 500 318 515.5 331.5 c 128,-1,39
 531 345 531 345 534 361 c 0,40,41
 541 399 541 399 502 433 c 0,42,43
 481 452 481 452 441.5 458.5 c 128,-1,44
 402 465 402 465 356.5 461.5 c 128,-1,45
 311 458 311 458 264 445.5 c 128,-1,46
 217 433 217 433 182 417 c 1,47,-1
 202 474 l 1,48,49
 242 492 242 492 292 501.5 c 128,-1,50
 342 511 342 511 392.5 511.5 c 128,-1,51
 443 512 443 512 488.5 504 c 128,-1,52
 534 496 534 496 563 480 c 0,53,54
 593 465 593 465 605.5 432 c 128,-1,55
 618 399 618 399 610 359 c 2,56,-1
 555 101 l 2,57,58
 550 79 550 79 550 58.5 c 128,-1,59
 550 38 550 38 571 19 c 1,60,61
 560 10 560 10 538 3 c 128,-1,62
 516 -4 516 -4 509 -10 c 1,17,18
EndSplineSet
Substitution2: "Single Substitution lookup 22 subtable" uni0E38
Substitution2: "Single Substitution lookup 22 subtable" uni0E38
EndChar
StartChar: b
Encoding: 98 98 67
Width: 664
VWidth: 1467
Flags: W
HStem: 2 51<261.111 290.5 305 330.036 330.036 336.586 336.586 444.308> 448 57.5<363.843 395.5 413 419.584 419.584 430.185 430.185 515.542> 678 20G<232.5 320>
VStem: 574.5 77.5<269.228 307.5 307.5 378.998>
Fore
248 361 m 1,0,1
 236 302 236 302 223 243.5 c 128,-1,2
 210 185 210 185 198 126 c 1,3,-1
 197 123 l 1,4,5
 210 107 210 107 225.5 93 c 128,-1,6
 241 79 241 79 260.5 69 c 128,-1,7
 280 59 280 59 305 53 c 128,-1,8
 330 47 330 47 362 48 c 0,9,10
 437 51 437 51 487.5 101 c 128,-1,11
 538 151 538 151 560 226 c 0,12,13
 574 267 574 267 574.5 307.5 c 128,-1,14
 575 348 575 348 561 380 c 128,-1,15
 547 412 547 412 516.5 432 c 128,-1,16
 486 452 486 452 436 453 c 0,17,18
 420 453 420 453 395.5 448 c 128,-1,19
 371 443 371 443 344.5 431.5 c 128,-1,20
 318 420 318 420 292.5 402 c 128,-1,21
 267 384 267 384 248 361 c 1,0,1
126 132 m 0,22,23
 156 274 156 274 186.5 415 c 128,-1,24
 217 556 217 556 248 698 c 1,25,-1
 320 698 l 1,26,-1
 264 440 l 1,27,28
 283 459 283 459 309.5 472.5 c 128,-1,29
 336 486 336 486 363 494 c 128,-1,30
 390 502 390 502 413 505.5 c 128,-1,31
 436 509 436 509 447 509 c 0,32,33
 514 512 514 512 558.5 487 c 128,-1,34
 603 462 603 462 626.5 420.5 c 128,-1,35
 650 379 650 379 652 326.5 c 128,-1,36
 654 274 654 274 637 222 c 0,37,38
 621 178 621 178 593 137.5 c 128,-1,39
 565 97 565 97 529 65.5 c 128,-1,40
 493 34 493 34 449.5 15.5 c 128,-1,41
 406 -3 406 -3 361 -3 c 0,42,43
 318 -3 318 -3 290.5 2 c 128,-1,44
 263 7 263 7 243.5 16 c 128,-1,45
 224 25 224 25 210.5 36 c 128,-1,46
 197 47 197 47 183 59 c 1,47,48
 178 62 178 62 176 63 c 1,49,50
 161 41 161 41 141.5 22.5 c 128,-1,51
 122 4 122 4 98 -3 c 1,52,53
 89 6 89 6 78 16 c 128,-1,54
 67 26 67 26 56 43 c 1,55,56
 89 65 89 65 104 86 c 128,-1,57
 119 107 119 107 126 132 c 0,22,23
EndSplineSet
Substitution2: "Single Substitution lookup 22 subtable" uni0E39
Substitution2: "Single Substitution lookup 22 subtable" uni0E39
EndChar
StartChar: c
Encoding: 99 99 68
Width: 616
VWidth: 1467
Flags: W
VStem: 584 57<387.538 436.649>
Fore
176 359 m 0,0,1
 183 398 183 398 214 426.5 c 128,-1,2
 245 455 245 455 282 474 c 0,3,4
 323 496 323 496 379.5 504 c 128,-1,5
 436 512 436 512 489.5 504.5 c 128,-1,6
 543 497 543 497 585.5 473 c 128,-1,7
 628 449 628 449 641 405 c 1,8,-1
 584 373 l 1,9,10
 577 409 577 409 547.5 429.5 c 128,-1,11
 518 450 518 450 480.5 455.5 c 128,-1,12
 443 461 443 461 402 454 c 128,-1,13
 361 447 361 447 329 430 c 0,14,15
 295 412 295 412 275 392.5 c 128,-1,16
 255 373 255 373 248 340 c 0,17,18
 238 295 238 295 228.5 250 c 128,-1,19
 219 205 219 205 210 160 c 0,20,21
 202 128 202 128 217 103.5 c 128,-1,22
 232 79 232 79 257 62 c 256,23,24
 282 44 282 44 318.5 38 c 128,-1,25
 355 32 355 32 394 39.5 c 128,-1,26
 433 47 433 47 468 68 c 128,-1,27
 503 89 503 89 527 128 c 1,28,-1
 575 95 l 1,29,30
 544 51 544 51 491.5 27 c 128,-1,31
 439 3 439 3 381.5 -4.5 c 128,-1,32
 324 -12 324 -12 271.5 -4 c 128,-1,33
 219 4 219 4 186 26 c 0,34,35
 157 45 157 45 139.5 74 c 128,-1,36
 122 103 122 103 129 141 c 0,37,38
 141 197 141 197 152.5 250.5 c 128,-1,39
 164 304 164 304 176 359 c 0,0,1
EndSplineSet
Substitution2: "Single Substitution lookup 22 subtable" uni0E3A
Substitution2: "Single Substitution lookup 22 subtable" uni0E3A
EndChar
StartChar: d
Encoding: 100 100 69
Width: 671
VWidth: 1467
Flags: W
HStem: -4 51<248.861 408.497> 452 56<331.191 453.469> 677 20G<636.814 715>
Fore
571 359 m 1,0,1
 549 392 549 392 528.5 411 c 128,-1,2
 508 430 508 430 489.5 439.5 c 128,-1,3
 471 449 471 449 454 450.5 c 128,-1,4
 437 452 437 452 420 452 c 0,5,6
 368 450 368 450 330 430.5 c 128,-1,7
 292 411 292 411 264 378.5 c 128,-1,8
 236 346 236 346 220 306 c 128,-1,9
 204 266 204 266 200 224 c 0,10,11
 191 150 191 150 219.5 100 c 128,-1,12
 248 50 248 50 323 47 c 0,13,14
 384 44 384 44 431 67.5 c 128,-1,15
 478 91 478 91 519 122 c 1,16,-1
 521 125 l 1,17,18
 531 175 531 175 538.5 210 c 128,-1,19
 546 245 546 245 552 270.5 c 128,-1,20
 558 296 558 296 562 316.5 c 128,-1,21
 566 337 566 337 571 359 c 1,0,1
594 131 m 0,22,23
 591 106 591 106 595.5 84.5 c 128,-1,24
 600 63 600 63 625 41 c 1,25,26
 609 25 609 25 593.5 14.5 c 128,-1,27
 578 4 578 4 565 -4 c 1,28,29
 544 3 544 3 531.5 21.5 c 128,-1,30
 519 40 519 40 514 62 c 1,31,32
 458 28 458 28 410 12 c 128,-1,33
 362 -4 362 -4 302 -4 c 0,34,35
 257 -4 257 -4 221 14 c 128,-1,36
 185 32 185 32 161.5 63 c 128,-1,37
 138 94 138 94 127 135 c 128,-1,38
 116 176 116 176 120 220 c 0,39,40
 126 270 126 270 152 321.5 c 128,-1,41
 178 373 178 373 218 414.5 c 128,-1,42
 258 456 258 456 313 482.5 c 128,-1,43
 368 509 368 509 433 508 c 0,44,45
 443 508 443 508 465 504 c 128,-1,46
 487 500 487 500 510.5 493 c 128,-1,47
 534 486 534 486 555.5 472 c 128,-1,48
 577 458 577 458 587 439 c 1,49,-1
 641 697 l 1,50,-1
 715 697 l 1,51,52
 685 555 685 555 655 414 c 128,-1,53
 625 273 625 273 594 131 c 0,22,23
EndSplineSet
EndChar
StartChar: e
Encoding: 101 101 70
Width: 635
VWidth: 1467
Flags: W
HStem: 220 56<226 449.138 449.138 496.729 496.729 511.5> 457.5 52.5<382.475 481.767>
VStem: 130 492<122 349 188 192.5>
Fore
185 28 m 2,0,1
 173 32 173 32 161.5 44 c 128,-1,2
 150 56 150 56 141 75 c 128,-1,3
 132 94 132 94 130 122 c 128,-1,4
 128 150 128 150 136 188 c 0,5,6
 142 216 142 216 146 235.5 c 128,-1,7
 150 255 150 255 154 274 c 128,-1,8
 158 293 158 293 162.5 313 c 128,-1,9
 167 333 167 333 173 361 c 0,10,11
 180 399 180 399 211 427.5 c 128,-1,12
 242 456 242 456 279 475 c 0,13,14
 310 492 310 492 348.5 500.5 c 128,-1,15
 387 509 387 509 427 510 c 128,-1,16
 467 511 467 511 504 502.5 c 128,-1,17
 541 494 541 494 569 475 c 0,18,19
 599 456 599 456 614 421.5 c 128,-1,20
 629 387 629 387 622 349 c 0,21,22
 616 307 616 307 600 281 c 128,-1,23
 584 255 584 255 554 242 c 128,-1,24
 524 229 524 229 480 224.5 c 128,-1,25
 436 220 436 220 373 220 c 2,26,-1
 214 220 l 1,27,28
 210 201 210 201 209 197.5 c 128,-1,29
 208 194 208 194 208 192.5 c 128,-1,30
 208 191 208 191 207.5 188 c 128,-1,31
 207 185 207 185 204 167 c 0,32,33
 200 147 200 147 203.5 132 c 128,-1,34
 207 117 207 117 214.5 106 c 128,-1,35
 222 95 222 95 233 87 c 128,-1,36
 244 79 244 79 254 72 c 0,37,38
 276 57 276 57 311 50.5 c 128,-1,39
 346 44 346 44 384.5 49 c 128,-1,40
 423 54 423 54 461.5 73 c 128,-1,41
 500 92 500 92 530 129 c 1,42,-1
 568 97 l 1,43,44
 537 53 537 53 485 28.5 c 128,-1,45
 433 4 433 4 376.5 -3 c 128,-1,46
 320 -10 320 -10 268 -2 c 128,-1,47
 216 6 216 6 185 28 c 2,0,1
525 425 m 0,48,49
 483 459 483 459 430 457.5 c 128,-1,50
 377 456 377 456 330 431 c 0,51,52
 296 414 296 414 271 391 c 128,-1,53
 246 368 246 368 239 336 c 0,54,55
 235 315 235 315 232.5 305.5 c 128,-1,56
 230 296 230 296 226 276 c 1,57,-1
 384 276 l 2,58,59
 430 276 430 276 461 276 c 128,-1,60
 492 276 492 276 511.5 280.5 c 128,-1,61
 531 285 531 285 540.5 296 c 128,-1,62
 550 307 550 307 555 329 c 0,63,64
 559 357 559 357 551.5 384 c 128,-1,65
 544 411 544 411 525 425 c 0,48,49
EndSplineSet
EndChar
StartChar: f
Encoding: 102 102 71
Width: 412
VWidth: 1467
Flags: W
HStem: 443 54<279 405> 643 52<395.217 474>
VStem: 43 441<-26 695 -115.5 -26>
Fore
405 443 m 1,0,-1
 267 443 l 1,1,-1
 201 136 l 1,2,-1
 178 22 l 1,3,4
 166 -9 166 -9 140 -34.5 c 128,-1,5
 114 -60 114 -60 84 -72 c 1,6,7
 75 -63 75 -63 64.5 -53 c 128,-1,8
 54 -43 54 -43 43 -26 c 1,9,10
 85 3 85 3 98.5 30 c 128,-1,11
 112 57 112 57 119 92 c 2,12,-1
 204 490 l 2,13,14
 229 607 229 607 289 652 c 128,-1,15
 349 697 349 697 459 695 c 2,16,-1
 484 695 l 1,17,-1
 474 643 l 1,18,-1
 446 643 l 2,19,20
 399 643 399 643 369.5 634 c 128,-1,21
 340 625 340 625 322.5 607.5 c 128,-1,22
 305 590 305 590 295 563 c 128,-1,23
 285 536 285 536 279 497 c 1,24,-1
 417 497 l 1,25,-1
 405 443 l 1,0,-1
EndSplineSet
EndChar
StartChar: g
Encoding: 103 103 72
Width: 657
VWidth: 1467
Flags: W
HStem: -219 58<270 368.212> 0 54<242.973 347.8> 459 53<313.82 497.322>
VStem: 111.5 73<157.424 186.5 186.5 255.026>
Fore
323 54 m 0,0,1
 379 53 379 53 425.5 78.5 c 128,-1,2
 472 104 472 104 512 147 c 1,3,4
 524 207 524 207 537 265.5 c 128,-1,5
 550 324 550 324 562 386 c 1,6,7
 536 417 536 417 498.5 439.5 c 128,-1,8
 461 462 461 462 398 459 c 0,9,10
 323 456 323 456 272.5 407 c 128,-1,11
 222 358 222 358 200 283 c 0,12,13
 186 241 186 241 184.5 201 c 128,-1,14
 183 161 183 161 197 129 c 128,-1,15
 211 97 211 97 242 76.5 c 128,-1,16
 273 56 273 56 323 54 c 0,0,1
314 -161 m 2,17,18
 358 -161 358 -161 386.5 -154 c 128,-1,19
 415 -147 415 -147 432 -130 c 128,-1,20
 449 -113 449 -113 458.5 -86.5 c 128,-1,21
 468 -60 468 -60 475 -22 c 2,22,-1
 494 67 l 1,23,24
 477 48 477 48 450.5 35 c 128,-1,25
 424 22 424 22 397.5 14.5 c 128,-1,26
 371 7 371 7 348.5 3.5 c 128,-1,27
 326 0 326 0 315 0 c 0,28,29
 251 0 251 0 207 26.5 c 128,-1,30
 163 53 163 53 139.5 94 c 128,-1,31
 116 135 116 135 111.5 186.5 c 128,-1,32
 107 238 107 238 123 288 c 0,33,34
 138 332 138 332 164.5 373.5 c 128,-1,35
 191 415 191 415 226 446.5 c 128,-1,36
 261 478 261 478 305 496.5 c 128,-1,37
 349 515 349 515 399 512 c 0,38,39
 456 509 456 509 500 495 c 128,-1,40
 544 481 544 481 584 445 c 1,41,42
 612 493 612 493 662 512 c 1,43,44
 671 503 671 503 682 492 c 128,-1,45
 693 481 693 481 704 467 c 1,46,47
 669 445 669 445 655 423.5 c 128,-1,48
 641 402 641 402 634 377 c 0,49,50
 613 277 613 277 592 177.5 c 128,-1,51
 571 78 571 78 550 -21 c 0,52,53
 525 -134 525 -134 465.5 -176.5 c 128,-1,54
 406 -219 406 -219 301 -219 c 2,55,-1
 258 -219 l 1,56,-1
 270 -161 l 1,57,-1
 314 -161 l 2,17,18
EndSplineSet
EndChar
StartChar: h
Encoding: 104 104 73
Width: 630
VWidth: 1467
Flags: W
HStem: 0 21G<104 181.708 461 534.947> 446 62<358.751 492.248>
VStem: 220 79<579.88 640.82> 523 75.5<325.995 335 335 383.344>
Fore
299 597 m 0,0,1
 288 541 288 541 276 484.5 c 128,-1,2
 264 428 264 428 252 373 c 1,3,4
 291 450 291 450 343.5 479 c 128,-1,5
 396 508 396 508 478 508 c 0,6,7
 518 508 518 508 544.5 491.5 c 128,-1,8
 571 475 571 475 584 448 c 128,-1,9
 597 421 597 421 598.5 383.5 c 128,-1,10
 600 346 600 346 591 304 c 2,11,-1
 531 0 l 1,12,-1
 461 0 l 1,13,-1
 514 266 l 2,14,15
 521 302 521 302 523 335 c 128,-1,16
 525 368 525 368 517 393 c 128,-1,17
 509 418 509 418 488 432 c 128,-1,18
 467 446 467 446 428 446 c 0,19,20
 384 446 384 446 348.5 420.5 c 128,-1,21
 313 395 313 395 285.5 356 c 128,-1,22
 258 317 258 317 239 269.5 c 128,-1,23
 220 222 220 222 211 178 c 2,24,-1
 178 0 l 1,25,-1
 104 0 l 1,26,-1
 214 533 l 2,27,28
 220 568 220 568 220 595 c 128,-1,29
 220 622 220 622 188 651 c 1,30,-1
 248 697 l 2,31,32
 251 698 251 698 255 694 c 2,33,34
 279 682 279 682 290.5 654 c 128,-1,35
 302 626 302 626 299 597 c 0,0,1
EndSplineSet
EndChar
StartChar: i
Encoding: 105 105 74
Width: 278
VWidth: 1467
Flags: W
VStem: 207 113<582.293 672.143>
Fore
202 481 m 1,0,-1
 274 481 l 1,1,-1
 201 135 l 2,2,3
 194 101 194 101 196 74.5 c 128,-1,4
 198 48 198 48 227 21 c 1,5,-1
 167 -25 l 2,6,7
 164 -26 164 -26 162.5 -24 c 128,-1,8
 161 -22 161 -22 160 -22 c 1,9,10
 138 -9 138 -9 125.5 19 c 128,-1,11
 113 47 113 47 116 76 c 2,12,-1
 202 481 l 1,0,-1
282 697 m 1,13,14
 305 700 305 700 316 679.5 c 128,-1,15
 327 659 327 659 320 628 c 0,16,17
 314 599 314 599 294 577.5 c 128,-1,18
 274 556 274 556 251 556 c 0,19,20
 226 556 226 556 213 577.5 c 128,-1,21
 200 599 200 599 207 628 c 0,22,23
 214 659 214 659 236 679.5 c 128,-1,24
 258 700 258 700 282 697 c 1,13,14
EndSplineSet
EndChar
StartChar: j
Encoding: 106 106 75
Width: 353
VWidth: 1467
Flags: W
HStem: -222 58<-34 62.7886>
VStem: -47 443<-222 628 -222 -222> 282 114<581.597 672.143>
Fore
276 483 m 1,0,-1
 349 483 l 1,1,-1
 242 -23 l 2,2,3
 217 -136 217 -136 157.5 -179 c 128,-1,4
 98 -222 98 -222 -4 -222 c 2,5,-1
 -47 -222 l 1,6,-1
 -34 -164 l 1,7,-1
 7 -164 l 2,8,9
 53 -164 53 -164 81 -157 c 128,-1,10
 109 -150 109 -150 126.5 -133 c 128,-1,11
 144 -116 144 -116 153.5 -89.5 c 128,-1,12
 163 -63 163 -63 170 -25 c 2,13,-1
 276 483 l 1,0,-1
357 697 m 1,14,15
 381 700 381 700 392 679.5 c 128,-1,16
 403 659 403 659 396 628 c 0,17,18
 390 599 390 599 370.5 577.5 c 128,-1,19
 351 556 351 556 327 556 c 0,20,21
 301 556 301 556 287.5 577.5 c 128,-1,22
 274 599 274 599 282 628 c 0,23,24
 289 659 289 659 311 679.5 c 128,-1,25
 333 700 333 700 357 697 c 1,14,15
EndSplineSet
EndChar
StartChar: k
Encoding: 107 107 76
Width: 595
VWidth: 1467
Flags: W
HStem: 1 21G<103 179.82 425 503.277> 476 20G<484.2 600> 678 20G<221.889 263>
VStem: 103 497<0 496 358.307 457.576>
Fore
600 496 m 1,0,-1
 412 343 l 1,1,2
 443 339 443 339 469.5 328 c 128,-1,3
 496 317 496 317 513.5 295.5 c 128,-1,4
 531 274 531 274 537 241 c 128,-1,5
 543 208 543 208 533 160 c 2,6,-1
 499 1 l 1,7,-1
 425 1 l 1,8,-1
 458 158 l 2,9,10
 467 198 467 198 461 223 c 128,-1,11
 455 248 455 248 439.5 263.5 c 128,-1,12
 424 279 424 279 401.5 285.5 c 128,-1,13
 379 292 379 292 354 295 c 1,14,-1
 210 178 l 1,15,-1
 176 0 l 1,16,-1
 103 0 l 1,17,-1
 216 538 l 2,18,19
 223 572 223 572 221 598.5 c 128,-1,20
 219 625 219 625 188 653 c 1,21,-1
 249 698 l 1,22,23
 277 687 277 687 289 657.5 c 128,-1,24
 301 628 301 628 299 599 c 1,25,-1
 230 271 l 1,26,-1
 509 496 l 1,27,-1
 600 496 l 1,0,-1
EndSplineSet
EndChar
StartChar: l
Encoding: 108 108 77
Width: 278
VWidth: 1467
Flags: W
HStem: -29 21G<152 193.111>
VStem: 219.5 79.5<579.401 640.062>
Fore
198 117 m 1,0,1
 192 88 192 88 196 64.5 c 128,-1,2
 200 41 200 41 227 16 c 1,3,-1
 166 -29 l 1,4,5
 138 -18 138 -18 125 11.5 c 128,-1,6
 112 41 112 41 114 70 c 2,7,-1
 120 103 l 1,8,-1
 214 537 l 2,9,10
 222 571 222 571 219.5 596.5 c 128,-1,11
 217 622 217 622 188 651 c 1,12,-1
 248 695 l 1,13,14
 276 685 276 685 288.5 655 c 128,-1,15
 301 625 301 625 299 596 c 1,16,-1
 198 117 l 1,0,1
EndSplineSet
EndChar
StartChar: m
Encoding: 109 109 78
Width: 760
VWidth: 1467
Flags: W
HStem: -31 21G<104 182 339 419.297 633 673.957> 443 60.5<358 401.589 557.875 613.037>
Fore
173 343 m 2,0,1
 180 377 180 377 178 402 c 128,-1,2
 176 427 176 427 147 455 c 1,3,-1
 208 500 l 1,4,5
 229 492 229 492 242 469 c 128,-1,6
 255 446 255 446 258 421 c 1,7,8
 274 445 274 445 289 460 c 128,-1,9
 304 475 304 475 318 486 c 0,10,11
 345 505 345 505 380 503.5 c 128,-1,12
 415 502 415 502 434 486 c 0,13,14
 452 472 452 472 461.5 448.5 c 128,-1,15
 471 425 471 425 475 396 c 1,16,17
 496 428 496 428 516.5 451 c 128,-1,18
 537 474 537 474 556 486 c 0,19,20
 569 494 569 494 589.5 498.5 c 128,-1,21
 610 503 610 503 632 502.5 c 128,-1,22
 654 502 654 502 673.5 497.5 c 128,-1,23
 693 493 693 493 703 486 c 0,24,25
 734 462 734 462 732.5 413 c 128,-1,26
 731 364 731 364 717 302 c 2,27,-1
 682 132 l 2,28,29
 678 114 678 114 675 97.5 c 128,-1,30
 672 81 672 81 673.5 65.5 c 128,-1,31
 675 50 675 50 683 36.5 c 128,-1,32
 691 23 691 23 709 15 c 1,33,-1
 647 -31 l 1,34,35
 619 -19 619 -19 605 7.5 c 128,-1,36
 591 34 591 34 594 69 c 2,37,-1
 640 279 l 2,38,39
 647 311 647 311 652 331.5 c 128,-1,40
 657 352 657 352 658.5 366.5 c 128,-1,41
 660 381 660 381 658 393.5 c 128,-1,42
 656 406 656 406 649 424 c 0,43,44
 637 450 637 450 606 448 c 128,-1,45
 575 446 575 446 552 420 c 0,46,47
 527 393 527 393 505.5 350.5 c 128,-1,48
 484 308 484 308 470 255 c 2,49,-1
 415 -1 l 1,50,-1
 339 -1 l 1,51,-1
 399 279 l 2,52,53
 412 340 412 340 413 371.5 c 128,-1,54
 414 403 414 403 402 424 c 0,55,56
 389 449 389 449 358 443 c 128,-1,57
 327 437 327 437 304 411 c 0,58,59
 255 358 255 358 227 254 c 0,60,61
 222 229 222 229 216.5 203.5 c 128,-1,62
 211 178 211 178 205.5 147.5 c 128,-1,63
 200 117 200 117 193 81 c 128,-1,64
 186 45 186 45 178 0 c 1,65,-1
 104 0 l 1,66,67
 114 62 114 62 126 122.5 c 128,-1,68
 138 183 138 183 151 245 c 2,69,-1
 173 343 l 2,0,1
EndSplineSet
EndChar
StartChar: n
Encoding: 110 110 79
Width: 620
VWidth: 1467
Flags: W
HStem: -28 21G<100 170 496 535.957> 483 20G<180.889 220.5 416 472>
VStem: 178 82<387.75 448.644>
Fore
173 346 m 1,0,1
 180 380 180 380 178 405.5 c 128,-1,2
 176 431 176 431 147 458 c 1,3,-1
 208 503 l 1,4,5
 233 492 233 492 246.5 462.5 c 128,-1,6
 260 433 260 433 260 403 c 1,7,-1
 246 342 l 1,8,9
 289 421 289 421 334.5 465 c 128,-1,10
 380 509 380 509 452 509 c 0,11,12
 492 509 492 509 520.5 493 c 128,-1,13
 549 477 549 477 565.5 449 c 128,-1,14
 582 421 582 421 586 383.5 c 128,-1,15
 590 346 590 346 581 305 c 2,16,-1
 544 135 l 2,17,18
 540 117 540 117 537 100.5 c 128,-1,19
 534 84 534 84 535.5 68.5 c 128,-1,20
 537 53 537 53 545 39.5 c 128,-1,21
 553 26 553 26 571 18 c 1,22,-1
 509 -28 l 1,23,24
 483 -16 483 -16 467.5 10.5 c 128,-1,25
 452 37 452 37 458 72 c 2,26,-1
 502 282 l 2,27,28
 519 362 519 362 501 407.5 c 128,-1,29
 483 453 483 453 424 449 c 0,30,31
 392 446 392 446 359 416 c 128,-1,32
 326 386 326 386 296.5 341 c 128,-1,33
 267 296 267 296 243 242 c 128,-1,34
 219 188 219 188 202 138 c 2,35,-1
 175 3 l 1,36,-1
 170 3 l 1,37,-1
 170 1 l 1,38,-1
 100 1 l 1,39,-1
 100 3 l 1,40,-1
 173 346 l 1,0,1
EndSplineSet
EndChar
StartChar: o
Encoding: 111 111 80
Width: 677
VWidth: 1467
Flags: W
HStem: -12.5 47<268.003 424.203> 458 51<347.409 510.045>
Fore
166 326 m 1,0,1
 179 387 179 387 223.5 427.5 c 128,-1,2
 268 468 268 468 325.5 488.5 c 128,-1,3
 383 509 383 509 444.5 509 c 128,-1,4
 506 509 506 509 555 488.5 c 128,-1,5
 604 468 604 468 630.5 427.5 c 128,-1,6
 657 387 657 387 644 326 c 0,7,8
 637 292 637 292 633 275 c 128,-1,9
 629 258 629 258 627.5 251 c 128,-1,10
 626 244 626 244 625.5 241 c 128,-1,11
 625 238 625 238 624.5 232 c 128,-1,12
 624 226 624 226 621 213 c 128,-1,13
 618 200 618 200 610 170 c 0,14,15
 597 109 597 109 553 68.5 c 128,-1,16
 509 28 509 28 452.5 7.5 c 128,-1,17
 396 -13 396 -13 335 -12.5 c 128,-1,18
 274 -12 274 -12 226 8 c 128,-1,19
 178 28 178 28 150.5 69 c 128,-1,20
 123 110 123 110 135 170 c 0,21,22
 138 186 138 186 144.5 219 c 128,-1,23
 151 252 151 252 157 282.5 c 128,-1,24
 163 313 163 313 166.5 328 c 128,-1,25
 170 343 170 343 166 326 c 1,0,1
233 293 m 0,26,27
 230 279 230 279 223.5 248 c 128,-1,28
 217 217 217 217 213 200 c 0,29,30
 201 144 201 144 218 107 c 128,-1,31
 235 70 235 70 267 52 c 128,-1,32
 299 34 299 34 341.5 34.5 c 128,-1,33
 384 35 384 35 425.5 53.5 c 128,-1,34
 467 72 467 72 499 108.5 c 128,-1,35
 531 145 531 145 544 200 c 0,36,37
 549 222 549 222 550.5 226 c 128,-1,38
 552 230 552 230 552.5 233 c 128,-1,39
 553 236 553 236 554.5 247 c 128,-1,40
 556 258 556 258 563 292 c 0,41,42
 575 348 575 348 558 384.5 c 128,-1,43
 541 421 541 421 508 439.5 c 128,-1,44
 475 458 475 458 432.5 458 c 128,-1,45
 390 458 390 458 350 439.5 c 128,-1,46
 310 421 310 421 277.5 384.5 c 128,-1,47
 245 348 245 348 233 293 c 0,26,27
EndSplineSet
EndChar
StartChar: p
Encoding: 112 112 81
Width: 683
VWidth: 1467
Flags: W
HStem: -6 63<291.748 441.143> 446 60<404.756 522.934>
Fore
354 57 m 0,0,1
 403 59 403 59 441.5 78 c 128,-1,2
 480 97 480 97 506.5 127 c 128,-1,3
 533 157 533 157 548 196 c 128,-1,4
 563 235 563 235 568 277 c 0,5,6
 577 352 577 352 549 397.5 c 128,-1,7
 521 443 521 443 447 446 c 0,8,9
 386 449 386 449 338.5 425.5 c 128,-1,10
 291 402 291 402 251 371 c 1,11,12
 245 340 245 340 240 315.5 c 128,-1,13
 235 291 235 291 229.5 266.5 c 128,-1,14
 224 242 224 242 218.5 218 c 128,-1,15
 213 194 213 194 207 164 c 1,16,17
 219 119 219 119 256 90.5 c 128,-1,18
 293 62 293 62 354 57 c 0,0,1
178 371 m 0,19,20
 182 396 182 396 177.5 417.5 c 128,-1,21
 173 439 173 439 147 461 c 1,22,23
 164 477 164 477 180.5 487 c 128,-1,24
 197 497 197 497 210 506 c 1,25,26
 227 497 227 497 240.5 479.5 c 128,-1,27
 254 462 254 462 257 440 c 1,28,29
 277 453 277 453 296 465.5 c 128,-1,30
 315 478 315 478 338.5 487 c 128,-1,31
 362 496 362 496 393.5 501 c 128,-1,32
 425 506 425 506 471 506 c 256,33,34
 516 506 516 506 552 488 c 128,-1,35
 588 470 588 470 611.5 439 c 128,-1,36
 635 408 635 408 645.5 367 c 128,-1,37
 656 326 656 326 650 282 c 0,38,39
 644 232 644 232 617.5 181.5 c 128,-1,40
 591 131 591 131 550 89 c 128,-1,41
 509 47 509 47 455.5 20.5 c 128,-1,42
 402 -6 402 -6 340 -6 c 0,43,44
 329 -6 329 -6 307.5 -2.5 c 128,-1,45
 286 1 286 1 262.5 8.5 c 128,-1,46
 239 16 239 16 218 29.5 c 128,-1,47
 197 43 197 43 186 63 c 1,48,-1
 134 -183 l 1,49,-1
 60 -183 l 1,50,51
 89 -41 89 -41 118.5 94 c 128,-1,52
 148 229 148 229 178 371 c 0,19,20
EndSplineSet
EndChar
StartChar: q
Encoding: 113 113 82
Width: 667
VWidth: 1467
Flags: W
HStem: -226 21G<498 538.087> -6 71<250.458 349.769> 486 20G<380.5 426 653.5 670.5>
VStem: 111.5 81<157.238 178 178 236.5> 459 81<-169.523 -109.866>
Fore
330 65 m 0,0,1
 439 65 439 65 518 150 c 1,2,3
 530 208 530 208 541.5 261 c 128,-1,4
 553 314 553 314 565 373 c 1,5,-1
 566 376 l 1,6,7
 553 390 553 390 537 405 c 128,-1,8
 521 420 521 420 501 430 c 128,-1,9
 481 440 481 440 456 443.5 c 128,-1,10
 431 447 431 447 399 442 c 0,11,12
 324 427 324 427 278.5 383 c 128,-1,13
 233 339 233 339 210 277 c 0,14,15
 194 236 194 236 192.5 198 c 128,-1,16
 191 160 191 160 205 131.5 c 128,-1,17
 219 103 219 103 249.5 84.5 c 128,-1,18
 280 66 280 66 330 65 c 0,0,1
500 63 m 1,19,20
 481 43 481 43 454 30.5 c 128,-1,21
 427 18 427 18 400.5 9.5 c 128,-1,22
 374 1 374 1 350.5 -2.5 c 128,-1,23
 327 -6 327 -6 317 -6 c 0,24,25
 251 -9 251 -9 206 17 c 128,-1,26
 161 43 161 43 137.5 84.5 c 128,-1,27
 114 126 114 126 111.5 178 c 128,-1,28
 109 230 109 230 126 282 c 0,29,30
 141 326 141 326 169.5 366 c 128,-1,31
 198 406 198 406 234.5 438 c 128,-1,32
 271 470 271 470 314.5 488 c 128,-1,33
 358 506 358 506 403 506 c 256,34,35
 449 506 449 506 480 500 c 128,-1,36
 511 494 511 494 531.5 484.5 c 128,-1,37
 552 475 552 475 565 463.5 c 128,-1,38
 578 452 578 452 588 440 c 1,39,40
 603 462 603 462 622 479.5 c 128,-1,41
 641 497 641 497 666 506 c 1,42,43
 675 497 675 497 686 487 c 128,-1,44
 697 477 697 477 707 461 c 1,45,46
 673 439 673 439 659.5 417.5 c 128,-1,47
 646 396 646 396 638 371 c 0,48,49
 625 310 625 310 615.5 265 c 128,-1,50
 606 220 606 220 596.5 174.5 c 128,-1,51
 587 129 587 129 576 75 c 128,-1,52
 565 21 565 21 547 -62 c 0,53,54
 540 -97 540 -97 540 -124 c 128,-1,55
 540 -151 540 -151 572 -180 c 1,56,-1
 512 -226 l 1,57,58
 484 -214 484 -214 470 -185 c 128,-1,59
 456 -156 456 -156 459 -126 c 2,60,-1
 500 63 l 1,19,20
EndSplineSet
EndChar
StartChar: r
Encoding: 114 114 83
Width: 404
VWidth: 1467
Flags: W
HStem: 440 59<333.135 430>
VStem: 48 395<1 499 -114.481 -95.5654>
Fore
220 220 m 0,0,1
 213 179 213 179 203.5 138.5 c 128,-1,2
 194 98 194 98 185 57 c 0,3,4
 182 45 182 45 172.5 30 c 128,-1,5
 163 15 163 15 149.5 1 c 128,-1,6
 136 -13 136 -13 121 -25.5 c 128,-1,7
 106 -38 106 -38 89 -43 c 1,8,-1
 48 1 l 1,9,10
 91 31 91 31 104 58 c 128,-1,11
 117 85 117 85 125 120 c 0,12,13
 145 216 145 216 165 309 c 128,-1,14
 185 402 185 402 207 497 c 1,15,-1
 279 497 l 1,16,-1
 260 414 l 1,17,18
 291 452 291 452 329.5 475.5 c 128,-1,19
 368 499 368 499 418 499 c 2,20,-1
 443 499 l 1,21,-1
 430 440 l 1,22,-1
 403 440 l 2,23,24
 362 440 362 440 332 419.5 c 128,-1,25
 302 399 302 399 280 367.5 c 128,-1,26
 258 336 258 336 243.5 297 c 128,-1,27
 229 258 229 258 220 220 c 0,0,1
EndSplineSet
EndChar
StartChar: s
Encoding: 115 115 84
Width: 550
VWidth: 1467
Flags: W
HStem: -16 49.5<224.844 279.592> 459 53<333.745 407.899>
VStem: 73 455<97 406 -27.5047 -8.70026>
Fore
434 134 m 0,0,1
 440 172 440 172 419 191.5 c 128,-1,2
 398 211 398 211 364 221.5 c 128,-1,3
 330 232 330 232 289 238 c 128,-1,4
 248 244 248 244 215 257 c 128,-1,5
 182 270 182 270 163 295 c 128,-1,6
 144 320 144 320 153 367 c 0,7,8
 158 403 158 403 182.5 430.5 c 128,-1,9
 207 458 207 458 240 476 c 128,-1,10
 273 494 273 494 310.5 503 c 128,-1,11
 348 512 348 512 380 512 c 0,12,13
 406 512 406 512 433.5 506 c 128,-1,14
 461 500 461 500 483 487 c 128,-1,15
 505 474 505 474 518 454 c 128,-1,16
 531 434 531 434 528 406 c 1,17,-1
 470 406 l 1,18,19
 467 424 467 424 456 434.5 c 128,-1,20
 445 445 445 445 429.5 450.5 c 128,-1,21
 414 456 414 456 396.5 457.5 c 128,-1,22
 379 459 379 459 364 459 c 0,23,24
 343 459 343 459 321 454 c 128,-1,25
 299 449 299 449 279.5 438 c 128,-1,26
 260 427 260 427 246 409.5 c 128,-1,27
 232 392 232 392 227 367 c 0,28,29
 222 330 222 330 243 313 c 128,-1,30
 264 296 264 296 298 286.5 c 128,-1,31
 332 277 332 277 372 271.5 c 128,-1,32
 412 266 412 266 446 252 c 128,-1,33
 480 238 480 238 499 210.5 c 128,-1,34
 518 183 518 183 509 134 c 0,35,36
 502 94 502 94 476 65.5 c 128,-1,37
 450 37 450 37 415 19 c 128,-1,38
 380 1 380 1 339.5 -7.5 c 128,-1,39
 299 -16 299 -16 266 -16 c 0,40,41
 236 -16 236 -16 206 -11 c 128,-1,42
 176 -6 176 -6 149 7.5 c 128,-1,43
 122 21 122 21 102 42 c 128,-1,44
 82 63 82 63 73 97 c 1,45,-1
 144 97 l 1,46,47
 156 73 156 73 173.5 60 c 128,-1,48
 191 47 191 47 210 41 c 128,-1,49
 229 35 229 35 248 33.5 c 128,-1,50
 267 32 267 32 280 34 c 0,51,52
 308 37 308 37 334.5 42 c 128,-1,53
 361 47 361 47 381.5 58 c 128,-1,54
 402 69 402 69 416 87.5 c 128,-1,55
 430 106 430 106 434 134 c 0,0,1
EndSplineSet
EndChar
StartChar: t
Encoding: 116 116 85
Width: 412
VWidth: 1467
Flags: W
HStem: -4 54<268.605 322.453 322.547 336> 442 54<277 403>
VStem: 133.5 281.5<103.5 496 103.5 160.746> 133.5 69.5<96.6129 103.5 103.5 160.746>
Fore
403 442 m 1,0,-1
 266 442 l 1,1,-1
 214 200 l 2,2,3
 205 160 205 160 203 131.5 c 128,-1,4
 201 103 201 103 211.5 85 c 128,-1,5
 222 67 222 67 247.5 58.5 c 128,-1,6
 273 50 273 50 320 50 c 2,7,-1
 348 50 l 1,8,-1
 336 -4 l 1,9,10
 329 -4 329 -4 326.5 -4 c 128,-1,11
 324 -4 324 -4 322.5 -3.5 c 128,-1,12
 321 -3 321 -3 319.5 -3 c 128,-1,13
 318 -3 318 -3 311 -3 c 0,14,15
 255 -3 255 -3 217.5 6.5 c 128,-1,16
 180 16 180 16 159 40.5 c 128,-1,17
 138 65 138 65 133.5 103.5 c 128,-1,18
 129 142 129 142 142 201 c 2,19,-1
 217 547 l 2,20,21
 222 577 222 577 219 601 c 128,-1,22
 216 625 216 625 188 650 c 1,23,24
 204 665 204 665 220 676 c 128,-1,25
 236 687 236 687 248 695 c 1,26,27
 274 684 274 684 286.5 657.5 c 128,-1,28
 299 631 299 631 298 600 c 1,29,-1
 289 555 l 1,30,-1
 291 555 l 1,31,-1
 277 496 l 1,32,-1
 415 496 l 1,33,-1
 403 442 l 1,0,-1
EndSplineSet
EndChar
StartChar: u
Encoding: 117 117 86
Width: 657
VWidth: 1467
Flags: W
HStem: -13 51<288.419 374.125> 479 20G<199 277 570.5 650>
Fore
650 499 m 1,0,1
 631 409 631 409 612.5 321 c 128,-1,2
 594 233 594 233 575 145 c 0,3,4
 568 110 568 110 568.5 82 c 128,-1,5
 569 54 569 54 600 25 c 1,6,7
 582 10 582 10 567 -1 c 128,-1,8
 552 -12 552 -12 540 -19 c 1,9,10
 519 -12 519 -12 506.5 5.5 c 128,-1,11
 494 23 494 23 490 44 c 1,12,13
 450 15 450 15 404.5 1 c 128,-1,14
 359 -13 359 -13 318 -13 c 0,15,16
 282 -13 282 -13 245 -0.5 c 128,-1,17
 208 12 208 12 181 35.5 c 128,-1,18
 154 59 154 59 140 94 c 128,-1,19
 126 129 126 129 136 175 c 0,20,21
 154 257 154 257 172.5 342 c 128,-1,22
 191 427 191 427 207 499 c 1,23,-1
 277 499 l 1,24,25
 263 430 263 430 246 350.5 c 128,-1,26
 229 271 229 271 213 194 c 0,27,28
 204 151 204 151 210.5 121 c 128,-1,29
 217 91 217 91 234.5 72.5 c 128,-1,30
 252 54 252 54 278 46 c 128,-1,31
 304 38 304 38 333 38 c 0,32,33
 361 40 361 40 389 48.5 c 128,-1,34
 417 57 417 57 442 76 c 128,-1,35
 467 95 467 95 486 124 c 128,-1,36
 505 153 505 153 514 194 c 0,37,38
 530 271 530 271 546.5 351 c 128,-1,39
 563 431 563 431 578 499 c 1,40,-1
 650 499 l 1,0,1
EndSplineSet
EndChar
StartChar: v
Encoding: 118 118 87
Width: 520
VWidth: 1467
Flags: W
HStem: -10 60<250.469 301.077> 476 20G<164 236.119 487.726 563>
VStem: 164 74.5<97.5936 147.427 147.427 496>
Fore
417 151 m 2,0,1
 403 122 403 122 386.5 93.5 c 128,-1,2
 370 65 370 65 349.5 42 c 128,-1,3
 329 19 329 19 306 4.5 c 128,-1,4
 283 -10 283 -10 258 -10 c 0,5,6
 210 -10 210 -10 188.5 29.5 c 128,-1,7
 167 69 167 69 164 136 c 2,8,-1
 164 496 l 1,9,-1
 236 496 l 1,10,-1
 238 160 l 2,11,12
 238 153 238 153 238.5 134.5 c 128,-1,13
 239 116 239 116 242 97 c 128,-1,14
 245 78 245 78 251.5 64 c 128,-1,15
 258 50 258 50 271 50 c 256,16,17
 285 50 285 50 298 64 c 128,-1,18
 311 78 311 78 323 96 c 128,-1,19
 335 114 335 114 343.5 132.5 c 128,-1,20
 352 151 352 151 357 160 c 2,21,-1
 496 496 l 1,22,-1
 563 496 l 1,23,-1
 417 151 l 2,0,1
EndSplineSet
EndChar
StartChar: w
Encoding: 119 119 88
Width: 735
VWidth: 1467
Flags: W
HStem: -3 21G<150 234 496 579.16> 477 20G<169.2 241 679.5 775>
VStem: 170 71<409.5 497>
Fore
150 -3 m 1,0,-1
 170 497 l 1,1,-1
 241 497 l 1,2,-1
 233 67 l 1,3,4
 260 81 260 81 287 114 c 128,-1,5
 314 147 314 147 342 191 c 128,-1,6
 370 235 370 235 396.5 285.5 c 128,-1,7
 423 336 423 336 447 386 c 1,8,9
 455 337 455 337 459.5 286.5 c 128,-1,10
 464 236 464 236 470.5 193 c 128,-1,11
 477 150 477 150 488 117 c 128,-1,12
 499 84 499 84 521 69 c 1,13,14
 559 160 559 160 607.5 272 c 128,-1,15
 656 384 656 384 703 497 c 1,16,-1
 775 497 l 1,17,-1
 571 -3 l 1,18,-1
 509 -3 l 1,19,20
 483 13 483 13 465 31.5 c 128,-1,21
 447 50 447 50 437 75 c 128,-1,22
 427 100 427 100 422 133.5 c 128,-1,23
 417 167 417 167 414 214 c 1,24,25
 390 167 390 167 368 134 c 128,-1,26
 346 101 346 101 323.5 76 c 128,-1,27
 301 51 301 51 275 32 c 128,-1,28
 249 13 249 13 219 -3 c 1,29,-1
 150 -3 l 1,0,-1
EndSplineSet
EndChar
StartChar: x
Encoding: 120 120 89
Width: 603
VWidth: 1467
Flags: W
HStem: 0 496<242 550 242 242>
Fore
242 496 m 1,0,-1
 362 298 l 1,1,-1
 565 496 l 1,2,-1
 651 496 l 1,3,-1
 406 248 l 1,4,-1
 550 0 l 1,5,-1
 464 0 l 1,6,-1
 340 200 l 1,7,-1
 141 0 l 1,8,-1
 54 0 l 1,9,-1
 299 248 l 1,10,-1
 157 496 l 1,11,-1
 242 496 l 1,0,-1
EndSplineSet
EndChar
StartChar: y
Encoding: 121 121 90
Width: 661
VWidth: 1467
Flags: W
HStem: -242 57<255 353.984> -15 53<287.67 361.188> 477 20<199 277 636 656.5>
Fore
478 37 m 1,0,1
 440 12 440 12 397.5 -1.5 c 128,-1,2
 355 -15 355 -15 317 -15 c 0,3,4
 280 -15 280 -15 244 -2.5 c 128,-1,5
 208 10 208 10 180.5 33.5 c 128,-1,6
 153 57 153 57 139.5 92.5 c 128,-1,7
 126 128 126 128 136 175 c 0,8,9
 154 257 154 257 172.5 342 c 128,-1,10
 191 427 191 427 207 497 c 1,11,-1
 277 497 l 1,12,13
 263 430 263 430 245 350.5 c 128,-1,14
 227 271 227 271 211 192 c 0,15,16
 202 150 202 150 209.5 120.5 c 128,-1,17
 217 91 217 91 234.5 72.5 c 128,-1,18
 252 54 252 54 278 46 c 128,-1,19
 304 38 304 38 333 38 c 0,20,21
 361 38 361 38 389 47.5 c 128,-1,22
 417 57 417 57 441 75.5 c 128,-1,23
 465 94 465 94 483.5 123.5 c 128,-1,24
 502 153 502 153 511 192 c 0,25,26
 519 230 519 230 521.5 242.5 c 128,-1,27
 524 255 524 255 525.5 261.5 c 128,-1,28
 527 268 527 268 529 278 c 128,-1,29
 531 288 531 288 538 321 c 2,30,-1
 558 414 l 1,31,32
 569 445 569 445 595 471 c 128,-1,33
 621 497 621 497 651 509 c 1,34,35
 662 500 662 500 672 489 c 128,-1,36
 682 478 682 478 694 464 c 1,37,38
 672 449 672 449 658 435 c 128,-1,39
 644 421 644 421 636 407 c 128,-1,40
 628 393 628 393 624.5 377.5 c 128,-1,41
 621 362 621 362 616 345 c 2,42,-1
 534 -47 l 2,43,44
 509 -158 509 -158 449 -200 c 128,-1,45
 389 -242 389 -242 285 -242 c 2,46,-1
 242 -242 l 1,47,-1
 255 -185 l 1,48,-1
 299 -185 l 2,49,50
 343 -185 343 -185 371 -178.5 c 128,-1,51
 399 -172 399 -172 415 -156.5 c 128,-1,52
 431 -141 431 -141 441.5 -114 c 128,-1,53
 452 -87 452 -87 461 -45 c 2,54,-1
 471 6 l 1,55,-1
 478 37 l 1,0,1
EndSplineSet
EndChar
StartChar: z
Encoding: 122 122 91
Width: 625
VWidth: 1467
Flags: W
HStem: -1 64<195.321 534> 434 62<197 519>
Fore
549 63 m 1,0,-1
 534 -1 l 1,1,-1
 219 -1 l 2,2,3
 182 -1 182 -1 159 12 c 128,-1,4
 136 25 136 25 124 45 c 128,-1,5
 112 65 112 65 109.5 87.5 c 128,-1,6
 107 110 107 110 110 131 c 1,7,8
 120 138 120 138 151.5 161.5 c 128,-1,9
 183 185 183 185 225.5 215.5 c 128,-1,10
 268 246 268 246 316 281.5 c 128,-1,11
 364 317 364 317 406.5 348 c 128,-1,12
 449 379 449 379 480 402 c 128,-1,13
 511 425 511 425 519 434 c 1,14,-1
 182 434 l 1,15,-1
 197 496 l 1,16,-1
 640 494 l 1,17,-1
 628 436 l 1,18,-1
 183 103 l 1,19,20
 185 81 185 81 195 72 c 128,-1,21
 205 63 205 63 249 63 c 2,22,-1
 549 63 l 1,0,-1
EndSplineSet
EndChar
StartChar: braceleft
Encoding: 123 123 92
Width: 334
VWidth: 1467
Flags: W
HStem: 697 63<367.805 427.929>
VStem: 91 361<311 760 543.619 808.521>
Fore
264 -122 m 1,0,1
 191 -119 191 -119 160 -48 c 128,-1,2
 129 23 129 23 157 153 c 2,3,-1
 179 261 l 1,4,5
 158 277 158 277 135 289.5 c 128,-1,6
 112 302 112 302 91 311 c 1,7,8
 141 329 141 329 201 364 c 1,9,-1
 227 486 l 2,10,11
 255 613 255 613 313 680.5 c 128,-1,12
 371 748 371 748 452 760 c 1,13,-1
 437 697 l 1,14,15
 380 681 380 681 351.5 631.5 c 128,-1,16
 323 582 323 582 304 487 c 2,17,-1
 279 371 l 1,18,19
 279 368 279 368 277 365 c 256,20,21
 276 362 276 362 275 359.5 c 128,-1,22
 274 357 274 357 271 354 c 256,23,24
 268 351 268 351 265.5 348.5 c 128,-1,25
 263 346 263 346 260 343 c 256,26,27
 257 340 257 340 254 339 c 0,28,29
 246 335 246 335 234 332 c 128,-1,30
 222 329 222 329 208.5 325 c 128,-1,31
 195 321 195 321 182.5 318 c 128,-1,32
 170 315 170 315 164 314 c 1,33,34
 170 311 170 311 181 309 c 128,-1,35
 192 307 192 307 204 303 c 128,-1,36
 216 299 216 299 227 296 c 128,-1,37
 238 293 238 293 242 289 c 0,38,39
 244 288 244 288 246 286 c 0,40,41
 251 285 251 285 254 277 c 0,42,43
 255 273 255 273 255 264 c 2,44,-1
 255 257 l 1,45,-1
 232 151 l 2,46,47
 211 54 211 54 220 6.5 c 128,-1,48
 229 -41 229 -41 277 -59 c 1,49,-1
 264 -122 l 1,0,1
EndSplineSet
EndChar
StartChar: bar
Encoding: 124 124 93
Width: 296
VWidth: 1467
Flags: W
VStem: 45 313<-261 791 -261 -261>
Fore
45 -261 m 1,0,-1
 270 791 l 1,1,-1
 358 791 l 1,2,-1
 135 -261 l 1,3,-1
 45 -261 l 1,0,-1
EndSplineSet
EndChar
StartChar: braceright
Encoding: 125 125 94
Width: 331
VWidth: 1467
Flags: W
HStem: -119 63<9 71.1736>
VStem: -1 359<-119 330 -340.517 -334.278>
Fore
185 763 m 1,0,1
 257 760 257 760 287.5 689 c 128,-1,2
 318 618 318 618 291 489 c 2,3,-1
 268 380 l 1,4,5
 289 364 289 364 313 351.5 c 128,-1,6
 337 339 337 339 358 330 c 1,7,8
 333 321 333 321 304.5 307 c 128,-1,9
 276 293 276 293 246 277 c 1,10,-1
 220 156 l 2,11,12
 194 28 194 28 135 -39.5 c 128,-1,13
 76 -107 76 -107 -1 -119 c 1,14,-1
 9 -56 l 1,15,16
 67 -40 67 -40 94.5 9.5 c 128,-1,17
 122 59 122 59 142 154 c 2,18,-1
 169 270 l 1,19,20
 169 273 169 273 170 276 c 256,21,22
 172 279 172 279 172.5 282 c 128,-1,23
 173 285 173 285 176 288 c 0,24,25
 180 293 180 293 186 298 c 0,26,27
 189 301 189 301 194 302 c 2,28,29
 201 307 201 307 213.5 310 c 128,-1,30
 226 313 226 313 239 316.5 c 128,-1,31
 252 320 252 320 264 322 c 128,-1,32
 276 324 276 324 283 327 c 1,33,34
 277 329 277 329 266 332 c 128,-1,35
 255 335 255 335 243.5 338.5 c 128,-1,36
 232 342 232 342 221 345 c 128,-1,37
 210 348 210 348 205 352 c 0,38,39
 204 354 204 354 201 355 c 0,40,41
 195 358 195 358 194 364 c 1,42,43
 192 367 192 367 192 377 c 2,44,-1
 192 384 l 1,45,-1
 214 490 l 2,46,47
 238 587 238 587 229 635.5 c 128,-1,48
 220 684 220 684 172 701 c 1,49,-1
 185 763 l 1,0,1
EndSplineSet
EndChar
StartChar: asciitilde
Encoding: 126 126 95
Width: 735
VWidth: 1467
Flags: W
HStem: 200 79<523.86 615.99> 323 82<232.328 311.726>
Fore
739 374 m 1,0,-1
 737 364 l 2,1,2
 728 320 728 320 709.5 288.5 c 128,-1,3
 691 257 691 257 667 237 c 128,-1,4
 643 217 643 217 616.5 208.5 c 128,-1,5
 590 200 590 200 566 200 c 0,6,7
 538 200 538 200 497 206.5 c 128,-1,8
 456 213 456 213 408 248 c 0,9,10
 392 260 392 260 378.5 273 c 128,-1,11
 365 286 365 286 351 297 c 128,-1,12
 337 308 337 308 322 315.5 c 128,-1,13
 307 323 307 323 288 323 c 0,14,15
 252 323 252 323 225 298.5 c 128,-1,16
 198 274 198 274 186 227 c 1,17,-1
 117 227 l 1,18,-1
 120 238 l 2,19,20
 126 270 126 270 143 299.5 c 128,-1,21
 160 329 160 329 182.5 352.5 c 128,-1,22
 205 376 205 376 231.5 389.5 c 128,-1,23
 258 403 258 403 286 405 c 0,24,25
 310 406 310 406 328 404 c 128,-1,26
 346 402 346 402 365 394.5 c 128,-1,27
 384 387 384 387 405.5 374 c 128,-1,28
 427 361 427 361 455 339 c 0,29,30
 481 317 481 317 512 298 c 128,-1,31
 543 279 543 279 581 279 c 0,32,33
 649 279 649 279 669 374 c 1,34,-1
 739 374 l 1,0,-1
EndSplineSet
EndChar
StartChar: uni0E33.alt1
Encoding: 65539 -1 96
Width: 525
VWidth: 1467
Flags: W
HStem: -3 21G<337 421.271> 502 21G<164.619 173> 539 49<289.982 367.577> 637 34<-255.043 -185.453>
Fore
310 588 m 0,0,1
 355 588 355 588 394.5 573.5 c 128,-1,2
 434 559 434 559 460.5 532.5 c 128,-1,3
 487 506 487 506 499 471 c 128,-1,4
 511 436 511 436 502 395 c 2,5,-1
 417 -3 l 1,6,-1
 337 -3 l 1,7,-1
 417 367 l 2,8,9
 425 409 425 409 427.5 437 c 128,-1,10
 430 465 430 465 412 490 c 0,11,12
 398 514 398 514 368.5 526 c 128,-1,13
 339 538 339 538 303 539 c 128,-1,14
 267 540 267 540 228 530.5 c 128,-1,15
 189 521 189 521 157 502 c 1,16,-1
 173 544 l 1,17,18
 191 559 191 559 213 568 c 128,-1,19
 235 577 235 577 254.5 581 c 128,-1,20
 274 585 274 585 289.5 586.5 c 128,-1,21
 305 588 305 588 310 588 c 0,0,1
-308 739 m 0,22,23
 -299 782 -299 782 -263 810.5 c 128,-1,24
 -227 839 -227 839 -188 839 c 0,25,26
 -150 839 -150 839 -126.5 810 c 128,-1,27
 -103 781 -103 781 -113 738 c 0,28,29
 -119 695 -119 695 -155.5 666 c 128,-1,30
 -192 637 -192 637 -230 637 c 0,31,32
 -273 637 -273 637 -295 667.5 c 128,-1,33
 -317 698 -317 698 -308 739 c 0,22,23
-257 739 m 0,34,35
 -263 715 -263 715 -255.5 693.5 c 128,-1,36
 -248 672 -248 672 -223 671 c 0,37,38
 -201 671 -201 671 -185 693 c 128,-1,39
 -169 715 -169 715 -161 739 c 0,40,41
 -157 761 -157 761 -165 781 c 128,-1,42
 -173 801 -173 801 -195 803 c 0,43,44
 -220 801 -220 801 -236 780.5 c 128,-1,45
 -252 760 -252 760 -257 739 c 0,34,35
EndSplineSet
EndChar
StartChar: quotedbl
Encoding: 34 34 97
Width: 380
VWidth: 1467
Flags: W
HStem: 497 207<222 245 371 396 194 458 222 222>
Fore
396 497 m 1,0,-1
 345 497 l 1,1,-1
 371 704 l 1,2,-1
 458 706 l 1,3,-1
 396 497 l 1,0,-1
245 497 m 1,4,-1
 194 497 l 1,5,-1
 222 704 l 1,6,-1
 305 706 l 1,7,-1
 245 497 l 1,4,-1
EndSplineSet
EndChar
StartChar: exclam
Encoding: 33 33 98
Width: 250
VWidth: 1467
Flags: W
HStem: -3 157<117.172 173.251>
VStem: 88 244<78 716 78 78> 88 116<29.168 124.142> 136 69<219.788 279.96>
Fore
136 207 m 1,0,-1
 232 716 l 1,1,-1
 332 716 l 1,2,-1
 205 207 l 1,3,-1
 136 207 l 1,0,-1
161 154 m 0,4,5
 186 154 186 154 198.5 132 c 128,-1,6
 211 110 211 110 204 78 c 0,7,8
 197 44 197 44 176.5 22 c 128,-1,9
 156 0 156 0 128 -3 c 1,10,11
 107 0 107 0 93 22 c 128,-1,12
 79 44 79 44 88 78 c 0,13,14
 95 110 95 110 116.5 132 c 128,-1,15
 138 154 138 154 161 154 c 0,4,5
EndSplineSet
EndChar
StartChar: uni0E4E.alt1
Encoding: 65540 -1 99
Width: 0
VWidth: 1467
Flags: W
HStem: 657 37<-220.5 -160.5 -160.5 -154.46 -154.46 -149.5 -149.5 -112.551 -112.551 -87> 931.5 38<-33 -14.7325 -12.2655 4.85999 25.0074 45> 934.5 44.5<-32.4369 34.1938>
VStem: -164 83<862.133 915.654>
Fore
66 971 m 1,0,-1
 45 929 l 1,1,2
 26 933 26 933 5.5 934.5 c 128,-1,3
 -15 936 -15 936 -33 931.5 c 128,-1,4
 -51 927 -51 927 -63.5 916 c 128,-1,5
 -76 905 -76 905 -81 886 c 0,6,7
 -87 863 -87 863 -65.5 852.5 c 128,-1,8
 -44 842 -44 842 -19 839 c 1,9,-1
 -41 785 l 1,10,11
 -70 782 -70 782 -93 780 c 128,-1,12
 -116 778 -116 778 -133.5 772 c 128,-1,13
 -151 766 -151 766 -161.5 755.5 c 128,-1,14
 -172 745 -172 745 -176 726 c 0,15,16
 -180 703 -180 703 -149.5 694 c 128,-1,17
 -119 685 -119 685 -67 691 c 1,18,-1
 -87 650 l 1,19,20
 -126 644 -126 644 -160.5 646.5 c 128,-1,21
 -195 649 -195 649 -220.5 657 c 128,-1,22
 -246 665 -246 665 -259.5 679 c 128,-1,23
 -273 693 -273 693 -268 713 c 0,24,25
 -257 773 -257 773 -208.5 796.5 c 128,-1,26
 -160 820 -160 820 -101 817 c 1,27,28
 -131 825 -131 825 -150 846 c 128,-1,29
 -169 867 -169 867 -164 888 c 0,30,31
 -160 920 -160 920 -138.5 940 c 128,-1,32
 -117 960 -117 960 -85 969.5 c 128,-1,33
 -53 979 -53 979 -13.5 979 c 128,-1,34
 26 979 26 979 66 971 c 1,0,-1
EndSplineSet
EndChar
StartChar: exclamdown
Encoding: 161 161 100
Width: 227
VWidth: 1467
Flags: W
HStem: 489 20G<204 228.5>
VStem: 12 245<-210 430 -210 -210> 138 69<242.573 299> 146.5 106<375 485>
Fore
207 299 m 1,0,-1
 114 -210 l 1,1,-1
 12 -210 l 1,2,-1
 138 299 l 1,3,-1
 207 299 l 1,0,-1
183 352 m 0,4,5
 158 352 158 352 146.5 375 c 128,-1,6
 135 398 135 398 142 430 c 256,7,8
 150 462 150 462 171 485 c 128,-1,9
 192 508 192 508 216 509 c 0,10,11
 241 508 241 508 252.5 485 c 128,-1,12
 264 462 264 462 257 430 c 256,13,14
 249 398 249 398 228 375 c 128,-1,15
 207 352 207 352 183 352 c 0,4,5
EndSplineSet
EndChar
StartChar: cent
Encoding: 162 162 101
Width: 627
VWidth: 1467
Flags: W
HStem: 0 21G<299 387.617> 555 48<509 574.349>
VStem: 606 56<487.138 537.586>
Fore
315 91 m 1,0,1
 246 98 246 98 208 125 c 0,2,3
 179 144 179 144 160.5 172.5 c 128,-1,4
 142 201 142 201 150 239 c 2,5,-1
 197 458 l 2,6,7
 205 496 205 496 235.5 524.5 c 128,-1,8
 266 553 266 553 302 572 c 0,9,10
 355 600 355 600 424 604 c 1,11,-1
 449 720 l 1,12,-1
 534 720 l 1,13,-1
 509 603 l 1,14,15
 563 596 563 596 606.5 571.5 c 128,-1,16
 650 547 650 547 662 503 c 1,17,-1
 606 471 l 1,18,19
 596 511 596 511 566.5 530.5 c 128,-1,20
 537 550 537 550 499 555 c 1,21,-1
 411 141 l 1,22,23
 449 147 449 147 485.5 166.5 c 128,-1,24
 522 186 522 186 547 226 c 1,25,-1
 597 194 l 1,26,27
 565 148 565 148 511.5 124.5 c 128,-1,28
 458 101 458 101 401 94 c 1,29,-1
 384 0 l 1,30,-1
 299 0 l 1,31,-1
 315 91 l 1,0,1
283 169 m 0,32,33
 305 154 305 154 327 148 c 1,34,-1
 412 547 l 1,35,36
 398 544 398 544 384.5 540 c 128,-1,37
 371 536 371 536 359 528 c 0,38,39
 326 511 326 511 301 491 c 128,-1,40
 276 471 276 471 268 439 c 2,41,-1
 230 258 l 2,42,43
 223 226 223 226 240 206 c 128,-1,44
 257 186 257 186 283 169 c 0,32,33
EndSplineSet
EndChar
StartChar: sterling
Encoding: 163 163 102
Width: 613
VWidth: 1467
Flags: W
HStem: 0 51<216 541> 308 66<172 285 376 499> 643 55<459.951 563.836>
VStem: 292 84<381 405.339 405.339 430.219>
Fore
97 0 m 1,0,-1
 104 48 l 1,1,2
 151 66 151 66 182 87.5 c 128,-1,3
 213 109 213 109 232 131.5 c 128,-1,4
 251 154 251 154 261 180.5 c 128,-1,5
 271 207 271 207 279 236 c 0,6,7
 283 257 283 257 283 269.5 c 128,-1,8
 283 282 283 282 285 308 c 1,9,-1
 157 308 l 1,10,-1
 172 374 l 1,11,-1
 292 374 l 1,12,13
 292 399 292 399 292.5 430.5 c 128,-1,14
 293 462 293 462 301 496 c 0,15,16
 310 540 310 540 332.5 577.5 c 128,-1,17
 355 615 355 615 386.5 641.5 c 128,-1,18
 418 668 418 668 457 683 c 128,-1,19
 496 698 496 698 538 698 c 0,20,21
 584 698 584 698 610.5 688.5 c 128,-1,22
 637 679 637 679 656 671 c 1,23,-1
 622 615 l 1,24,25
 607 622 607 622 583.5 633 c 128,-1,26
 560 644 560 644 522 643 c 0,27,28
 477 641 477 641 439.5 604.5 c 128,-1,29
 402 568 402 568 386 494 c 0,30,31
 379 456 379 456 376.5 431 c 128,-1,32
 374 406 374 406 376 381 c 1,33,-1
 514 381 l 1,34,-1
 499 314 l 1,35,-1
 370 313 l 1,36,37
 370 300.5 l 2,38,39
 370 288 370 288 367.5 269.5 c 128,-1,40
 365 251 365 251 360 226.5 c 128,-1,41
 355 202 355 202 345 179 c 0,42,43
 329 135 329 135 293.5 102.5 c 128,-1,44
 258 70 258 70 216 51 c 1,45,-1
 549 53 l 1,46,-1
 541 0 l 1,47,-1
 97 0 l 1,0,-1
EndSplineSet
EndChar
StartChar: currency
Encoding: 164 164 103
Width: 713
VWidth: 1467
Flags: W
HStem: 82 65.5<296.159 425.656> 536 65<419.819 546.357>
Fore
628 85 m 1,0,-1
 582 145 l 1,1,2
 543 114 543 114 486.5 98 c 128,-1,3
 430 82 430 82 372 82 c 128,-1,4
 314 82 314 82 263.5 97 c 128,-1,5
 213 112 213 112 186 141 c 1,6,-1
 110 82 l 1,7,-1
 84 123 l 1,8,-1
 156 183 l 1,9,10
 145 204 145 204 145 221 c 128,-1,11
 145 238 145 238 151 267 c 0,12,13
 158 301 158 301 167 343.5 c 128,-1,14
 176 386 176 386 183 420 c 0,15,16
 191 452 191 452 203.5 472.5 c 128,-1,17
 216 493 216 493 238 514 c 1,18,-1
 197 566 l 1,19,-1
 242 604 l 1,20,-1
 282 550 l 1,21,22
 321 577 321 577 374.5 589.5 c 128,-1,23
 428 602 428 602 482.5 601 c 128,-1,24
 537 600 537 600 584 586 c 128,-1,25
 631 572 631 572 657 544 c 1,26,-1
 726 600 l 1,27,-1
 760 559 l 1,28,-1
 685 502 l 1,29,30
 695 481 695 481 696.5 462 c 128,-1,31
 698 443 698 443 691 414 c 2,32,-1
 660 267 l 2,33,34
 654 239 654 239 647 223 c 128,-1,35
 640 207 640 207 624 188 c 1,36,-1
 673 122 l 1,37,-1
 628 85 l 1,0,-1
226 274 m 0,38,39
 217 233 217 233 237.5 205.5 c 128,-1,40
 258 178 258 178 295 163 c 128,-1,41
 332 148 332 148 378.5 147.5 c 128,-1,42
 425 147 425 147 468.5 161 c 128,-1,43
 512 175 512 175 546 202 c 128,-1,44
 580 229 580 229 590 270 c 0,45,46
 594 292 594 292 596.5 301.5 c 128,-1,47
 599 311 599 311 600.5 320.5 c 128,-1,48
 602 330 602 330 605.5 345.5 c 128,-1,49
 609 361 609 361 616 395 c 0,50,51
 625 442 625 442 604.5 473.5 c 128,-1,52
 584 505 584 505 547.5 520.5 c 128,-1,53
 511 536 511 536 464.5 536 c 128,-1,54
 418 536 418 536 375 521 c 128,-1,55
 332 506 332 506 298 476 c 128,-1,56
 264 446 264 446 254 402 c 1,57,58
 251 395 251 395 247.5 378 c 128,-1,59
 244 361 244 361 240 340.5 c 128,-1,60
 236 320 236 320 231.5 301.5 c 128,-1,61
 227 283 227 283 226 274 c 0,38,39
EndSplineSet
EndChar
StartChar: yen
Encoding: 165 165 104
Width: 641
VWidth: 1467
Flags: W
HStem: 0 21G<279 360.516> 91 81<85 295 389 615> 248 84<122 302 468 647> 678 20G<175 259.5 652.5 753>
Fore
471 336 m 0,0,1
 470 335 470 335 470 334 c 128,-1,2
 470 333 470 333 468 332 c 1,3,-1
 666 332 l 1,4,-1
 647 248 l 1,5,-1
 405 248 l 1,6,-1
 389 172 l 1,7,-1
 631 172 l 1,8,-1
 615 91 l 1,9,-1
 373 91 l 1,10,-1
 357 0 l 1,11,-1
 279 0 l 1,12,-1
 295 91 l 1,13,-1
 69 91 l 1,14,-1
 85 172 l 1,15,-1
 311 172 l 1,16,-1
 327 248 l 1,17,-1
 103 248 l 1,18,-1
 122 332 l 1,19,-1
 302 332 l 1,20,21
 299 335 299 335 299 337 c 128,-1,22
 299 339 299 339 298 340 c 1,23,24
 282 377 282 377 265.5 422.5 c 128,-1,25
 249 468 249 468 234 516.5 c 128,-1,26
 219 565 219 565 203.5 612 c 128,-1,27
 188 659 188 659 175 698 c 1,28,-1
 248 698 l 1,29,30
 271 618 271 618 303 533.5 c 128,-1,31
 335 449 335 449 362 374 c 0,32,33
 374 342 374 342 384.5 340.5 c 128,-1,34
 395 339 395 339 420 370 c 0,35,36
 483 446 483 446 552 532 c 128,-1,37
 621 618 621 618 684 698 c 1,38,-1
 753 698 l 1,39,40
 720 656 720 656 702 632.5 c 0,41,-1
 630.5 538.5 l 0,42,43
 577 468 577 468 540 422 c 128,-1,44
 503 376 503 376 471 336 c 0,0,1
EndSplineSet
EndChar
StartChar: brokenbar
Encoding: 166 166 105
Width: 247
VWidth: 1467
Flags: W
HStem: 692 20G<234.645 315>
VStem: 47 268<-183 712 -547.508 -183>
Fore
158 340 m 1,0,-1
 239 712 l 1,1,-1
 315 712 l 1,2,-1
 236 340 l 1,3,-1
 158 340 l 1,0,-1
47 -183 m 1,4,-1
 126 189 l 1,5,-1
 204 189 l 1,6,-1
 125 -183 l 1,7,-1
 47 -183 l 1,4,-1
EndSplineSet
EndChar
StartChar: section
Encoding: 167 167 106
Width: 591
VWidth: 1467
Flags: W
HStem: -50 57<235.471 335.254> 673 53<397.796 485>
VStem: 499 78<304.986 361.365 361.365 366.805 366.805 380.5>
Fore
530 101 m 0,0,1
 522 62 522 62 496.5 32.5 c 128,-1,2
 471 3 471 3 435 -15.5 c 128,-1,3
 399 -34 399 -34 358 -42.5 c 128,-1,4
 317 -51 317 -51 280 -50 c 0,5,6
 251 -50 251 -50 216.5 -43.5 c 128,-1,7
 182 -37 182 -37 152.5 -23.5 c 128,-1,8
 123 -10 123 -10 103.5 11 c 128,-1,9
 84 32 84 32 84 65 c 1,10,-1
 176 65 l 1,11,12
 186 31 186 31 218.5 19 c 128,-1,13
 251 7 251 7 298 7 c 0,14,15
 354 7 354 7 392 33 c 128,-1,16
 430 59 430 59 440 97 c 0,17,18
 445 129 445 129 428.5 150.5 c 128,-1,19
 412 172 412 172 379 183 c 0,20,21
 348 194 348 194 306 201 c 128,-1,22
 264 208 264 208 229 223.5 c 128,-1,23
 194 239 194 239 172.5 265.5 c 128,-1,24
 151 292 151 292 160 339 c 0,25,26
 164 362 164 362 179.5 384 c 128,-1,27
 195 406 195 406 215.5 424 c 128,-1,28
 236 442 236 442 259.5 453.5 c 128,-1,29
 283 465 283 465 302 468 c 1,30,31
 286 474 286 474 267.5 483 c 128,-1,32
 249 492 249 492 235.5 505 c 128,-1,33
 222 518 222 518 213.5 536.5 c 128,-1,34
 205 555 205 555 210 580 c 0,35,36
 216 616 216 616 241 644 c 128,-1,37
 266 672 266 672 299.5 690.5 c 128,-1,38
 333 709 333 709 371 717.5 c 128,-1,39
 409 726 409 726 443 726 c 0,40,41
 470 726 470 726 501.5 720.5 c 128,-1,42
 533 715 533 715 560 701.5 c 128,-1,43
 587 688 587 688 605.5 667.5 c 128,-1,44
 624 647 624 647 624 619 c 1,45,-1
 541 619 l 1,46,47
 528 656 528 656 500 665.5 c 128,-1,48
 472 675 472 675 428 673 c 0,49,50
 377 672 377 672 334.5 646.5 c 128,-1,51
 292 621 292 621 288 580 c 0,52,53
 285 559 285 559 292 546 c 128,-1,54
 299 533 299 533 311.5 524 c 128,-1,55
 324 515 324 515 341.5 509 c 128,-1,56
 359 503 359 503 379 497 c 1,57,58
 411 493 411 493 441.5 485.5 c 128,-1,59
 472 478 472 478 498.5 468 c 128,-1,60
 525 458 525 458 544 443 c 128,-1,61
 563 428 563 428 572 406 c 0,62,63
 582 380 582 380 577 342 c 0,64,65
 572 318 572 318 559 300 c 128,-1,66
 546 282 546 282 528.5 267 c 128,-1,67
 511 252 511 252 489.5 240.5 c 128,-1,68
 468 229 468 229 449 220 c 1,69,70
 464 213 464 213 480 203.5 c 128,-1,71
 496 194 496 194 508.5 179 c 128,-1,72
 521 164 521 164 527.5 145 c 128,-1,73
 534 126 534 126 530 101 c 0,0,1
242 339 m 0,74,75
 236 311 236 311 245 295.5 c 128,-1,76
 254 280 254 280 271.5 272 c 128,-1,77
 289 264 289 264 314 260.5 c 128,-1,78
 339 257 339 257 367 252 c 1,79,80
 389 255 389 255 411 261 c 128,-1,81
 433 267 433 267 452 278 c 128,-1,82
 471 289 471 289 483.5 304.5 c 128,-1,83
 496 320 496 320 499 342 c 0,84,85
 502 365 502 365 496 380.5 c 128,-1,86
 490 396 490 396 477.5 406.5 c 128,-1,87
 465 417 465 417 447.5 422.5 c 128,-1,88
 430 428 430 428 408 434 c 1,89,-1
 381 434 l 2,90,91
 361 434 361 434 337.5 428.5 c 128,-1,92
 314 423 314 423 294 412 c 128,-1,93
 274 401 274 401 260 382.5 c 128,-1,94
 246 364 246 364 242 339 c 0,74,75
EndSplineSet
EndChar
StartChar: dieresis
Encoding: 168 168 107
Width: 416
VWidth: 1467
Flags: W
HStem: 541 157<204.995 257.687 424.401 477.579>
VStem: 179 105.5<564 674> 397.5 106.5<564 674>
Fore
216 541 m 0,0,1
 191 541 191 541 179 564 c 128,-1,2
 167 587 167 587 175 619 c 256,3,4
 182 651 182 651 203 674 c 128,-1,5
 224 697 224 697 249 698 c 0,6,7
 274 697 274 697 284.5 674 c 128,-1,8
 295 651 295 651 288 619 c 256,9,10
 280 587 280 587 259 564 c 128,-1,11
 238 541 238 541 216 541 c 0,0,1
434 541 m 0,12,13
 409 541 409 541 397.5 564 c 128,-1,14
 386 587 386 587 393 619 c 256,15,16
 401 651 401 651 422 674 c 128,-1,17
 443 697 443 697 468 698 c 0,18,19
 493 697 493 697 504 674 c 128,-1,20
 515 651 515 651 508 619 c 256,21,22
 500 587 500 587 479 564 c 128,-1,23
 458 541 458 541 434 541 c 0,12,13
EndSplineSet
EndChar
StartChar: copyright
Encoding: 169 169 108
Width: 893
VWidth: 1467
Flags: W
HStem: -22.5 59.5<327.238 582.999> 660 61<453.97 708.247>
Fore
216 534 m 2,0,1
 229 596 229 596 288.5 637.5 c 128,-1,2
 348 679 348 679 428.5 699.5 c 128,-1,3
 509 720 509 720 598.5 721 c 128,-1,4
 688 722 688 722 760 700.5 c 128,-1,5
 832 679 832 679 874 637.5 c 128,-1,6
 916 596 916 596 902 534 c 2,7,-1
 823 164 l 2,8,9
 810 103 810 103 750.5 61 c 128,-1,10
 691 19 691 19 609.5 -2 c 128,-1,11
 528 -23 528 -23 439.5 -22.5 c 128,-1,12
 351 -22 351 -22 278 -1.5 c 128,-1,13
 205 19 205 19 163.5 60 c 128,-1,14
 122 101 122 101 135 164 c 2,15,-1
 216 534 l 2,0,1
820 506 m 2,16,17
 832 558 832 558 799 592 c 128,-1,18
 766 626 766 626 710 643 c 128,-1,19
 654 660 654 660 584.5 660 c 128,-1,20
 515 660 515 660 452 643 c 128,-1,21
 389 626 389 626 341 592 c 128,-1,22
 293 558 293 558 283 506 c 2,23,-1
 217 195 l 2,24,25
 205 142 205 142 237.5 107 c 128,-1,26
 270 72 270 72 325.5 54.5 c 128,-1,27
 381 37 381 37 451 37 c 128,-1,28
 521 37 521 37 585 54.5 c 128,-1,29
 649 72 649 72 695.5 107 c 128,-1,30
 742 142 742 142 754 195 c 2,31,-1
 820 506 l 2,16,17
456 530 m 0,32,33
 424 512 424 512 412.5 488.5 c 128,-1,34
 401 465 401 465 393 434 c 2,35,-1
 357 261 l 2,36,37
 349 230 349 230 353 211 c 128,-1,38
 357 192 357 192 381 175 c 128,-1,39
 405 158 405 158 443 151 c 128,-1,40
 481 144 481 144 521.5 148.5 c 128,-1,41
 562 153 562 153 599.5 172 c 128,-1,42
 637 191 637 191 659 227 c 1,43,-1
 697 200 l 1,44,45
 668 157 668 157 619.5 133.5 c 128,-1,46
 571 110 571 110 519 102.5 c 128,-1,47
 467 95 467 95 418.5 102.5 c 128,-1,48
 370 110 370 110 339 131 c 0,49,50
 311 150 311 150 294 178.5 c 128,-1,51
 277 207 277 207 285 242 c 2,52,-1
 329 453 l 2,53,54
 336 489 336 489 366 519.5 c 128,-1,55
 396 550 396 550 433 569 c 0,56,57
 472 590 472 590 523.5 596.5 c 128,-1,58
 575 603 575 603 623.5 595 c 128,-1,59
 672 587 672 587 710 562.5 c 128,-1,60
 748 538 748 538 760 496 c 1,61,-1
 704 480 l 1,62,63
 697 511 697 511 669 528.5 c 128,-1,64
 641 546 641 546 604.5 552 c 128,-1,65
 568 558 568 558 527.5 552 c 128,-1,66
 487 546 487 546 456 530 c 0,32,33
EndSplineSet
EndChar
StartChar: ordfeminine
Encoding: 170 170 109
Width: 422
VWidth: 1467
Flags: W
HStem: 277.5 343<250 262 321 321.5 250 321.5 331.868 344.158>
Fore
401 464 m 1,0,1
 380 450 380 450 362.5 444.5 c 128,-1,2
 345 439 345 439 321 434 c 0,3,4
 292 428 292 428 267 424 c 128,-1,5
 242 420 242 420 223.5 412.5 c 128,-1,6
 205 405 205 405 193.5 393 c 128,-1,7
 182 381 182 381 178 361 c 0,8,9
 175 345 175 345 186.5 334 c 128,-1,10
 198 323 198 323 217 320 c 0,11,12
 249 315 249 315 276.5 319.5 c 128,-1,13
 304 324 304 324 324.5 333 c 128,-1,14
 345 342 345 342 359 352 c 128,-1,15
 373 362 373 362 380 368 c 1,16,-1
 380 371 l 1,17,-1
 399 462 l 1,18,-1
 401 464 l 1,0,1
396 280 m 1,19,20
 384 285 384 285 377 298 c 128,-1,21
 370 311 370 311 370 324 c 1,22,23
 361 317 361 317 342.5 307.5 c 128,-1,24
 324 298 324 298 300.5 290 c 128,-1,25
 277 282 277 282 250 277.5 c 128,-1,26
 223 273 223 273 197 279 c 0,27,28
 163 286 163 286 141 308 c 128,-1,29
 119 330 119 330 126 368 c 0,30,31
 132 399 132 399 153.5 417.5 c 128,-1,32
 175 436 175 436 204 447 c 128,-1,33
 233 458 233 458 267 464 c 128,-1,34
 301 470 301 470 332 477 c 0,35,36
 340 478 340 478 352.5 481 c 128,-1,37
 365 484 365 484 377 490 c 128,-1,38
 389 496 389 496 398.5 503.5 c 128,-1,39
 408 511 408 511 411 521 c 0,40,41
 414 534 414 534 406 547 c 128,-1,42
 398 560 398 560 383 571 c 0,43,44
 367 581 367 581 344 584 c 128,-1,45
 321 587 321 587 294.5 584 c 128,-1,46
 268 581 268 581 242 573 c 128,-1,47
 216 565 216 565 194 555 c 1,48,-1
 207 596 l 1,49,50
 232 607 232 607 262 613 c 128,-1,51
 292 619 292 619 321.5 620.5 c 128,-1,52
 351 622 351 622 377 617 c 128,-1,53
 403 612 403 612 423 602 c 0,54,55
 443 593 443 593 456.5 569.5 c 128,-1,56
 470 546 470 546 464 519 c 2,57,-1
 427 349 l 2,58,59
 424 335 424 335 424 323 c 128,-1,60
 424 311 424 311 439 299 c 1,61,62
 431 292 431 292 416.5 287.5 c 128,-1,63
 402 283 402 283 396 280 c 1,19,20
EndSplineSet
EndChar
StartChar: guillemotleft
Encoding: 171 171 110
Width: 660
VWidth: 1467
Flags: W
HStem: 67 364<362 368 362 362>
Fore
200 248 m 1,0,1
 214 242 214 242 237.5 223 c 128,-1,2
 261 204 261 204 286 178.5 c 128,-1,3
 311 153 311 153 333 123.5 c 128,-1,4
 355 94 355 94 368 67 c 1,5,-1
 288 67 l 1,6,7
 270 97 270 97 246.5 125.5 c 128,-1,8
 223 154 223 154 197.5 178 c 128,-1,9
 172 202 172 202 144.5 220 c 128,-1,10
 117 238 117 238 91 245 c 1,11,12
 151 270 151 270 225 317 c 128,-1,13
 299 364 299 364 362 431 c 1,14,-1
 446 431 l 1,15,16
 417 399 417 399 381 368 c 128,-1,17
 345 337 345 337 310.5 313 c 128,-1,18
 276 289 276 289 246.5 271.5 c 128,-1,19
 217 254 217 254 200 248 c 1,0,1
434 248 m 1,20,21
 449 242 449 242 472.5 223 c 128,-1,22
 496 204 496 204 521 178.5 c 128,-1,23
 546 153 546 153 568 123.5 c 128,-1,24
 590 94 590 94 603 67 c 1,25,-1
 522 67 l 1,26,27
 505 97 505 97 481.5 125.5 c 128,-1,28
 458 154 458 154 432 178 c 128,-1,29
 406 202 406 202 378.5 220 c 128,-1,30
 351 238 351 238 324 245 c 1,31,32
 386 270 386 270 460 317 c 128,-1,33
 534 364 534 364 597 431 c 1,34,-1
 681 431 l 1,35,36
 651 399 651 399 615.5 368 c 128,-1,37
 580 337 580 337 545.5 313 c 128,-1,38
 511 289 511 289 481.5 271.5 c 128,-1,39
 452 254 452 254 434 248 c 1,20,21
EndSplineSet
EndChar
StartChar: logicalnot
Encoding: 172 172 111
Width: 693
VWidth: 1467
Flags: W
HStem: 354 66<145 638>
Fore
591 134 m 1,0,-1
 638 354 l 1,1,-1
 132 354 l 1,2,-1
 145 420 l 1,3,-1
 717 420 l 1,4,-1
 657 134 l 1,5,-1
 591 134 l 1,0,-1
EndSplineSet
EndChar
StartChar: registered
Encoding: 174 174 112
Width: 710
VWidth: 1467
Flags: W
HStem: 202 51.5<324.19 461.351> 445 54<418 454.922> 587 39<494 501.758 501.758 510.938 510.938 514.5 528 531.882> 672 53<450.239 585.81>
Fore
216 540 m 0,0,1
 229 602 229 602 275 643 c 128,-1,2
 321 684 321 684 382 704.5 c 128,-1,3
 443 725 443 725 510 725 c 128,-1,4
 577 725 577 725 629 704.5 c 128,-1,5
 681 684 681 684 710 643 c 128,-1,6
 739 602 739 602 726 540 c 2,7,-1
 694 387 l 2,8,9
 681 326 681 326 634.5 285 c 128,-1,10
 588 244 588 244 528 223 c 128,-1,11
 468 202 468 202 402 202 c 128,-1,12
 336 202 336 202 284 223 c 128,-1,13
 232 244 232 244 202.5 285 c 128,-1,14
 173 326 173 326 185 387 c 0,15,16
 191 421 191 421 199.5 463.5 c 128,-1,17
 208 506 208 506 216 540 c 0,0,1
283 533 m 2,18,-1
 254 396 l 2,19,20
 244 351 244 351 264.5 319.5 c 128,-1,21
 285 288 285 288 323 271.5 c 128,-1,22
 361 255 361 255 409.5 253.5 c 128,-1,23
 458 252 458 252 502.5 267 c 128,-1,24
 547 282 547 282 581.5 312 c 128,-1,25
 616 342 616 342 626 387 c 2,26,-1
 657 534 l 2,27,28
 666 577 666 577 645.5 607.5 c 128,-1,29
 625 638 625 638 587 654.5 c 128,-1,30
 549 671 549 671 500.5 672 c 128,-1,31
 452 673 452 673 408 658.5 c 128,-1,32
 364 644 364 644 328.5 613 c 128,-1,33
 293 582 293 582 283 533 c 2,18,-1
506 465 m 1,34,35
 536 472 536 472 558.5 490 c 128,-1,36
 581 508 581 508 588 537 c 0,37,38
 594 565 594 565 586 582.5 c 128,-1,39
 578 600 578 600 562.5 610.5 c 128,-1,40
 547 621 547 621 528 623.5 c 128,-1,41
 509 626 509 626 494 626 c 2,42,-1
 395 626 l 1,43,-1
 329 313 l 1,44,-1
 374 313 l 1,45,-1
 402 445 l 1,46,-1
 418 445 l 2,47,48
 437 445 437 445 455.5 443.5 c 128,-1,49
 474 442 474 442 486.5 433.5 c 128,-1,50
 499 425 499 425 503.5 407.5 c 128,-1,51
 508 390 508 390 500 358 c 2,52,-1
 492 313 l 1,53,-1
 537 313 l 1,54,-1
 547 359 l 2,55,56
 553 392 553 392 552.5 410 c 128,-1,57
 552 428 552 428 545 439 c 128,-1,58
 538 450 538 450 528 455.5 c 128,-1,59
 518 461 518 461 506 465 c 1,34,35
433 587 m 1,60,-1
 489 587 l 2,61,62
 502 587 502 587 514.5 586 c 128,-1,63
 527 585 527 585 535.5 581 c 128,-1,64
 544 577 544 577 548 566.5 c 128,-1,65
 552 556 552 556 547 537 c 0,66,67
 540 512 540 512 518 507 c 128,-1,68
 496 502 496 502 467 499 c 2,69,-1
 414 499 l 1,70,71
 420 522 420 522 422 532.5 c 128,-1,72
 424 543 424 543 424.5 549.5 c 128,-1,73
 425 556 425 556 426.5 562.5 c 128,-1,74
 428 569 428 569 433 587 c 1,60,-1
EndSplineSet
EndChar
StartChar: macron
Encoding: 175 175 113
Width: 346
VWidth: 1467
Flags: W
HStem: 609 70<198 415 183 430 198 198>
Fore
183 609 m 1,0,-1
 198 679 l 1,1,-1
 430 679 l 1,2,-1
 415 609 l 1,3,-1
 183 609 l 1,0,-1
EndSplineSet
EndChar
StartChar: degree
Encoding: 176 176 114
Width: 321
VWidth: 1467
Flags: W
HStem: 483 39<231.071 295.671> 673 43<255.185 332.166>
VStem: 169 227<575 600 602 649 600 602 602 602>
Fore
169 602 m 0,0,1
 179 650 179 650 220 683 c 128,-1,2
 261 716 261 716 307 716 c 0,3,4
 351 716 351 716 379.5 682.5 c 128,-1,5
 408 649 408 649 396 600 c 0,6,7
 392 575 392 575 378 554 c 128,-1,8
 364 533 364 533 344 517.5 c 128,-1,9
 324 502 324 502 301.5 492.5 c 128,-1,10
 279 483 279 483 257 483 c 0,11,12
 208 483 208 483 183 519 c 128,-1,13
 158 555 158 555 169 602 c 0,0,1
229 602 m 0,14,15
 222 574 222 574 229 549 c 128,-1,16
 236 524 236 524 266 522 c 0,17,18
 291 522 291 522 310.5 547 c 128,-1,19
 330 572 330 572 337 602 c 0,20,21
 343 626 343 626 333.5 649 c 128,-1,22
 324 672 324 672 298 673 c 0,23,24
 273 672 273 672 253 649 c 128,-1,25
 233 626 233 626 229 602 c 0,14,15
EndSplineSet
EndChar
StartChar: plusminus
Encoding: 177 177 115
Width: 657
VWidth: 1467
Flags: W
HStem: 0 75<65 596> 327 76<135 349 439 662>
Fore
423 327 m 1,0,-1
 383 139 l 1,1,-1
 310 139 l 1,2,-1
 349 327 l 1,3,-1
 119 327 l 1,4,-1
 135 403 l 1,5,-1
 365 403 l 1,6,-1
 406 599 l 1,7,-1
 480 599 l 1,8,-1
 439 403 l 1,9,-1
 678 403 l 1,10,-1
 662 327 l 1,11,-1
 423 327 l 1,0,-1
51 0 m 1,12,-1
 65 75 l 1,13,-1
 609 75 l 1,14,-1
 596 0 l 1,15,-1
 51 0 l 1,12,-1
EndSplineSet
EndChar
StartChar: twosuperior
Encoding: 178 178 116
Width: 435
VWidth: 1467
Flags: W
HStem: 280 52<211.748 350.823 350.823 402.396 402.396 415> 659 48<336.404 404.195>
VStem: 116 377<280 613 419.823 471.396>
Fore
128 332 m 1,0,-1
 317 475 l 2,1,2
 345 499 345 499 364 518.5 c 128,-1,3
 383 538 383 538 399 555 c 0,4,5
 434 591 434 591 433.5 616 c 128,-1,6
 433 641 433 641 417 650 c 256,7,8
 401 659 401 659 383 659 c 128,-1,9
 365 659 365 659 355 659 c 0,10,11
 329 659 329 659 284 640.5 c 128,-1,12
 239 622 239 622 202 597 c 1,13,-1
 213 649 l 1,14,15
 260 681 260 681 300 694 c 128,-1,16
 340 707 340 707 370 707 c 0,17,18
 398 707 398 707 422 702 c 128,-1,19
 446 697 446 697 463.5 686 c 128,-1,20
 481 675 481 675 489 657.5 c 128,-1,21
 497 640 497 640 493 613 c 0,22,23
 492 604 492 604 488 592 c 128,-1,24
 484 580 484 580 474.5 564.5 c 128,-1,25
 465 549 465 549 449 530 c 128,-1,26
 433 511 433 511 406 486 c 0,27,28
 395 475 395 475 364 450 c 128,-1,29
 333 425 333 425 300 399 c 128,-1,30
 267 373 267 373 240 352.5 c 128,-1,31
 213 332 213 332 211 332 c 1,32,33
 235 333 235 333 250.5 333 c 0,34,-1
 313.5 333 l 0,35,36
 361 333 361 333 387.5 332.5 c 128,-1,37
 414 332 414 332 427 332 c 1,38,-1
 415 280 l 1,39,-1
 116 280 l 1,40,-1
 128 332 l 1,0,-1
EndSplineSet
EndChar
StartChar: threesuperior
Encoding: 179 179 117
Width: 407
VWidth: 1467
Flags: W
HStem: 283 424.5<220 232 350.5 351.5 220 351.5 351.5 351.5> 283 52<200.889 295.212> 659 47<277.639 327.696 327.696 342.348>
VStem: 126 335<301 621 300 301>
Fore
232 547 m 1,0,1
 255 547 255 547 260 549 c 2,2,3
 277 550 277 550 302 555 c 128,-1,4
 327 560 327 560 345 568 c 0,5,6
 376 580 376 580 388.5 598 c 128,-1,7
 401 616 401 616 386 635 c 0,8,9
 374 649 374 649 350.5 654 c 128,-1,10
 327 659 327 659 301 659 c 0,11,12
 273 657 273 657 251.5 651.5 c 128,-1,13
 230 646 230 646 204 638 c 1,14,-1
 217 690 l 1,15,16
 246 697 246 697 265.5 700.5 c 128,-1,17
 285 704 285 704 304 706 c 0,18,19
 326 709 326 709 351.5 707.5 c 128,-1,20
 377 706 377 706 393 700 c 0,21,22
 420 691 420 691 442 673.5 c 128,-1,23
 464 656 464 656 461 621 c 0,24,25
 456 574 456 574 415 549.5 c 128,-1,26
 374 525 374 525 318 515 c 1,27,-1
 318 514 l 1,28,29
 345 514 345 514 373.5 503.5 c 128,-1,30
 402 493 402 493 414 481 c 0,31,32
 440 452 440 452 434 414.5 c 128,-1,33
 428 377 428 377 399.5 345.5 c 128,-1,34
 371 314 371 314 324 295 c 128,-1,35
 277 276 277 276 220 283 c 0,36,37
 213 283 213 283 200.5 284 c 128,-1,38
 188 285 188 285 174 287 c 128,-1,39
 160 289 160 289 147 292.5 c 128,-1,40
 134 296 134 296 126 301 c 1,41,-1
 135 358 l 1,42,43
 160 348 160 348 181 342 c 128,-1,44
 202 336 202 336 235 335 c 0,45,46
 286 333 286 333 318.5 353.5 c 128,-1,47
 351 374 351 374 358 408 c 0,48,49
 362 433 362 433 352.5 447.5 c 128,-1,50
 343 462 343 462 323.5 468.5 c 128,-1,51
 304 475 304 475 276 476.5 c 128,-1,52
 248 478 248 478 216 477 c 1,53,-1
 232 547 l 1,0,1
EndSplineSet
EndChar
StartChar: acute
Encoding: 180 180 118
Width: 325
VWidth: 1467
Flags: W
HStem: 514 206<274 298 298 298>
Fore
274 514 m 1,0,-1
 210 514 l 1,1,-1
 298 720 l 1,2,-1
 392 720 l 1,3,-1
 274 514 l 1,0,-1
EndSplineSet
EndChar
StartChar: mu
Encoding: 181 181 119
AltUni2: 0003bc.ffffffff.0
Width: 699
VWidth: 1467
Flags: W
HStem: -10 66<304.37 399.058> 491 20G<209.767 301 610.797 703>
Fore
512 1 m 1,0,-1
 531 95 l 1,1,2
 515 76 515 76 494.5 58 c 128,-1,3
 474 40 474 40 449.5 24.5 c 128,-1,4
 425 9 425 9 396.5 -0.5 c 128,-1,5
 368 -10 368 -10 335 -10 c 0,6,7
 323 -10 323 -10 305.5 -8.5 c 128,-1,8
 288 -7 288 -7 270 1 c 128,-1,9
 252 9 252 9 235.5 23.5 c 128,-1,10
 219 38 219 38 207 65 c 1,11,-1
 138 -245 l 1,12,-1
 54 -245 l 1,13,-1
 214 511 l 1,14,-1
 301 511 l 1,15,-1
 249 264 l 2,16,17
 242 229 242 229 243 192.5 c 128,-1,18
 244 156 244 156 255.5 125 c 128,-1,19
 267 94 267 94 293.5 75 c 128,-1,20
 320 56 320 56 362 56 c 0,21,22
 395 56 395 56 426.5 69 c 128,-1,23
 458 82 458 82 484.5 105 c 128,-1,24
 511 128 511 128 528.5 156.5 c 128,-1,25
 546 185 546 185 553 216 c 2,26,-1
 615 511 l 1,27,-1
 703 511 l 1,28,-1
 622 126 l 2,29,30
 615 95 615 95 608.5 63.5 c 128,-1,31
 602 32 602 32 596 1 c 1,32,-1
 512 1 l 1,0,-1
EndSplineSet
EndChar
StartChar: paragraph
Encoding: 182 182 120
Width: 607
VWidth: 1467
Flags: W
HStem: 631 79<449 560>
Fore
654 710 m 1,0,-1
 493 -54 l 1,1,-1
 415 -54 l 1,2,-1
 560 631 l 1,3,-1
 449 631 l 1,4,-1
 304 -54 l 1,5,-1
 261 -54 l 1,6,-1
 227 -54 l 1,7,-1
 305 315 l 1,8,9
 268 301 268 301 234.5 301.5 c 128,-1,10
 201 302 201 302 176 318 c 0,11,12
 151 336 151 336 141 366 c 128,-1,13
 131 396 131 396 135 432 c 128,-1,14
 139 468 139 468 157.5 508.5 c 128,-1,15
 176 549 176 549 207 587 c 0,16,17
 254 649 254 649 312.5 680.5 c 128,-1,18
 371 712 371 712 423 709 c 1,19,-1
 423 710 l 1,20,-1
 654 710 l 1,0,-1
EndSplineSet
EndChar
StartChar: periodcentered
Encoding: 183 183 121
Width: 388
VWidth: 1467
Flags: W
HStem: 232 233<258.511 309.972>
VStem: 145 234<297.779 392.312 348 348 348 348>
Fore
379 348 m 256,0,1
 368 299 368 299 327 265.5 c 128,-1,2
 286 232 286 232 236 232 c 0,3,4
 189 232 189 232 161.5 265.5 c 128,-1,5
 134 299 134 299 145 348 c 0,6,7
 150 371 150 371 164 393 c 128,-1,8
 178 415 178 415 197 430.5 c 128,-1,9
 216 446 216 446 239.5 455.5 c 128,-1,10
 263 465 263 465 286 465 c 0,11,12
 336 465 336 465 362.5 430.5 c 128,-1,13
 389 396 389 396 379 348 c 256,0,1
EndSplineSet
EndChar
StartChar: cedilla
Encoding: 184 184 122
Width: 393
VWidth: 1467
Flags: W
HStem: -198.5 205.5<93.5 167 167 167>
VStem: 216 69<-120.309 -85.9275>
Fore
285 -87 m 0,0,1
 285 -103 285 -103 274.5 -120.5 c 128,-1,2
 264 -138 264 -138 246.5 -153.5 c 128,-1,3
 229 -169 229 -169 206 -180.5 c 128,-1,4
 183 -192 183 -192 157 -197 c 0,5,6
 125 -202 125 -202 93.5 -198.5 c 128,-1,7
 62 -195 62 -195 45 -186 c 1,8,-1
 59 -158 l 1,9,10
 72 -166 72 -166 100.5 -164.5 c 128,-1,11
 129 -163 129 -163 145 -158 c 0,12,13
 167 -153 167 -153 190 -138 c 128,-1,14
 213 -123 213 -123 216 -103 c 1,15,16
 216 -92 216 -92 208 -86.5 c 128,-1,17
 200 -81 200 -81 187.5 -79.5 c 128,-1,18
 175 -78 175 -78 161 -79.5 c 128,-1,19
 147 -81 147 -81 135 -82 c 1,20,21
 128 -85 128 -85 107.5 -89.5 c 128,-1,22
 87 -94 87 -94 78 -98 c 1,23,-1
 78 -97 l 1,24,-1
 78 -98 l 1,25,-1
 78 -97 l 1,26,-1
 81 -94 l 1,27,-1
 87 -89 l 1,28,-1
 167 7 l 1,29,-1
 241 7 l 1,30,-1
 188 -47 l 1,31,32
 202 -45 202 -45 219 -45 c 128,-1,33
 236 -45 236 -45 250 -49 c 128,-1,34
 264 -53 264 -53 273.5 -61.5 c 128,-1,35
 283 -70 283 -70 285 -87 c 0,0,1
EndSplineSet
EndChar
StartChar: onesuperior
Encoding: 185 185 123
Width: 272
VWidth: 1467
Flags: W
HStem: 280 411<238 273 273 273>
Fore
252 634 m 1,0,-1
 205 609 l 1,1,-1
 217 663 l 1,2,-1
 273 691 l 1,3,-1
 326 691 l 1,4,-1
 238 280 l 1,5,-1
 175 280 l 1,6,-1
 252 634 l 1,0,-1
EndSplineSet
EndChar
StartChar: ordmasculine
Encoding: 186 186 124
Width: 450
VWidth: 1467
Flags: W
HStem: 273 45<233.518 345.143> 587 41<289.925 398.766>
VStem: 123 386<399 503 365.369 385.03>
Fore
145 503 m 0,0,1
 154 544 154 544 187 572 c 128,-1,2
 220 600 220 600 263.5 614 c 128,-1,3
 307 628 307 628 354.5 628 c 128,-1,4
 402 628 402 628 439.5 614 c 128,-1,5
 477 600 477 600 497.5 573 c 128,-1,6
 518 546 518 546 509 503 c 2,7,-1
 487 399 l 2,8,9
 478 357 478 357 446 329.5 c 128,-1,10
 414 302 414 302 370.5 287.5 c 128,-1,11
 327 273 327 273 280 273 c 128,-1,12
 233 273 233 273 195.5 287 c 128,-1,13
 158 301 158 301 136 329.5 c 128,-1,14
 114 358 114 358 123 399 c 0,15,16
 128 421 128 421 134.5 450.5 c 128,-1,17
 141 480 141 480 145 503 c 0,0,1
205 487 m 0,18,19
 204 483 204 483 201 472.5 c 128,-1,20
 198 462 198 462 196 451 c 128,-1,21
 194 440 194 440 191 429 c 128,-1,22
 188 418 188 418 186 412 c 0,23,24
 179 381 179 381 193 360.5 c 128,-1,25
 207 340 207 340 231 329 c 128,-1,26
 255 318 255 318 286.5 318 c 128,-1,27
 318 318 318 318 347 328.5 c 128,-1,28
 376 339 376 339 398.5 359.5 c 128,-1,29
 421 380 421 380 427 412 c 0,30,31
 430 427 430 427 431.5 432 c 128,-1,32
 433 437 433 437 433.5 441.5 c 128,-1,33
 434 446 434 446 436.5 455 c 128,-1,34
 439 464 439 464 443 487 c 0,35,36
 450 521 450 521 437.5 543.5 c 128,-1,37
 425 566 425 566 401 576.5 c 128,-1,38
 377 587 377 587 346 587 c 128,-1,39
 315 587 315 587 286 575 c 128,-1,40
 257 563 257 563 235 541 c 128,-1,41
 213 519 213 519 205 487 c 0,18,19
EndSplineSet
EndChar
StartChar: guillemotright
Encoding: 187 187 125
Width: 607
VWidth: 1467
Flags: W
HStem: 84 363<348 355 348 348>
Fore
516 267 m 1,0,1
 502 273 502 273 478.5 292 c 128,-1,2
 455 311 455 311 430 336.5 c 128,-1,3
 405 362 405 362 383 391.5 c 128,-1,4
 361 421 361 421 348 447 c 1,5,-1
 428 447 l 1,6,7
 446 418 446 418 469.5 389.5 c 128,-1,8
 493 361 493 361 519.5 337 c 128,-1,9
 546 313 546 313 574 295 c 128,-1,10
 602 277 602 277 628 270 c 1,11,12
 566 245 566 245 492 198 c 128,-1,13
 418 151 418 151 355 84 c 1,14,-1
 271 84 l 1,15,16
 301 116 301 116 337 147 c 128,-1,17
 373 178 373 178 407.5 202 c 128,-1,18
 442 226 442 226 471 243.5 c 128,-1,19
 500 261 500 261 516 267 c 1,0,1
282 267 m 1,20,21
 267 273 267 273 244.5 292 c 128,-1,22
 222 311 222 311 197 336.5 c 128,-1,23
 172 362 172 362 150 391.5 c 128,-1,24
 128 421 128 421 114 447 c 1,25,-1
 194 447 l 1,26,27
 211 418 211 418 234.5 389.5 c 128,-1,28
 258 361 258 361 284.5 337 c 128,-1,29
 311 313 311 313 339 295 c 128,-1,30
 367 277 367 277 393 270 c 1,31,32
 332 245 332 245 257.5 198 c 128,-1,33
 183 151 183 151 120 84 c 1,34,-1
 37 84 l 1,35,36
 66 116 66 116 102 147 c 128,-1,37
 138 178 138 178 172.5 202 c 128,-1,38
 207 226 207 226 236.5 243.5 c 128,-1,39
 266 261 266 261 282 267 c 1,20,21
EndSplineSet
EndChar
StartChar: onequarter
Encoding: 188 188 126
Width: 883
VWidth: 1467
Flags: W
HStem: -6 21G<132 214.236> 92 61<552 688 763 798> 681 20G<260.429 354 692.792 776>
VStem: 725 1<354.484 356.938>
Fore
725 352 m 1,0,1
 726 354 726 354 726 354.5 c 128,-1,2
 726 355 726 355 728 357 c 1,3,-1
 728 359 l 1,4,5
 725 357 725 357 725 352 c 1,0,1
729 358 m 1,6,-1
 728 357 l 1,7,-1
 729 357 l 1,8,-1
 729 358 l 1,6,-1
280 644 m 1,9,-1
 233 619 l 1,10,-1
 245 673 l 1,11,-1
 299 701 l 1,12,-1
 354 701 l 1,13,-1
 267 291 l 1,14,-1
 204 291 l 1,15,-1
 280 644 l 1,9,-1
811 153 m 1,16,-1
 798 92 l 1,17,-1
 750 92 l 1,18,19
 748 85 748 85 743.5 64.5 c 128,-1,20
 739 44 739 44 732 7 c 1,21,-1
 671 7 l 1,22,23
 676 40 676 40 678.5 52.5 c 128,-1,24
 681 65 681 65 681.5 68.5 c 128,-1,25
 682 72 682 72 683 75 c 128,-1,26
 684 78 684 78 688 92 c 1,27,-1
 470 92 l 1,28,-1
 480 144 l 1,29,30
 546 219 546 219 607.5 289 c 128,-1,31
 669 359 669 359 717 418 c 1,32,-1
 820 418 l 1,33,34
 813 384 813 384 804 345.5 c 128,-1,35
 795 307 795 307 787 269.5 c 128,-1,36
 779 232 779 232 772.5 201 c 128,-1,37
 766 170 766 170 763 153 c 1,38,-1
 811 153 l 1,16,-1
701 153 m 1,39,40
 712 208 712 208 726.5 270.5 c 128,-1,41
 741 333 741 333 751 384 c 1,42,-1
 552 153 l 1,43,-1
 701 153 l 1,39,40
776 706 m 1,44,-1
 198 -6 l 1,45,-1
 132 -6 l 1,46,-1
 709 706 l 1,47,-1
 776 706 l 1,44,-1
EndSplineSet
Ligature2: "'frac' Diagonal Fractions in Latin lookup 0 subtable" one fraction four
Ligature2: "'frac' Diagonal Fractions in Latin lookup 0 subtable" one slash four
EndChar
StartChar: onehalf
Encoding: 189 189 127
Width: 883
VWidth: 1467
Flags: W
HStem: -15 21G<114 196.264> 19 53<587 775 775 788> 399 48<708.903 776.271> 677 20G<674.792 759>
VStem: 224 109<605.911 639.839 639.839 662>
Fore
587 72 m 1,0,1
 610 72 610 72 641.5 72 c 128,-1,2
 673 72 673 72 704 72 c 128,-1,3
 735 72 735 72 760.5 72 c 128,-1,4
 786 72 786 72 800 72 c 1,5,-1
 788 21 l 1,6,-1
 775 21 l 1,7,-1
 775 19 l 1,8,-1
 503 19 l 1,9,-1
 503 21 l 1,10,-1
 487 21 l 1,11,-1
 499 72 l 1,12,-1
 691 216 l 2,13,14
 717 238 717 238 736.5 257.5 c 128,-1,15
 756 277 756 277 772 295 c 0,16,17
 807 332 807 332 806 356.5 c 128,-1,18
 805 381 805 381 789 390 c 256,19,20
 773 399 773 399 755.5 399 c 128,-1,21
 738 399 738 399 728 399 c 0,22,23
 710 399 710 399 682 389.5 c 128,-1,24
 654 380 654 380 625 365 c 0,25,26
 618 361 618 361 609 356 c 128,-1,27
 600 351 600 351 591 345 c 1,28,-1
 593 348 l 1,29,30
 587 345 587 345 582.5 342.5 c 128,-1,31
 578 340 578 340 574 337 c 1,32,-1
 585 389 l 1,33,34
 631 421 631 421 672 434 c 128,-1,35
 713 447 713 447 742 447 c 0,36,37
 770 447 770 447 794.5 442 c 128,-1,38
 819 437 819 437 836.5 426 c 128,-1,39
 854 415 854 415 863 397.5 c 128,-1,40
 872 380 872 380 867 354 c 0,41,42
 866 345 866 345 862 332.5 c 128,-1,43
 858 320 858 320 848.5 304.5 c 128,-1,44
 839 289 839 289 822 270 c 128,-1,45
 805 251 805 251 779 226 c 0,46,47
 770 217 770 217 749.5 200 c 128,-1,48
 729 183 729 183 703.5 162.5 c 128,-1,49
 678 142 678 142 652 122.5 c 128,-1,50
 626 103 626 103 607 89 c 1,51,52
 602 84 602 84 597.5 79.5 c 128,-1,53
 593 75 593 75 587 72 c 1,0,1
261 632 m 1,54,-1
 213 607 l 1,55,-1
 224 662 l 1,56,-1
 280 690 l 1,57,-1
 333 690 l 1,58,-1
 246 279 l 1,59,-1
 183 279 l 1,60,-1
 261 632 l 1,54,-1
759 697 m 1,61,-1
 180 -15 l 1,62,-1
 114 -15 l 1,63,-1
 691 697 l 1,64,-1
 759 697 l 1,61,-1
EndSplineSet
Ligature2: "'frac' Diagonal Fractions in Latin lookup 0 subtable" one fraction two
Ligature2: "'frac' Diagonal Fractions in Latin lookup 0 subtable" one slash two
EndChar
StartChar: threequarters
Encoding: 190 190 128
Width: 883
VWidth: 1467
Flags: W
HStem: -12 21G<217 299.236> 92 61<568 704 779 814> 276 51<220.342 312.93> 651 47<289.03 345.181 345.181 361.348>
Fore
431 474 m 0,0,1
 458 445 458 445 451.5 407.5 c 128,-1,2
 445 370 445 370 416 338.5 c 128,-1,3
 387 307 387 307 340 287.5 c 128,-1,4
 293 268 293 268 238 276 c 0,5,6
 230 276 230 276 218.5 276.5 c 128,-1,7
 207 277 207 277 193 279.5 c 128,-1,8
 179 282 179 282 166 285.5 c 128,-1,9
 153 289 153 289 144 293 c 1,10,-1
 153 351 l 1,11,12
 178 340 178 340 200 334.5 c 128,-1,13
 222 329 222 329 254 327 c 0,14,15
 305 326 305 326 337.5 346.5 c 128,-1,16
 370 367 370 367 377 401 c 0,17,18
 381 425 381 425 371.5 440 c 128,-1,19
 362 455 362 455 342.5 461.5 c 128,-1,20
 323 468 323 468 295 469.5 c 128,-1,21
 267 471 267 471 235 470 c 1,22,-1
 249 540 l 1,23,24
 274 540 274 540 279 541 c 2,25,26
 296 543 296 543 320.5 548 c 128,-1,27
 345 553 345 553 364 560 c 0,28,29
 393 572 393 572 406.5 590.5 c 128,-1,30
 420 609 420 609 403 628 c 0,31,32
 393 641 393 641 369.5 646 c 128,-1,33
 346 651 346 651 320 651 c 0,34,35
 291 650 291 650 270 644 c 128,-1,36
 249 638 249 638 223 631 c 1,37,-1
 236 682 l 1,38,39
 266 690 266 690 283.5 693.5 c 128,-1,40
 301 697 301 697 321 698 c 0,41,42
 343 701 343 701 369.5 699.5 c 128,-1,43
 396 698 396 698 412 693 c 0,44,45
 437 684 437 684 460 666.5 c 128,-1,46
 483 649 483 649 480 613 c 0,47,48
 475 566 475 566 434 542 c 128,-1,49
 393 518 393 518 337 508 c 1,50,-1
 337 506 l 1,51,52
 364 506 364 506 392 496 c 128,-1,53
 420 486 420 486 431 474 c 0,0,1
828 153 m 1,54,-1
 814 92 l 1,55,-1
 766 92 l 1,56,57
 764 85 764 85 760 64.5 c 128,-1,58
 756 44 756 44 748 7 c 1,59,-1
 687 7 l 1,60,61
 693 40 693 40 695 52.5 c 128,-1,62
 697 65 697 65 697.5 68.5 c 128,-1,63
 698 72 698 72 699 75 c 128,-1,64
 700 78 700 78 704 92 c 1,65,-1
 486 92 l 1,66,-1
 496 144 l 1,67,68
 562 219 562 219 623.5 289 c 128,-1,69
 685 359 685 359 734 418 c 1,70,-1
 836 418 l 1,71,72
 829 384 829 384 820 345.5 c 128,-1,73
 811 307 811 307 803 269.5 c 128,-1,74
 795 232 795 232 788.5 201 c 128,-1,75
 782 170 782 170 779 153 c 1,76,-1
 828 153 l 1,54,-1
717 153 m 1,77,78
 728 208 728 208 742.5 270.5 c 128,-1,79
 757 333 757 333 767 384 c 1,80,-1
 568 153 l 1,81,-1
 717 153 l 1,77,78
861 700 m 1,82,-1
 283 -12 l 1,83,-1
 217 -12 l 1,84,-1
 794 700 l 1,85,-1
 861 700 l 1,82,-1
EndSplineSet
Ligature2: "'frac' Diagonal Fractions in Latin lookup 0 subtable" three fraction four
Ligature2: "'frac' Diagonal Fractions in Latin lookup 0 subtable" three slash four
EndChar
StartChar: questiondown
Encoding: 191 191 129
Width: 616
VWidth: 1467
Flags: W
VStem: 77.5 440.5<-56 -41 -8.5 -3 -37.5 -29.5 -37.5 -37.5> 357 97<403.276 469.201 469.201 490.529>
Fore
307 -34 m 0,0,1
 318 -10 318 -10 336 11 c 128,-1,2
 354 32 354 32 376 48.5 c 128,-1,3
 398 65 398 65 421.5 73 c 128,-1,4
 445 81 445 81 468 76 c 0,5,6
 487 73 487 73 499.5 57 c 128,-1,7
 512 41 512 41 516.5 19 c 128,-1,8
 521 -3 521 -3 518 -29.5 c 128,-1,9
 515 -56 515 -56 505 -79 c 0,10,11
 497 -97 497 -97 492 -108 c 128,-1,12
 487 -119 487 -119 477 -131 c 0,13,14
 443 -169 443 -169 408 -190 c 128,-1,15
 373 -211 373 -211 315 -224 c 0,16,17
 236 -238 236 -238 178 -214.5 c 128,-1,18
 120 -191 120 -191 93.5 -144.5 c 128,-1,19
 67 -98 67 -98 77.5 -37.5 c 128,-1,20
 88 23 88 23 145 82 c 0,21,22
 163 100 163 100 183.5 114 c 128,-1,23
 204 128 204 128 225 142.5 c 128,-1,24
 246 157 246 157 264.5 173 c 128,-1,25
 283 189 283 189 295 210 c 0,26,27
 308 232 308 232 315.5 251.5 c 128,-1,28
 323 271 323 271 327 286 c 0,29,30
 332 302 332 302 333 317 c 1,31,-1
 421 318 l 1,32,33
 421 304 421 304 417 286 c 0,34,35
 414 270 414 270 404.5 248 c 128,-1,36
 395 226 395 226 379 197 c 0,37,38
 364 173 364 173 340.5 152 c 128,-1,39
 317 131 317 131 292 113 c 0,40,41
 264 92 264 92 233 75 c 1,42,43
 180 32 180 32 162.5 -12.5 c 128,-1,44
 145 -57 145 -57 153 -94.5 c 128,-1,45
 161 -132 161 -132 191.5 -156 c 128,-1,46
 222 -180 222 -180 264 -180 c 0,47,48
 277 -180 277 -180 300 -178 c 128,-1,49
 323 -176 323 -176 340 -167 c 1,50,51
 326 -161 326 -161 314 -151.5 c 128,-1,52
 302 -142 302 -142 296.5 -127 c 128,-1,53
 291 -112 291 -112 293 -89.5 c 128,-1,54
 295 -67 295 -67 307 -34 c 0,0,1
446 -69 m 0,55,56
 452 -56 452 -56 456.5 -39.5 c 128,-1,57
 461 -23 461 -23 462.5 -8.5 c 128,-1,58
 464 6 464 6 460 16 c 128,-1,59
 456 26 456 26 447 29 c 1,60,61
 439 31 439 31 427 25 c 128,-1,62
 415 19 415 19 403.5 9 c 128,-1,63
 392 -1 392 -1 382.5 -14.5 c 128,-1,64
 373 -28 373 -28 367 -41 c 0,65,66
 352 -67 352 -67 350 -95 c 128,-1,67
 348 -123 348 -123 368 -131 c 0,68,69
 389 -136 389 -136 411 -115 c 128,-1,70
 433 -94 433 -94 446 -69 c 0,55,56
390 383 m 1,71,72
 368 380 368 380 357 399 c 128,-1,73
 346 418 346 418 352 447 c 0,74,75
 359 475 359 475 377.5 495 c 128,-1,76
 396 515 396 515 418 515 c 0,77,78
 443 515 443 515 454 495 c 128,-1,79
 465 475 465 475 458 447 c 0,80,81
 452 418 452 418 432 399 c 128,-1,82
 412 380 412 380 390 383 c 1,71,72
EndSplineSet
EndChar
StartChar: Aring
Encoding: 197 197 134
Width: 764
VWidth: 1467
Flags: W
HStem: 0 21G<91 176.1 598.578 675> 211 59<292 584>
VStem: 585 72<161.767 211>
Fore
646 562 m 0,0,1
 651 420 651 420 657 280.5 c 128,-1,2
 663 141 663 141 675 0 c 1,3,-1
 600 0 l 1,4,-1
 585 211 l 1,5,-1
 263 211 l 1,6,-1
 167 0 l 1,7,-1
 91 0 l 1,8,-1
 335 533 l 2,9,10
 365 591 365 591 396.5 638 c 128,-1,11
 428 685 428 685 481 701 c 1,12,13
 453 716 453 716 440.5 745.5 c 128,-1,14
 428 775 428 775 436 810 c 0,15,16
 447 858 447 858 487.5 891 c 128,-1,17
 528 924 528 924 575 924 c 0,18,19
 597 924 597 924 616 915.5 c 128,-1,20
 635 907 635 907 648.5 890.5 c 128,-1,21
 662 874 662 874 667 853 c 128,-1,22
 672 832 672 832 666 808 c 0,23,24
 659 772 659 772 631.5 742.5 c 128,-1,25
 604 713 604 713 571 700 c 1,26,27
 593 693 593 693 607 678 c 128,-1,28
 621 663 621 663 629 644.5 c 128,-1,29
 637 626 637 626 640.5 605 c 128,-1,30
 644 584 644 584 646 562 c 0,0,1
566 882 m 0,31,32
 540 880 540 880 521 857.5 c 128,-1,33
 502 835 502 835 497 810 c 0,34,35
 492 782 492 782 500 757 c 128,-1,36
 508 732 508 732 534 731 c 0,37,38
 560 731 560 731 579.5 756 c 128,-1,39
 599 781 599 781 606 810 c 0,40,41
 613 835 613 835 603 857.5 c 128,-1,42
 593 880 593 880 566 882 c 0,31,32
584 270 m 1,43,-1
 572 508 l 2,44,45
 568 536 568 536 565.5 558 c 128,-1,46
 563 580 563 580 558 599 c 0,47,48
 553 624 553 624 540 635.5 c 128,-1,49
 527 647 527 647 511.5 646.5 c 128,-1,50
 496 646 496 646 480 634 c 128,-1,51
 464 622 464 622 452 602 c 0,52,53
 443 587 443 587 437 576 c 128,-1,54
 431 565 431 565 426 554.5 c 128,-1,55
 421 544 421 544 416 533 c 128,-1,56
 411 522 411 522 403 508 c 2,57,-1
 292 270 l 1,58,-1
 584 270 l 1,43,-1
EndSplineSet
EndChar
StartChar: AE
Encoding: 198 198 135
Width: 1113
VWidth: 1467
Flags: W
HStem: 1 77<809.955 1043> 230 69<320 599> 314 69<728 998> 644 76<913.18 1180>
Fore
977 644 m 2,0,1
 939 644 939 644 904.5 639.5 c 128,-1,2
 870 635 870 635 840.5 621 c 128,-1,3
 811 607 811 607 788.5 578.5 c 128,-1,4
 766 550 766 550 751 500 c 2,5,-1
 728 383 l 1,6,-1
 1012 383 l 1,7,-1
 998 314 l 1,8,-1
 713 314 l 1,9,-1
 700 254 l 2,10,11
 685 201 685 201 691.5 167.5 c 128,-1,12
 698 134 698 134 721 114.5 c 128,-1,13
 744 95 744 95 779 87 c 128,-1,14
 814 79 814 79 857 78 c 2,15,-1
 1059 78 l 1,16,-1
 1043 1 l 1,17,-1
 844 1 l 2,18,19
 775 3 775 3 721.5 17 c 128,-1,20
 668 31 668 31 643 79 c 1,21,-1
 626 1 l 1,22,-1
 550 1 l 1,23,-1
 599 230 l 1,24,-1
 268 230 l 1,25,-1
 101 1 l 1,26,-1
 18 1 l 1,27,-1
 411 546 l 2,28,29
 434 580 434 580 459 612 c 128,-1,30
 484 644 484 644 513.5 669.5 c 128,-1,31
 543 695 543 695 577.5 710.5 c 128,-1,32
 612 726 612 726 651 726 c 0,33,34
 694 726 694 726 724 699 c 128,-1,35
 754 672 754 672 754 638 c 1,36,37
 798 687 798 687 862.5 703 c 128,-1,38
 927 719 927 719 996 720 c 2,39,-1
 1196 720 l 1,40,-1
 1180 644 l 1,41,-1
 977 644 l 2,0,1
662 521 m 2,42,43
 665 537 665 537 667 546.5 c 128,-1,44
 669 556 669 556 671 565 c 128,-1,45
 673 574 673 574 674.5 583.5 c 128,-1,46
 676 593 676 593 676 607 c 0,47,48
 678 634 678 634 663.5 645 c 128,-1,49
 649 656 649 656 626 654.5 c 128,-1,50
 603 653 603 653 577.5 640.5 c 128,-1,51
 552 628 552 628 534 606 c 0,52,53
 522 591 522 591 515 582.5 c 128,-1,54
 508 574 508 574 502.5 565 c 128,-1,55
 497 556 497 556 490.5 546 c 128,-1,56
 484 536 484 536 472 521 c 2,57,-1
 320 299 l 1,58,-1
 615 301 l 1,59,-1
 662 521 l 2,42,43
EndSplineSet
EndChar
StartChar: Eth
Encoding: 208 208 145
Width: 782
VWidth: 1467
Flags: W
HStem: -9 66<197 308.118> 308 69<79 163 264 456> 643 63.5<321 498.71>
Fore
249 709 m 1,0,1
 318 709 318 709 385.5 706.5 c 128,-1,2
 453 704 453 704 513.5 694 c 128,-1,3
 574 684 574 684 623.5 661 c 128,-1,4
 673 638 673 638 705 598.5 c 128,-1,5
 737 559 737 559 747 498 c 128,-1,6
 757 437 757 437 739 351 c 0,7,8
 717 254 717 254 678.5 189.5 c 128,-1,9
 640 125 640 125 588.5 85 c 128,-1,10
 537 45 537 45 476 25.5 c 128,-1,11
 415 6 415 6 350.5 -1.5 c 128,-1,12
 286 -9 286 -9 221 -9 c 128,-1,13
 156 -9 156 -9 95 -9 c 1,14,-1
 163 308 l 1,15,-1
 65 308 l 1,16,-1
 79 377 l 1,17,-1
 178 377 l 1,18,-1
 249 709 l 1,0,1
197 57 m 1,19,20
 310 53 310 53 387.5 67 c 128,-1,21
 465 81 465 81 517 116 c 128,-1,22
 569 151 569 151 600 209 c 128,-1,23
 631 267 631 267 651 351 c 256,24,25
 672 434 672 434 663 491.5 c 128,-1,26
 654 549 654 549 614 582.5 c 128,-1,27
 574 616 574 616 501 630 c 128,-1,28
 428 644 428 644 321 643 c 1,29,-1
 264 377 l 1,30,-1
 471 377 l 1,31,-1
 456 308 l 1,32,-1
 249 308 l 1,33,-1
 197 57 l 1,19,20
EndSplineSet
EndChar
StartChar: multiply
Encoding: 215 215 152
Width: 660
VWidth: 1467
Flags: W
HStem: -6 21G<67.5714 119 522.088 578.714>
Fore
537 -6 m 1,0,-1
 367 222 l 1,1,2
 327 188 327 188 292.5 159.5 c 128,-1,3
 258 131 258 131 226.5 105 c 128,-1,4
 195 79 195 79 165 53.5 c 128,-1,5
 135 28 135 28 103 0 c 1,6,-1
 41 35 l 1,7,-1
 327 271 l 1,8,-1
 145 521 l 1,9,-1
 219 556 l 1,10,-1
 393 315 l 1,11,-1
 678 553 l 1,12,-1
 728 514 l 1,13,-1
 428 267 l 1,14,-1
 610 29 l 1,15,-1
 537 -6 l 1,0,-1
EndSplineSet
EndChar
StartChar: Oslash
Encoding: 216 216 153
Width: 752
VWidth: 1467
Flags: W
HStem: -9.5 60<286.657 300 332 336.458 336.458 357.485 346.971 451.328> 649 63<469.69 564.895>
Fore
706 662 m 1,0,1
 739 640 739 640 755.5 606 c 128,-1,2
 772 572 772 572 761 528 c 2,3,-1
 685 167 l 2,4,5
 676 123 676 123 644.5 89.5 c 128,-1,6
 613 56 613 56 568.5 33 c 128,-1,7
 524 10 524 10 470.5 -1.5 c 128,-1,8
 417 -13 417 -13 362 -15 c 0,9,10
 329 -15 329 -15 300 -9.5 c 128,-1,11
 271 -4 271 -4 246 4 c 1,12,-1
 217 -37 l 1,13,-1
 128 -37 l 1,14,-1
 182 41 l 1,15,16
 151 66 151 66 139.5 99 c 128,-1,17
 128 132 128 132 135 167 c 2,18,-1
 213 528 l 2,19,20
 223 577 223 577 258 613 c 128,-1,21
 293 649 293 649 341.5 671.5 c 128,-1,22
 390 694 390 694 444.5 704.5 c 128,-1,23
 499 715 499 715 547 712 c 0,24,25
 572 709 572 709 595.5 705 c 128,-1,26
 619 701 619 701 640 694 c 1,27,-1
 665 729 l 1,28,-1
 753 729 l 1,29,-1
 706 662 l 1,0,1
223 186 m 2,30,31
 214 139 214 139 229 109 c 1,32,-1
 602 638 l 1,33,34
 562 649 562 649 511 649 c 0,35,36
 475 649 475 649 440 642 c 128,-1,37
 405 635 405 635 375 619 c 128,-1,38
 345 603 345 603 323 576.5 c 128,-1,39
 301 550 301 550 292 509 c 2,40,-1
 223 186 l 2,30,31
672 509 m 2,41,42
 679 538 679 538 675.5 559.5 c 128,-1,43
 672 581 672 581 660 597 c 1,44,-1
 286 62 l 1,45,46
 307 54 307 54 332 50.5 c 128,-1,47
 357 47 357 47 383 47 c 0,48,49
 418 47 418 47 454 53.5 c 128,-1,50
 490 60 490 60 520 75.5 c 128,-1,51
 550 91 550 91 572 118 c 128,-1,52
 594 145 594 145 603 186 c 2,53,-1
 672 509 l 2,41,42
EndSplineSet
EndChar
StartChar: Thorn
Encoding: 222 222 159
Width: 701
VWidth: 1467
Flags: W
HStem: 100 58.5<290.626 318.5 334.5 360.439 360.439 365.466 365.466 477.352> 681 20G<244.712 326>
VStem: 609.5 86<372.929 408 408 475.061>
Fore
477 613 m 0,0,1
 552 612 552 612 599 587.5 c 128,-1,2
 646 563 646 563 670 523 c 128,-1,3
 694 483 694 483 695.5 431 c 128,-1,4
 697 379 697 379 682 323 c 0,5,6
 671 279 671 279 643 237 c 128,-1,7
 615 195 615 195 575.5 163.5 c 128,-1,8
 536 132 536 132 487.5 113 c 128,-1,9
 439 94 439 94 389 94 c 0,10,11
 346 94 346 94 318.5 100 c 128,-1,12
 291 106 291 106 271.5 114.5 c 128,-1,13
 252 123 252 123 238 134 c 128,-1,14
 224 145 224 145 210 157 c 1,15,-1
 178 6 l 1,16,-1
 100 6 l 1,17,-1
 249 701 l 1,18,-1
 326 701 l 1,19,-1
 293 546 l 1,20,21
 310 565 310 565 337 578 c 128,-1,22
 364 591 364 591 391 599 c 128,-1,23
 418 607 418 607 442.5 611 c 128,-1,24
 467 615 467 615 477 613 c 0,0,1
597 327 m 0,25,26
 610 370 610 370 609.5 408 c 128,-1,27
 609 446 609 446 593.5 476 c 128,-1,28
 578 506 578 506 546.5 526.5 c 128,-1,29
 515 547 515 547 467 553 c 0,30,31
 449 555 449 555 425 549 c 128,-1,32
 401 543 401 543 373.5 531 c 128,-1,33
 346 519 346 519 319.5 501 c 128,-1,34
 293 483 293 483 274 459 c 1,35,-1
 226 229 l 1,36,37
 239 213 239 213 254.5 199 c 128,-1,38
 270 185 270 185 290 174.5 c 128,-1,39
 310 164 310 164 334.5 158.5 c 128,-1,40
 359 153 359 153 392 154 c 0,41,42
 467 157 467 157 520.5 204.5 c 128,-1,43
 574 252 574 252 597 327 c 0,25,26
EndSplineSet
EndChar
StartChar: uni00DF
Encoding: 223 223 160
Width: 793
VWidth: 1467
Flags: W
HStem: -125 59<-12 55.4619> -3 68<311 441.252 441.252 460.674 460.674 494 497.5 547.444> 376 92<434 471.5 471.5 489> 643 66<358.738 613.186>
Fore
550 424 m 1,0,1
 575 418 575 418 612.5 409.5 c 128,-1,2
 650 401 650 401 681.5 379 c 128,-1,3
 713 357 713 357 730.5 317 c 128,-1,4
 748 277 748 277 735 210 c 0,5,6
 719 136 719 136 679.5 94.5 c 128,-1,7
 640 53 640 53 591.5 31 c 128,-1,8
 543 9 543 9 494 3 c 128,-1,9
 445 -3 445 -3 411 -3 c 2,10,-1
 296 -3 l 1,11,-1
 311 65 l 1,12,-1
 436 65 l 2,13,14
 465 65 465 65 497.5 70.5 c 128,-1,15
 530 76 530 76 559 92.5 c 128,-1,16
 588 109 588 109 611.5 138 c 128,-1,17
 635 167 635 167 646 214 c 0,18,19
 654 258 654 258 641.5 288 c 128,-1,20
 629 318 629 318 604.5 336.5 c 128,-1,21
 580 355 580 355 548 364 c 128,-1,22
 516 373 516 373 489 376 c 2,23,-1
 415 376 l 1,24,-1
 434 468 l 1,25,-1
 509 472 l 2,26,27
 531 472 531 472 553 479 c 128,-1,28
 575 486 575 486 594 498.5 c 128,-1,29
 613 511 613 511 627 527 c 128,-1,30
 641 543 641 543 646 563 c 0,31,32
 657 609 657 609 630.5 626.5 c 128,-1,33
 604 644 604 644 559 643 c 2,34,-1
 443 643 l 2,35,36
 387 644 387 644 356.5 620 c 128,-1,37
 326 596 326 596 311 524 c 0,38,39
 298 458 298 458 283 387.5 c 128,-1,40
 268 317 268 317 255 255.5 c 128,-1,41
 242 194 242 194 232.5 147.5 c 128,-1,42
 223 101 223 101 220 84 c 0,43,44
 210 23 210 23 194 -17 c 128,-1,45
 178 -57 178 -57 151.5 -81.5 c 128,-1,46
 125 -106 125 -106 88 -115.5 c 128,-1,47
 51 -125 51 -125 -1 -125 c 2,48,-1
 -25 -125 l 1,49,-1
 -12 -66 l 1,50,-1
 10 -66 l 2,51,52
 54 -66 54 -66 77 -53 c 128,-1,53
 100 -40 100 -40 110 -19.5 c 128,-1,54
 120 1 120 1 123 27 c 128,-1,55
 126 53 126 53 131 81 c 2,56,-1
 224 528 l 1,57,58
 229 540 229 540 238.5 569.5 c 128,-1,59
 248 599 248 599 270 629.5 c 128,-1,60
 292 660 292 660 327 684.5 c 128,-1,61
 362 709 362 709 417 709 c 2,62,-1
 574 709 l 2,63,64
 606 709 606 709 638.5 703 c 128,-1,65
 671 697 671 697 695 681.5 c 128,-1,66
 719 666 719 666 730.5 638 c 128,-1,67
 742 610 742 610 734 566 c 0,68,69
 726 528 726 528 705.5 504 c 128,-1,70
 685 480 685 480 658.5 464.5 c 128,-1,71
 632 449 632 449 603.5 439.5 c 128,-1,72
 575 430 575 430 550 424 c 1,0,1
EndSplineSet
EndChar
StartChar: ae
Encoding: 230 230 167
Width: 999
VWidth: 1467
Flags: W
HStem: 220 54<578 788.942 788.942 855.525> 459.5 50.5<751.235 832.987>
VStem: 933 66<305.956 346 346 375.163>
Fore
590 67 m 0,0,1
 616 50 616 50 658 43.5 c 128,-1,2
 700 37 700 37 744.5 42 c 128,-1,3
 789 47 789 47 830.5 67.5 c 128,-1,4
 872 88 872 88 895 126 c 1,5,-1
 942 95 l 1,6,7
 908 47 908 47 853 21.5 c 128,-1,8
 798 -4 798 -4 738 -11 c 128,-1,9
 678 -18 678 -18 623 -7.5 c 128,-1,10
 568 3 568 3 534 25 c 0,11,12
 533 26 533 26 527 31.5 c 128,-1,13
 521 37 521 37 513.5 44 c 128,-1,14
 506 51 506 51 499.5 59 c 128,-1,15
 493 67 493 67 492 75 c 1,16,17
 493 76 493 76 488.5 71 c 128,-1,18
 484 66 484 66 470 54 c 0,19,20
 450 38 450 38 422.5 22.5 c 128,-1,21
 395 7 395 7 361 -2.5 c 128,-1,22
 327 -12 327 -12 288 -15 c 128,-1,23
 249 -18 249 -18 208 -9 c 0,24,25
 182 -3 182 -3 158 8 c 128,-1,26
 134 19 134 19 117 36 c 128,-1,27
 100 53 100 53 92 75.5 c 128,-1,28
 84 98 84 98 89 128 c 0,29,30
 100 178 100 178 130.5 206.5 c 128,-1,31
 161 235 161 235 202.5 251 c 128,-1,32
 244 267 244 267 290 275 c 128,-1,33
 336 283 336 283 377 292 c 0,34,35
 390 295 390 295 412 300 c 128,-1,36
 434 305 434 305 456 314 c 128,-1,37
 478 323 478 323 496 334.5 c 128,-1,38
 514 346 514 346 516 362 c 0,39,40
 525 402 525 402 486 436 c 0,41,42
 464 455 464 455 427 461 c 128,-1,43
 390 467 390 467 347.5 462.5 c 128,-1,44
 305 458 305 458 261 444.5 c 128,-1,45
 217 431 217 431 182 415 c 1,46,-1
 219 477 l 1,47,48
 258 494 258 494 301.5 504 c 128,-1,49
 345 514 345 514 386.5 514.5 c 128,-1,50
 428 515 428 515 466.5 507 c 128,-1,51
 505 499 505 499 534 483 c 0,52,53
 568 467 568 467 578 434 c 1,54,55
 606 459 606 459 643 478 c 0,56,57
 673 494 673 494 713.5 502.5 c 128,-1,58
 754 511 754 511 795 510 c 128,-1,59
 836 509 836 509 875 499 c 128,-1,60
 914 489 914 489 943 470 c 0,61,62
 971 450 971 450 988 420 c 128,-1,63
 1005 390 1005 390 999 351 c 0,64,65
 992 308 992 308 977 281 c 128,-1,66
 962 254 962 254 933 240 c 128,-1,67
 904 226 904 226 857 221.5 c 128,-1,68
 810 217 810 217 738 220 c 2,69,-1
 566 220 l 1,70,-1
 549 138 l 1,71,72
 552 113 552 113 560 98.5 c 128,-1,73
 568 84 568 84 590 67 c 0,0,1
668 428 m 0,74,75
 638 412 638 412 622.5 398 c 128,-1,76
 607 384 607 384 596 358 c 1,77,-1
 596 354 l 1,78,-1
 578 274 l 1,79,-1
 750 274 l 2,80,81
 795 274 795 274 827.5 275.5 c 128,-1,82
 860 277 860 277 882 284 c 128,-1,83
 904 291 904 291 916.5 305.5 c 128,-1,84
 929 320 929 320 933 346 c 0,85,86
 936 362 936 362 924.5 388.5 c 128,-1,87
 913 415 913 415 894 430 c 0,88,89
 872 447 872 447 843 454 c 128,-1,90
 814 461 814 461 783.5 459.5 c 128,-1,91
 753 458 753 458 723 450 c 128,-1,92
 693 442 693 442 668 428 c 0,74,75
500 276 m 1,93,94
 467 260 467 260 435 251 c 128,-1,95
 403 242 403 242 370 236 c 256,96,97
 319 227.5 l 0,98,99
 268 219 268 219 239.5 208 c 128,-1,100
 211 197 211 197 190 178.5 c 128,-1,101
 169 160 169 160 163 128 c 0,102,103
 154 88 154 88 174 68 c 128,-1,104
 194 48 194 48 232 44 c 0,105,106
 280 37 280 37 317.5 43.5 c 128,-1,107
 355 50 355 50 383.5 63 c 128,-1,108
 412 76 412 76 433.5 94 c 128,-1,109
 455 112 455 112 470 129 c 1,110,-1
 500 276 l 1,93,94
EndSplineSet
EndChar
StartChar: eth
Encoding: 240 240 177
Width: 729
VWidth: 1467
Flags: W
HStem: 4 65<334.233 412.438> 370 66<368.143 524.314>
Fore
682 301 m 0,0,1
 682 266 682 266 670.5 224 c 128,-1,2
 659 182 659 182 634 143 c 128,-1,3
 609 104 609 104 570 71 c 128,-1,4
 531 38 531 38 475 21 c 0,5,6
 455 13 455 13 421 8.5 c 128,-1,7
 387 4 387 4 349 4 c 128,-1,8
 311 4 311 4 274.5 11.5 c 128,-1,9
 238 19 238 19 213 35 c 0,10,11
 201 43 201 43 182.5 56.5 c 128,-1,12
 164 70 164 70 149 92 c 128,-1,13
 134 114 134 114 125 146.5 c 128,-1,14
 116 179 116 179 125 224 c 0,15,16
 132 266 132 266 151 297.5 c 128,-1,17
 170 329 170 329 193 351.5 c 128,-1,18
 216 374 216 374 238 388 c 128,-1,19
 260 402 260 402 273 408 c 0,20,21
 299 421 299 421 344.5 429 c 128,-1,22
 390 437 390 437 428 436 c 0,23,24
 486 433 486 433 531.5 411 c 128,-1,25
 577 389 577 389 602 371 c 1,26,27
 599 383 599 383 591.5 404 c 128,-1,28
 584 425 584 425 574.5 450 c 128,-1,29
 565 475 565 475 554 500 c 128,-1,30
 543 525 543 525 533 544 c 1,31,-1
 381 483 l 1,32,-1
 362 538 l 1,33,-1
 503 594 l 1,34,35
 484 629 484 629 468 656.5 c 128,-1,36
 452 684 452 684 427 719 c 1,37,-1
 509 719 l 1,38,39
 530 685 530 685 543 664.5 c 128,-1,40
 556 644 556 644 572 616 c 1,41,-1
 706 672 l 1,42,-1
 720 619 l 1,43,-1
 593 568 l 1,44,45
 618 528 618 528 637 484 c 0,46,47
 653 446 653 446 667 399 c 128,-1,48
 681 352 681 352 682 301 c 0,0,1
374 69 m 0,49,50
 430 67 430 67 469 81 c 128,-1,51
 508 95 508 95 534 117 c 128,-1,52
 560 139 560 139 575.5 165.5 c 128,-1,53
 591 192 591 192 598.5 217 c 128,-1,54
 606 242 606 242 607.5 262 c 128,-1,55
 609 282 609 282 609 289 c 1,56,57
 577 330 577 330 526 349 c 128,-1,58
 475 368 475 368 411 370 c 0,59,60
 364 371 364 371 322 358.5 c 128,-1,61
 280 346 280 346 248 317 c 0,62,63
 220 291 220 291 207.5 264.5 c 128,-1,64
 195 238 195 238 193 216 c 128,-1,65
 191 194 191 194 195.5 176 c 128,-1,66
 200 158 200 158 204 148 c 0,67,68
 217 120 217 120 239 104 c 128,-1,69
 261 88 261 88 285.5 80.5 c 128,-1,70
 310 73 310 73 333.5 71 c 128,-1,71
 357 69 357 69 374 69 c 0,49,50
EndSplineSet
EndChar
StartChar: divide
Encoding: 247 247 184
Width: 652
VWidth: 1467
Flags: W
HStem: 246 74<117 646>
VStem: 283 106.5<61.7151 83.4718 83.4718 153.828> 349 108.5<407 517>
Fore
386 384 m 0,0,1
 361 384 361 384 349 407 c 128,-1,2
 337 430 337 430 345 462 c 256,3,4
 352 494 352 494 374 517 c 128,-1,5
 396 540 396 540 420 541 c 0,6,7
 445 540 445 540 457.5 517 c 128,-1,8
 470 494 470 494 461 462 c 0,9,10
 453 430 453 430 431 407 c 128,-1,11
 409 384 409 384 386 384 c 0,0,1
352 186 m 0,12,13
 377 185 377 185 389.5 162 c 128,-1,14
 402 139 402 139 395 107 c 256,15,16
 387 75 387 75 365 52 c 128,-1,17
 343 29 343 29 320 29 c 0,18,19
 295 29 295 29 283 52 c 128,-1,20
 271 75 271 75 279 107 c 256,21,22
 286 139 286 139 307.5 162 c 128,-1,23
 329 185 329 185 352 186 c 0,12,13
662 320 m 1,24,-1
 646 246 l 1,25,-1
 101 246 l 1,26,-1
 117 320 l 1,27,-1
 662 320 l 1,24,-1
EndSplineSet
EndChar
StartChar: oslash
Encoding: 248 248 185
Width: 625
VWidth: 1467
Flags: W
HStem: -13.5 48<273.531 402.229> 455.5 51.5<308.247 438.361>
Fore
610 324 m 0,0,1
 603 291 603 291 600 274 c 128,-1,2
 597 257 597 257 595.5 249.5 c 128,-1,3
 594 242 594 242 593.5 239 c 128,-1,4
 593 236 593 236 592 230 c 128,-1,5
 591 224 591 224 587.5 211 c 128,-1,6
 584 198 584 198 578 169 c 0,7,8
 565 113 565 113 527 74 c 128,-1,9
 489 35 489 35 438 13 c 128,-1,10
 387 -9 387 -9 330 -13.5 c 128,-1,11
 273 -18 273 -18 224 -4 c 1,12,-1
 201 -37 l 1,13,-1
 119 -37 l 1,14,-1
 161 23 l 1,15,16
 128 47 128 47 110 83 c 128,-1,17
 92 119 92 119 103 169 c 0,18,19
 104 182 104 182 109 206 c 128,-1,20
 114 230 114 230 119.5 255 c 128,-1,21
 125 280 125 280 129.5 301.5 c 128,-1,22
 134 323 134 323 135 330 c 0,23,24
 150 386 150 386 189.5 424 c 128,-1,25
 229 462 229 462 280.5 482.5 c 128,-1,26
 332 503 332 503 389 507 c 128,-1,27
 446 511 446 511 494 497 c 1,28,-1
 516 530 l 1,29,-1
 597 530 l 1,30,-1
 556 471 l 1,31,32
 590 447 590 447 606 411.5 c 128,-1,33
 622 376 622 376 610 324 c 0,0,1
458 446 m 1,34,35
 424 459 424 459 383.5 455.5 c 128,-1,36
 343 452 343 452 306.5 433 c 128,-1,37
 270 414 270 414 240.5 378.5 c 128,-1,38
 211 343 211 343 201 292 c 2,39,-1
 180 198 l 2,40,41
 166 123 166 123 201 81 c 1,42,-1
 458 446 l 1,34,35
257 43 m 1,43,44
 289 31 289 31 329.5 34.5 c 128,-1,45
 370 38 370 38 406.5 58 c 128,-1,46
 443 78 443 78 471.5 113 c 128,-1,47
 500 148 500 148 512 198 c 0,48,49
 516 220 516 220 517.5 224.5 c 128,-1,50
 519 229 519 229 519 232 c 128,-1,51
 519 235 519 235 521.5 246 c 128,-1,52
 524 257 524 257 531 291 c 0,53,54
 538 329 538 329 533 358 c 128,-1,55
 528 387 528 387 512 408 c 1,56,-1
 257 43 l 1,43,44
134 324 m 1,57,58
 136 332 136 332 136 333.5 c 128,-1,59
 136 335 136 335 135 330 c 1,60,61
 135 327 135 327 134 324 c 1,57,58
EndSplineSet
EndChar
StartChar: thorn
Encoding: 254 254 191
Width: 711
VWidth: 1467
Flags: W
HStem: -213 21G<58.2576 132> -15 60<309.875 455.07> 440 62.5<368.874 402 419.5 425.676 425.676 437.427 437.427 515.266> 684 20G<249 322.73>
VStem: 587 86<260.538 366.545>
Fore
455 505 m 0,0,1
 530 503 530 503 577 479 c 128,-1,2
 624 455 624 455 647.5 414.5 c 128,-1,3
 671 374 671 374 673 322 c 128,-1,4
 675 270 675 270 660 214 c 0,5,6
 649 170 649 170 620 128.5 c 128,-1,7
 591 87 591 87 551.5 55 c 128,-1,8
 512 23 512 23 463.5 4 c 128,-1,9
 415 -15 415 -15 365 -15 c 0,10,11
 323 -15 323 -15 295 -9 c 128,-1,12
 267 -3 267 -3 248 6 c 128,-1,13
 229 15 229 15 215.5 26 c 128,-1,14
 202 37 202 37 188 48 c 1,15,-1
 132 -211 l 1,16,-1
 54 -213 l 1,17,-1
 249 703 l 1,18,-1
 327 704 l 1,19,-1
 270 437 l 1,20,21
 286 456 286 456 313 469.5 c 128,-1,22
 340 483 340 483 368 491 c 128,-1,23
 396 499 396 499 419.5 502.5 c 128,-1,24
 443 506 443 506 455 505 c 0,0,1
574 219 m 0,25,26
 587 261 587 261 587 299 c 128,-1,27
 587 337 587 337 571.5 367.5 c 128,-1,28
 556 398 556 398 524.5 418.5 c 128,-1,29
 493 439 493 439 443 445 c 0,30,31
 427 446 427 446 402 440 c 128,-1,32
 377 434 377 434 350 422.5 c 128,-1,33
 323 411 323 411 296.5 392.5 c 128,-1,34
 270 374 270 374 251 351 c 1,35,-1
 202 120 l 1,36,37
 229 88 229 88 267 65.5 c 128,-1,38
 305 43 305 43 368 45 c 0,39,40
 445 48 445 48 498.5 96 c 128,-1,41
 552 144 552 144 574 219 c 0,25,26
EndSplineSet
EndChar
StartChar: Lslash
Encoding: 321 321 193
Width: 595
VWidth: 1467
Flags: W
HStem: 0 79<191 536> 690 20G<241.736 324>
Fore
98 0 m 1,0,-1
 157 295 l 1,1,2
 129 279 129 279 101 260.5 c 128,-1,3
 73 242 73 242 47 226 c 1,4,-1
 65 308 l 1,5,-1
 175 377 l 1,6,-1
 246 710 l 1,7,-1
 324 710 l 1,8,-1
 261 412 l 1,9,10
 304 437 304 437 348.5 464.5 c 128,-1,11
 393 492 393 492 436 516 c 1,12,-1
 418 433 l 1,13,-1
 244 330 l 1,14,-1
 191 79 l 1,15,-1
 549 79 l 1,16,-1
 536 0 l 1,17,-1
 98 0 l 1,0,-1
EndSplineSet
EndChar
StartChar: lslash
Encoding: 322 322 194
Width: 269
VWidth: 1467
Flags: W
HStem: 0 21G<91 174.076>
VStem: 70 281<266 516 367.519 861.901>
Fore
245 368 m 1,0,-1
 170 0 l 1,1,-1
 91 0 l 1,2,-1
 157 329 l 1,3,-1
 70 266 l 1,4,-1
 88 351 l 1,5,-1
 175 411 l 1,6,-1
 249 756 l 1,7,-1
 327 756 l 1,8,-1
 264 456 l 1,9,10
 285 471 285 471 308.5 486.5 c 128,-1,11
 332 502 332 502 351 516 c 1,12,-1
 333 431 l 1,13,-1
 245 368 l 1,0,-1
EndSplineSet
EndChar
StartChar: OE
Encoding: 338 338 195
Width: 1065
VWidth: 1467
Flags: W
HStem: 0 57<263.423 289.5 320.5 341.902 341.902 363.844 363.844 390 390 486.687 746.465 1002> 320 59<657 955> 644 57<386.209 438.5 444.5 492.065 492.065 494.023 494.023 529 541.5 605.874 869.123 968.419 968.419 1017.18 1017.18 1079.3 1079.3 1125.7 1125.7 1136>
Fore
938 644 m 2,0,1
 896 644 896 644 855 639 c 128,-1,2
 814 634 814 634 777.5 614 c 128,-1,3
 741 594 741 594 713 554.5 c 128,-1,4
 685 515 685 515 672 447 c 2,5,-1
 657 379 l 1,6,-1
 967 379 l 1,7,-1
 955 320 l 1,8,-1
 646 320 l 1,9,-1
 631 254 l 2,10,11
 615 185 615 185 626.5 146 c 128,-1,12
 638 107 638 107 666 87 c 128,-1,13
 694 67 694 67 733 62 c 128,-1,14
 772 57 772 57 813 57 c 2,15,-1
 1011 57 l 1,16,-1
 1002 0 l 1,17,-1
 805 0 l 2,18,19
 739 1 739 1 678.5 13.5 c 128,-1,20
 618 26 618 26 582 69 c 1,21,22
 546 35 546 35 494.5 17.5 c 128,-1,23
 443 0 443 0 390 -4.5 c 128,-1,24
 337 -9 337 -9 289.5 0 c 128,-1,25
 242 9 242 9 213 28 c 0,26,27
 198 37 198 37 182.5 53.5 c 128,-1,28
 167 70 167 70 156 93 c 128,-1,29
 145 116 145 116 140.5 145.5 c 128,-1,30
 136 175 136 175 144 210 c 2,31,-1
 208 508 l 2,32,33
 214 537 214 537 230 562.5 c 128,-1,34
 246 588 246 588 267 608.5 c 128,-1,35
 288 629 288 629 310 645.5 c 128,-1,36
 332 662 332 662 349 671 c 0,37,38
 387 690 387 690 438.5 699.5 c 128,-1,39
 490 709 490 709 541.5 704.5 c 128,-1,40
 593 700 593 700 637 682.5 c 128,-1,41
 681 665 681 665 703 631 c 1,42,43
 756 673 756 673 821 685.5 c 128,-1,44
 886 698 886 698 951 701 c 0,45,46
 958 701 958 701 986.5 702 c 128,-1,47
 1015 703 1015 703 1048 703 c 128,-1,48
 1081 703 1081 703 1110.5 702 c 128,-1,49
 1140 701 1140 701 1147 701 c 1,50,-1
 1136 644 l 1,51,-1
 938 644 l 2,0,1
258 82 m 0,52,53
 282 66 282 66 320.5 58.5 c 128,-1,54
 359 51 359 51 402.5 54 c 128,-1,55
 446 57 446 57 488 72 c 128,-1,56
 530 87 530 87 559 116 c 1,57,58
 541 169 541 169 560 257 c 2,59,-1
 600 445 l 2,60,61
 609 489 609 489 623.5 523.5 c 128,-1,62
 638 558 638 558 659 584 c 1,63,64
 643 612 643 612 607 627.5 c 128,-1,65
 571 643 571 643 529 646 c 128,-1,66
 487 649 487 649 444.5 640.5 c 128,-1,67
 402 632 402 632 373 616 c 0,68,69
 339 599 339 599 312.5 571 c 128,-1,70
 286 543 286 543 279 511 c 2,71,-1
 211 188 l 2,72,73
 204 156 204 156 218.5 128 c 128,-1,74
 233 100 233 100 258 82 c 0,52,53
EndSplineSet
EndChar
StartChar: oe
Encoding: 339 339 196
Width: 1022
VWidth: 1467
Flags: W
HStem: 219 55<619 837.418 837.418 888.78 888.78 903> 457 51<406.155 536.124 741.672 873.015>
Fore
982 298 m 1,0,-1
 979 298 l 1,1,-1
 977 295 l 1,2,-1
 982 298 l 1,0,-1
647 70 m 0,3,4
 673 54 673 54 710.5 47.5 c 128,-1,5
 748 41 748 41 788 46 c 128,-1,6
 828 51 828 51 863.5 70 c 128,-1,7
 899 89 899 89 923 128 c 1,8,-1
 960 95 l 1,9,10
 929 51 929 51 877 27 c 128,-1,11
 825 3 825 3 769 -4.5 c 128,-1,12
 713 -12 713 -12 661 -4 c 128,-1,13
 609 4 609 4 577 26 c 2,14,15
 568 29 568 29 558.5 37 c 128,-1,16
 549 45 549 45 541 59 c 1,17,18
 503 28 503 28 454 12 c 128,-1,19
 405 -4 405 -4 354.5 -7 c 128,-1,20
 304 -10 304 -10 259 -1.5 c 128,-1,21
 214 7 214 7 186 26 c 0,22,23
 157 45 157 45 139.5 74 c 128,-1,24
 122 103 122 103 129 141 c 2,25,-1
 176 359 l 2,26,27
 183 398 183 398 214 426.5 c 128,-1,28
 245 455 245 455 282 474 c 0,29,30
 317 493 317 493 366 502 c 128,-1,31
 415 511 415 511 463.5 508 c 128,-1,32
 512 505 512 505 554.5 488.5 c 128,-1,33
 597 472 597 472 622 442 c 1,34,35
 647 461 647 461 672 474 c 0,36,37
 703 490 703 490 740.5 499.5 c 128,-1,38
 778 509 778 509 816 510.5 c 128,-1,39
 854 512 854 512 890 504.5 c 128,-1,40
 926 497 926 497 955 478 c 0,41,42
 983 459 983 459 1002 422.5 c 128,-1,43
 1021 386 1021 386 1015 348 c 0,44,45
 1009 305 1009 305 993 279.5 c 128,-1,46
 977 254 977 254 947 240.5 c 128,-1,47
 917 227 917 227 873 223 c 128,-1,48
 829 219 829 219 766 219 c 2,49,-1
 607 219 l 1,50,-1
 597 166 l 2,51,52
 593 145 593 145 595 129.5 c 128,-1,53
 597 114 597 114 605 103 c 128,-1,54
 613 92 613 92 624 84 c 128,-1,55
 635 76 635 76 647 70 c 0,3,4
619 274 m 1,56,-1
 778 274 l 2,57,58
 823 274 823 274 853 274 c 128,-1,59
 883 274 883 274 903 278.5 c 128,-1,60
 923 283 923 283 933 294 c 128,-1,61
 943 305 943 305 948 327 c 0,62,63
 952 355 952 355 945 382 c 128,-1,64
 938 409 938 409 918 424 c 0,65,66
 876 458 876 458 822.5 456.5 c 128,-1,67
 769 455 769 455 723 430 c 0,68,69
 690 412 690 412 665 389.5 c 128,-1,70
 640 367 640 367 632 335 c 2,71,-1
 619 274 l 1,56,-1
263 70 m 0,72,73
 286 54 286 54 321.5 47 c 128,-1,74
 357 40 357 40 393.5 45 c 128,-1,75
 430 50 430 50 464.5 68.5 c 128,-1,76
 499 87 499 87 522 122 c 1,77,78
 522 135 522 135 523.5 151 c 128,-1,79
 525 167 525 167 528 186 c 2,80,-1
 566 359 l 2,81,82
 569 376 569 376 578 392 c 1,83,84
 565 423 565 423 537 438 c 128,-1,85
 509 453 509 453 475.5 457 c 128,-1,86
 442 461 442 461 405 453.5 c 128,-1,87
 368 446 368 446 339 430 c 0,88,89
 305 412 305 412 280 392.5 c 128,-1,90
 255 373 255 373 248 340 c 2,91,-1
 210 160 l 2,92,93
 202 128 202 128 219 108 c 128,-1,94
 236 88 236 88 263 70 c 0,72,73
EndSplineSet
EndChar
StartChar: florin
Encoding: 402 402 202
Width: 410
VWidth: 1467
Flags: W
HStem: 359 53<109 192 286 380> 640 55<430.765 494>
Fore
515 695 m 1,0,-1
 494 640 l 1,1,-1
 468 640 l 2,2,3
 408 640 408 640 376.5 607.5 c 128,-1,4
 345 575 345 575 315 494 c 2,5,-1
 301 455 l 1,6,-1
 286 412 l 1,7,-1
 390 412 l 1,8,-1
 380 364 l 1,9,-1
 270 364 l 1,10,-1
 166 53 l 1,11,-1
 138 -32 l 1,12,13
 126 -53 126 -53 107.5 -70 c 128,-1,14
 89 -87 89 -87 69 -94 c 1,15,16
 63 -88 63 -88 41 -81.5 c 128,-1,17
 19 -75 19 -75 13 -65 c 1,18,19
 44 -45 44 -45 54.5 -27.5 c 128,-1,20
 65 -10 65 -10 72 13 c 2,21,-1
 192 359 l 1,22,-1
 98 359 l 1,23,-1
 109 412 l 1,24,-1
 207 412 l 1,25,-1
 233 489 l 2,26,27
 252 547 252 547 274 586.5 c 128,-1,28
 296 626 296 626 325.5 650.5 c 128,-1,29
 355 675 355 675 394.5 685 c 128,-1,30
 434 695 434 695 490 695 c 2,31,-1
 515 695 l 1,0,-1
EndSplineSet
EndChar
StartChar: circumflex
Encoding: 710 710 203
Width: 478
VWidth: 1467
Flags: W
HStem: 697 197<204 425 425 425>
VStem: 204 362<697 697 697 697>
Fore
204 697 m 1,0,1
 235 715 235 715 268 739 c 128,-1,2
 301 763 301 763 331.5 789.5 c 128,-1,3
 362 816 362 816 387 843 c 128,-1,4
 412 870 412 870 425 894 c 1,5,6
 430 870 430 870 443 843.5 c 128,-1,7
 456 817 456 817 476 790.5 c 128,-1,8
 496 764 496 764 519.5 740 c 128,-1,9
 543 716 543 716 566 697 c 1,10,-1
 483 697 l 1,11,12
 467 717 467 717 456.5 731 c 128,-1,13
 446 745 446 745 438.5 757.5 c 128,-1,14
 431 770 431 770 425.5 782.5 c 128,-1,15
 420 795 420 795 412 811 c 1,16,17
 379 767 379 767 346.5 740 c 128,-1,18
 314 713 314 713 289 697 c 1,19,-1
 204 697 l 1,0,1
EndSplineSet
EndChar
StartChar: caron
Encoding: 711 711 204
Width: 507
VWidth: 1467
Flags: W
HStem: 676 197<393 616 616 616>
VStem: 254 362<873 873 873 873>
Fore
616 873 m 1,0,1
 585 855 585 855 551.5 831 c 128,-1,2
 518 807 518 807 487 780.5 c 128,-1,3
 456 754 456 754 431 727 c 128,-1,4
 406 700 406 700 393 676 c 1,5,6
 389 700 389 700 375.5 726.5 c 128,-1,7
 362 753 362 753 343 779 c 128,-1,8
 324 805 324 805 300.5 829.5 c 128,-1,9
 277 854 277 854 254 873 c 1,10,-1
 332 873 l 1,11,12
 362 842 362 842 380.5 810.5 c 128,-1,13
 399 779 399 779 406 741 c 1,14,15
 428 779 428 779 460.5 811.5 c 128,-1,16
 493 844 493 844 534 873 c 1,17,-1
 616 873 l 1,0,1
EndSplineSet
EndChar
StartChar: breve
Encoding: 728 728 205
Width: 440
VWidth: 1467
Flags: W
HStem: 612 45<295.432 405.354>
VStem: 197 74<724.466 775> 493 76<725.585 775>
Fore
569 775 m 1,0,1
 562 742 562 742 543.5 713.5 c 128,-1,2
 525 685 525 685 493.5 661.5 c 128,-1,3
 462 638 462 638 421 625 c 128,-1,4
 380 612 380 612 346 612 c 0,5,6
 314 612 314 612 276 623 c 128,-1,7
 238 634 238 634 219.5 659 c 128,-1,8
 201 684 201 684 195 713 c 128,-1,9
 189 742 189 742 197 775 c 1,10,-1
 271 775 l 1,11,12
 261 725 261 725 284.5 691 c 128,-1,13
 308 657 308 657 357 657 c 256,14,15
 405 657 405 657 444 691 c 128,-1,16
 483 725 483 725 493 775 c 1,17,-1
 569 775 l 1,0,1
EndSplineSet
EndChar
StartChar: dotaccent
Encoding: 729 729 206
Width: 231
VWidth: 1467
Flags: W
HStem: 606 132<249.125 282.406>
VStem: 208 97<644.84 688.602 688.602 716.439>
Fore
271 738 m 1,0,1
 295 741 295 741 305 722 c 128,-1,2
 315 703 315 703 308 673 c 0,3,4
 302 646 302 646 283 626 c 128,-1,5
 264 606 264 606 244 606 c 0,6,7
 219 606 219 606 208 626 c 128,-1,8
 197 646 197 646 204 673 c 0,9,10
 211 703 211 703 231 722 c 128,-1,11
 251 741 251 741 271 738 c 1,0,1
EndSplineSet
EndChar
StartChar: ring
Encoding: 730 730 207
Width: 404
VWidth: 1467
Flags: W
HStem: 577 39<298.601 362.54> 767 43<321.253 398.03>
VStem: 235 229<669 694 695 742 694 695 695 695>
Fore
235 695 m 0,0,1
 246 744 246 744 287.5 777 c 128,-1,2
 329 810 329 810 374 810 c 0,3,4
 418 810 418 810 446 776 c 128,-1,5
 474 742 474 742 464 694 c 0,6,7
 459 669 459 669 445 647.5 c 128,-1,8
 431 626 431 626 411.5 611 c 128,-1,9
 392 596 392 596 369 586.5 c 128,-1,10
 346 577 346 577 324 577 c 0,11,12
 274 577 274 577 249 613 c 128,-1,13
 224 649 224 649 235 695 c 0,0,1
293 695 m 0,14,15
 288 668 288 668 296 643 c 128,-1,16
 304 618 304 618 333 616 c 0,17,18
 358 616 358 616 377 641 c 128,-1,19
 396 666 396 666 403 695 c 0,20,21
 409 720 409 720 399.5 743 c 128,-1,22
 390 766 390 766 365 767 c 0,23,24
 337 766 337 766 319 743 c 128,-1,25
 301 720 301 720 293 695 c 0,14,15
EndSplineSet
EndChar
StartChar: tilde
Encoding: 732 732 209
Width: 368
VWidth: 1467
Flags: W
HStem: 597 57<357.82 407.512> 597 96<214 263 481 481> 640 57<234.983 276.712>
VStem: 156 58<604.507 640.348> 425 56<656.57 693>
Fore
481 693 m 1,0,1
 472 650 472 650 441.5 623.5 c 128,-1,2
 411 597 411 597 376 597 c 0,3,4
 358 597 358 597 341 603.5 c 128,-1,5
 324 610 324 610 308 618 c 128,-1,6
 292 626 292 626 279.5 633 c 128,-1,7
 267 640 267 640 258 640 c 0,8,9
 245 640 245 640 232.5 627.5 c 128,-1,10
 220 615 220 615 214 594 c 1,11,-1
 156 594 l 1,12,13
 163 632 163 632 194.5 663.5 c 128,-1,14
 226 695 226 695 263 697 c 0,15,16
 279 697 279 697 289 692 c 128,-1,17
 299 687 299 687 315 679 c 1,18,19
 314 681 314 681 323.5 676 c 128,-1,20
 333 671 333 671 335 669 c 1,21,22
 346 665 346 665 358 659.5 c 128,-1,23
 370 654 370 654 381 654 c 0,24,25
 390 654 390 654 403.5 660 c 128,-1,26
 417 666 417 666 425 693 c 1,27,-1
 478 693 l 1,28,-1
 481 693 l 1,0,1
EndSplineSet
EndChar
StartChar: uni0E01
Encoding: 3585 3585 212
Width: 669
VWidth: 1467
Flags: W
HStem: -1 21G<98 179.27 490 566.246> 524 54<294.063 399.788 399.788 405.577 405.577 497.608>
Fore
293 524 m 1,0,1
 296 521 296 521 304.5 511.5 c 128,-1,2
 313 502 313 502 321 491 c 128,-1,3
 329 480 329 480 334 472 c 128,-1,4
 339 464 339 464 340 462 c 1,5,-1
 332 417 l 1,6,7
 324 412 324 412 316 407.5 c 128,-1,8
 308 403 308 403 302 398 c 0,9,10
 252 354 252 354 235 280 c 2,11,-1
 175 -1 l 1,12,-1
 98 -1 l 1,13,-1
 150 239 l 2,14,15
 161 296 161 296 195.5 355 c 128,-1,16
 230 414 230 414 286 446 c 1,17,-1
 211 538 l 1,18,-1
 210 538 l 1,19,-1
 216 578 l 1,20,-1
 342 581 l 2,21,22
 408 581 408 581 469 578 c 128,-1,23
 530 575 530 575 573 551.5 c 128,-1,24
 616 528 616 528 634.5 475.5 c 128,-1,25
 653 423 653 423 631 324 c 2,26,-1
 562 -1 l 1,27,-1
 490 -1 l 1,28,-1
 556 326 l 2,29,30
 572 386 572 386 567.5 425 c 128,-1,31
 563 464 563 464 545 485 c 128,-1,32
 527 506 527 506 498.5 515 c 128,-1,33
 470 524 470 524 435.5 525.5 c 128,-1,34
 401 527 401 527 364 524.5 c 128,-1,35
 327 522 327 522 293 524 c 1,0,1
EndSplineSet
EndChar
StartChar: uni0E02
Encoding: 3586 3586 213
Width: 528
VWidth: 1467
Flags: W
HStem: -11 53<200.82 316.455> 561 20G<458.5 546>
VStem: 148 49.5<409.161 459.945> 287 53<482.094 511 511 540.64>
Fore
302 584 m 0,0,1
 335 569 335 569 340 527 c 0,2,3
 343 478 343 478 335 443 c 128,-1,4
 327 408 327 408 312.5 380 c 128,-1,5
 298 352 298 352 279 328.5 c 128,-1,6
 260 305 260 305 241 280 c 128,-1,7
 222 255 222 255 206.5 226.5 c 128,-1,8
 191 198 191 198 182 158 c 0,9,10
 170 100 170 100 194.5 70.5 c 128,-1,11
 219 41 219 41 256 42 c 128,-1,12
 293 43 293 43 330.5 74.5 c 128,-1,13
 368 106 368 106 381 167 c 0,14,15
 402 268 402 268 424.5 374 c 128,-1,16
 447 480 447 480 470 581 c 1,17,-1
 546 581 l 1,18,-1
 453 145 l 2,19,20
 442 94 442 94 408 59.5 c 128,-1,21
 374 25 374 25 331.5 7.5 c 128,-1,22
 289 -10 289 -10 243.5 -11 c 128,-1,23
 198 -12 198 -12 163.5 4.5 c 128,-1,24
 129 21 129 21 110 54.5 c 128,-1,25
 91 88 91 88 103 139 c 0,26,27
 112 185 112 185 127 217 c 128,-1,28
 142 249 142 249 160.5 275 c 128,-1,29
 179 301 179 301 201 324.5 c 128,-1,30
 223 348 223 348 245 376 c 1,31,32
 232 367 232 367 219 364 c 0,33,34
 210 361 210 361 200.5 359.5 c 128,-1,35
 191 358 191 358 183 361 c 0,36,37
 154 370 154 370 148 408.5 c 128,-1,38
 142 447 142 447 164 494 c 0,39,40
 180 531 180 531 210.5 555.5 c 128,-1,41
 241 580 241 580 267 587 c 0,42,43
 286 593 286 593 302 584 c 0,0,1
229 412 m 0,44,45
 244 420 244 420 257 436 c 128,-1,46
 270 452 270 452 277 467 c 0,47,48
 288 486 288 486 287 511 c 128,-1,49
 286 536 286 536 273 541 c 1,50,51
 266 543 266 543 257 538 c 0,52,53
 241 531 241 531 227.5 514 c 128,-1,54
 214 497 214 497 207 483 c 0,55,56
 198 464 198 464 197.5 439 c 128,-1,57
 197 414 197 414 210 409 c 0,58,59
 217 408 217 408 229 412 c 0,44,45
EndSplineSet
EndChar
StartChar: uni0E03
Encoding: 3587 3587 214
Width: 586
VWidth: 1467
Flags: W
HStem: -14 53.5<242 369.649> 565 20G<369.812 410 520 606>
VStem: 132 474<139 582 139 139>
Fore
354 521 m 1,0,-1
 377 585 l 1,1,-1
 405 585 l 1,2,-1
 420 525 l 1,3,4
 424 471 424 471 413.5 433.5 c 128,-1,5
 403 396 403 396 383.5 368 c 128,-1,6
 364 340 364 340 339 319 c 128,-1,7
 314 298 314 298 290 275 c 128,-1,8
 266 252 266 252 246 225 c 128,-1,9
 226 198 226 198 219 158 c 0,10,11
 207 97 207 97 235 67.5 c 128,-1,12
 263 38 263 38 304.5 39.5 c 128,-1,13
 346 41 346 41 388 73.5 c 128,-1,14
 430 106 430 106 443 167 c 0,15,16
 464 268 464 268 486.5 374.5 c 128,-1,17
 509 481 509 481 531 582 c 1,18,-1
 606 582 l 1,19,20
 581 470 581 470 559.5 365 c 128,-1,21
 538 260 538 260 514 145 c 0,22,23
 502 94 502 94 466.5 58.5 c 128,-1,24
 431 23 431 23 385 5 c 128,-1,25
 339 -13 339 -13 289 -14 c 128,-1,26
 239 -15 239 -15 201 1.5 c 128,-1,27
 163 18 163 18 142.5 52.5 c 128,-1,28
 122 87 122 87 132 139 c 256,29,30
 142 192 142 192 170 227.5 c 128,-1,31
 198 263 198 263 231 291.5 c 128,-1,32
 264 320 264 320 297 348 c 128,-1,33
 330 376 330 376 351 411 c 1,34,35
 361 445 361 445 352 466 c 128,-1,36
 343 487 343 487 327 508 c 1,37,38
 324 494 324 494 323.5 481 c 128,-1,39
 323 468 323 468 315 453 c 0,40,41
 307 433 307 433 292 413 c 128,-1,42
 277 393 277 393 259 378.5 c 128,-1,43
 241 364 241 364 221 357.5 c 128,-1,44
 201 351 201 351 182 357 c 0,45,46
 144 368 144 368 141.5 407.5 c 128,-1,47
 139 447 139 447 161 494 c 0,48,49
 172 518 172 518 188.5 537 c 128,-1,50
 205 556 205 556 223 568.5 c 128,-1,51
 241 581 241 581 259 587 c 128,-1,52
 277 593 277 593 293 588 c 0,53,54
 311 582 311 582 329.5 559.5 c 128,-1,55
 348 537 348 537 354 521 c 1,0,-1
202 486 m 0,56,57
 195 474 195 474 190.5 460 c 128,-1,58
 186 446 186 446 184.5 434.5 c 128,-1,59
 183 423 183 423 187 413 c 128,-1,60
 191 403 191 403 201 401 c 0,61,62
 220 395 220 395 241.5 416 c 128,-1,63
 263 437 263 437 274 462 c 0,64,65
 289 489 289 489 287 509.5 c 128,-1,66
 285 530 285 530 271 536 c 0,67,68
 255 543 255 543 235.5 527 c 128,-1,69
 216 511 216 511 202 486 c 0,56,57
EndSplineSet
EndChar
StartChar: uni0E04
Encoding: 3588 3588 215
Width: 715
VWidth: 1467
Flags: W
HStem: -1 21G<98 179.286 531 613.272> 213 31<357.442 458.403> 337 33<417.703 470.012> 527 63<416.846 527.875>
Fore
660 549 m 0,0,1
 691 528 691 528 700 498 c 128,-1,2
 709 468 709 468 700 425 c 2,3,-1
 609 -1 l 1,4,-1
 531 -1 l 1,5,-1
 613 383 l 2,6,7
 621 421 621 421 624.5 447.5 c 128,-1,8
 628 474 628 474 602 494 c 0,9,10
 578 511 578 511 542 519 c 128,-1,11
 506 527 506 527 466.5 527 c 128,-1,12
 427 527 427 527 388 519 c 128,-1,13
 349 511 349 511 318 494 c 0,14,15
 299 484 299 484 289 472.5 c 128,-1,16
 279 461 279 461 273 447 c 128,-1,17
 267 433 267 433 264 417 c 128,-1,18
 261 401 261 401 257 383 c 2,19,-1
 239 299 l 1,20,21
 310 359 310 359 403 367 c 0,22,23
 411 368 411 368 417.5 369 c 128,-1,24
 424 370 424 370 431 370 c 0,25,26
 478 370 478 370 507.5 347 c 128,-1,27
 537 324 537 324 530 291 c 0,28,29
 522 258 522 258 483.5 235.5 c 128,-1,30
 445 213 445 213 398 213 c 256,31,32
 351 213 351 213 323 234 c 128,-1,33
 295 255 295 255 298 285 c 1,34,35
 286 277 286 277 276.5 269 c 128,-1,36
 267 261 267 261 258 254 c 0,37,38
 233 230 233 230 223 202.5 c 128,-1,39
 213 175 213 175 205 139 c 2,40,-1
 175 -1 l 1,41,-1
 98 -1 l 1,42,-1
 191 430 l 2,43,44
 200 467 200 467 222.5 498.5 c 128,-1,45
 245 530 245 530 282 549 c 0,46,47
 320 569 320 569 372.5 579.5 c 128,-1,48
 425 590 425 590 479.5 590 c 128,-1,49
 534 590 534 590 582.5 579.5 c 128,-1,50
 631 569 631 569 660 549 c 0,0,1
423 337 m 2,51,52
 390 337 390 337 371 322 c 128,-1,53
 352 307 352 307 348 291 c 256,54,55
 343 274 343 274 357 259 c 128,-1,56
 371 244 371 244 405 244 c 2,57,-1
 406 244 l 2,58,59
 440 244 440 244 459 260 c 128,-1,60
 478 276 478 276 483 292 c 0,61,62
 486 308 486 308 470.5 322 c 128,-1,63
 455 336 455 336 424 337 c 2,64,-1
 423 337 l 2,51,52
EndSplineSet
EndChar
StartChar: uni0E05
Encoding: 3589 3589 216
Width: 715
VWidth: 1467
Flags: W
HStem: -1 21G<98 177.366 531 614.241> 211 31<361.628 469.354> 336 32<378.628 430 404.361 480.539> 564 20G<376.5 397.5 546.682 584>
Fore
571 584 m 1,0,1
 597 580 597 580 623 563.5 c 128,-1,2
 649 547 649 547 668 523.5 c 128,-1,3
 687 500 687 500 695.5 471 c 128,-1,4
 704 442 704 442 698 414 c 2,5,-1
 610 -1 l 1,6,-1
 531 -1 l 1,7,-1
 615 387 l 2,8,9
 619 406 619 406 619 426.5 c 128,-1,10
 619 447 619 447 614.5 465.5 c 128,-1,11
 610 484 610 484 600 498 c 128,-1,12
 590 512 590 512 574 516 c 1,13,-1
 450 430 l 1,14,-1
 359 515 l 1,15,16
 324 499 324 499 296 470.5 c 128,-1,17
 268 442 268 442 258 395 c 2,18,-1
 238 301 l 1,19,20
 274 335 274 335 326.5 351 c 128,-1,21
 379 367 379 367 430 368 c 1,22,-1
 430 367 l 1,23,24
 433 368 433 368 439 368 c 0,25,26
 487 368 487 368 516.5 345.5 c 128,-1,27
 546 323 546 323 537 289 c 0,28,29
 530 257 530 257 491.5 234 c 128,-1,30
 453 211 453 211 403 211 c 0,31,32
 357 211 357 211 327.5 234 c 128,-1,33
 298 257 298 257 305 289 c 1,34,35
 307 291 307 291 307 293 c 1,36,37
 280 277 280 277 260 257 c 0,38,39
 233 235 233 235 222 205.5 c 128,-1,40
 211 176 211 176 204 141 c 2,41,-1
 173 -1 l 1,42,-1
 98 -1 l 1,43,-1
 188 420 l 2,44,45
 194 443 194 443 216.5 470 c 128,-1,46
 239 497 239 497 269 521.5 c 128,-1,47
 299 546 299 546 331.5 563.5 c 128,-1,48
 364 581 364 581 389 584 c 1,49,50
 406 562 406 562 429 538 c 128,-1,51
 452 514 452 514 464 496 c 1,52,-1
 571 584 l 1,0,1
490 291 m 256,53,54
 494 307 494 307 478 321 c 128,-1,55
 462 335 462 335 430 336 c 0,56,57
 398 336 398 336 378 320.5 c 128,-1,58
 358 305 358 305 354 289 c 256,59,60
 349 273 349 273 364 257.5 c 128,-1,61
 379 242 379 242 414 242 c 0,62,63
 447 242 447 242 466.5 258 c 128,-1,64
 486 274 486 274 490 291 c 256,53,54
EndSplineSet
EndChar
StartChar: uni0E06
Encoding: 3590 3590 217
Width: 724
VWidth: 1467
Flags: W
HStem: -4 55<177.873 218.116> -1 61<373.336 501.405> 220 53<216.05 247.874> 567 20G<390.064 440 662 747>
VStem: 155 38.5<409.253 410 410 457.768> 265 67<135.376 161.5 161.5 182.406>
Fore
114 135 m 0,0,1
 120 161 120 161 132 187 c 128,-1,2
 144 213 144 213 161 232 c 128,-1,3
 178 251 178 251 199 262 c 128,-1,4
 220 273 220 273 244 273 c 0,5,6
 263 273 263 273 274 264 c 1,7,8
 283 301 283 301 310 335 c 0,9,10
 324 354 324 354 336 372 c 128,-1,11
 348 390 348 390 361 414 c 1,12,13
 371 447 371 447 361.5 463.5 c 128,-1,14
 352 480 352 480 340 492 c 1,15,-1
 332 506 l 1,16,17
 327 483 327 483 315 456 c 0,18,19
 292 409 292 409 254.5 381.5 c 128,-1,20
 217 354 217 354 188 362 c 0,21,22
 160 371 160 371 155 410 c 128,-1,23
 150 449 150 449 172 496 c 0,24,25
 197 544 197 544 232.5 571.5 c 128,-1,26
 268 599 268 599 298 590 c 0,27,28
 307 587 307 587 318.5 579.5 c 128,-1,29
 330 572 330 572 342 562.5 c 128,-1,30
 354 553 354 553 362 543 c 128,-1,31
 370 533 370 533 373 524 c 1,32,-1
 398 587 l 1,33,-1
 440 587 l 1,34,-1
 440 528 l 2,35,36
 443 490 443 490 438 460 c 128,-1,37
 433 430 433 430 422.5 405 c 128,-1,38
 412 380 412 380 398 359.5 c 128,-1,39
 384 339 384 339 370 318 c 256,40,41
 355 298 355 298 347 273 c 128,-1,42
 339 248 339 248 335.5 222.5 c 128,-1,43
 332 197 332 197 332 173.5 c 128,-1,44
 332 150 332 150 332 135 c 1,45,46
 348 106 348 106 372 83 c 128,-1,47
 396 60 396 60 443 60 c 0,48,49
 505 60 505 60 538 86.5 c 128,-1,50
 571 113 571 113 587 186 c 0,51,52
 609 288 609 288 630 387.5 c 128,-1,53
 651 487 651 487 673 588 c 1,54,-1
 747 588 l 1,55,56
 735 533 735 533 724 483 c 128,-1,57
 713 433 713 433 702 384 c 128,-1,58
 691 335 691 335 681 285 c 128,-1,59
 671 235 671 235 659 180 c 0,60,61
 649 136 649 136 625.5 101.5 c 128,-1,62
 602 67 602 67 570 44 c 128,-1,63
 538 21 538 21 503 10 c 128,-1,64
 468 -1 468 -1 433 -1 c 0,65,66
 373 -1 373 -1 341.5 27.5 c 128,-1,67
 310 56 310 56 292 87 c 1,68,69
 276 48 276 48 245 22 c 128,-1,70
 214 -4 214 -4 185 -4 c 0,71,72
 138 -4 138 -4 120.5 37.5 c 128,-1,73
 103 79 103 79 114 135 c 0,0,1
210 486 m 256,74,75
 198 461 198 461 193.5 439 c 128,-1,76
 189 417 189 417 208 409 c 0,77,78
 227 403 227 403 247 421.5 c 128,-1,79
 267 440 267 440 279 465 c 256,80,81
 291 490 291 490 294.5 515 c 128,-1,82
 298 540 298 540 280 547 c 0,83,84
 261 555 261 555 241.5 533 c 128,-1,85
 222 511 222 511 210 486 c 256,74,75
167 135 m 256,86,87
 164 123 164 123 165 108.5 c 128,-1,88
 166 94 166 94 169 80.5 c 128,-1,89
 172 67 172 67 178.5 59 c 128,-1,90
 185 51 185 51 195 51 c 256,91,92
 205 51 205 51 216 60 c 128,-1,93
 227 69 227 69 236.5 81.5 c 128,-1,94
 246 94 246 94 253 108.5 c 128,-1,95
 260 123 260 123 263 135 c 256,96,97
 266 147 266 147 265 161.5 c 128,-1,98
 264 176 264 176 259.5 189 c 128,-1,99
 255 202 255 202 247 211 c 128,-1,100
 239 220 239 220 227 220 c 256,101,102
 216 220 216 220 206.5 211 c 128,-1,103
 197 202 197 202 189.5 189 c 128,-1,104
 182 176 182 176 176 161.5 c 128,-1,105
 170 147 170 147 167 135 c 256,86,87
EndSplineSet
EndChar
StartChar: uni0E07
Encoding: 3591 3591 218
Width: 522
VWidth: 1467
Flags: W
HStem: -12 21G<227.086 249.5> 568 20G<445.25 461.75 478 490.5>
VStem: 316 44<411.13 457.946>
Fore
478 588 m 1,0,1
 503 580 503 580 516.5 555 c 128,-1,2
 530 530 530 530 522 497 c 2,3,-1
 450 160 l 2,4,5
 443 126 443 126 421 96.5 c 128,-1,6
 399 67 399 67 369 44.5 c 128,-1,7
 339 22 339 22 303 7.5 c 128,-1,8
 267 -7 267 -7 232 -12 c 1,9,-1
 132 395 l 1,10,-1
 197 424 l 1,11,12
 222 339 222 339 245 245 c 128,-1,13
 268 151 268 151 289 59 c 1,14,15
 323 75 323 75 342.5 100.5 c 128,-1,16
 362 126 362 126 374 176 c 2,17,-1
 418 384 l 1,18,19
 402 370 402 370 381 365 c 0,20,21
 364 359 364 359 351 364 c 0,22,23
 321 373 321 373 316 411 c 128,-1,24
 311 449 311 449 333 496 c 0,25,26
 351 533 351 533 377 557 c 128,-1,27
 403 581 403 581 430 588 c 0,28,29
 437 591 437 591 453.5 591 c 128,-1,30
 470 591 470 591 477 588 c 1,31,32
 478 588 478 588 478 587 c 1,33,-1
 478 588 l 1,0,1
392 414 m 0,34,35
 405 421 405 421 419 437 c 128,-1,36
 433 453 433 453 439 468 c 0,37,38
 449 487 449 487 449 511.5 c 128,-1,39
 449 536 449 536 434 543 c 0,40,41
 427 546 427 546 420 540 c 1,42,43
 405 533 405 533 391 516 c 128,-1,44
 377 499 377 499 371 484 c 0,45,46
 361 465 361 465 360 440 c 128,-1,47
 359 415 359 415 374 411 c 0,48,49
 381 408 381 408 392 414 c 0,34,35
EndSplineSet
EndChar
StartChar: uni0E08
Encoding: 3592 3592 219
Width: 625
VWidth: 1467
Flags: W
HStem: -1 21G<310 369> 525 60<330.388 435.938>
VStem: 161 452<436 508 508 508> 348 49.5<258.322 313.5>
Fore
558 547 m 0,0,1
 587 527 587 527 604 500.5 c 128,-1,2
 621 474 621 474 613 436 c 2,3,-1
 552 145 l 2,4,5
 550 138 550 138 544 123.5 c 128,-1,6
 538 109 538 109 525 91 c 128,-1,7
 512 73 512 73 492 55.5 c 128,-1,8
 472 38 472 38 445 28 c 0,9,10
 424 19 424 19 402.5 12.5 c 128,-1,11
 381 6 381 6 357 -1 c 1,12,-1
 310 -1 l 1,13,-1
 342 151 l 1,14,15
 340 151 340 151 340 150 c 1,16,-1
 345 178 l 1,17,18
 330 166 330 166 315 161 c 0,19,20
 307 158 307 158 299.5 159 c 128,-1,21
 292 160 292 160 285 163 c 0,22,23
 261 170 261 170 246.5 195 c 128,-1,24
 232 220 232 220 229 255 c 0,25,26
 226 301 226 301 248 340 c 128,-1,27
 270 379 270 379 302 386 c 0,28,29
 318 390 318 390 332 386 c 0,30,31
 343 383 343 383 355.5 376.5 c 128,-1,32
 368 370 368 370 376 359 c 1,33,-1
 376 361 l 1,34,35
 383 351 383 351 387 336 c 0,36,37
 396 311 396 311 397.5 275 c 128,-1,38
 399 239 399 239 396 199.5 c 128,-1,39
 393 160 393 160 386 120.5 c 128,-1,40
 379 81 379 81 373 50 c 1,41,42
 423 59 423 59 445.5 86 c 128,-1,43
 468 113 468 113 475 145 c 2,44,-1
 527 390 l 2,45,46
 534 424 534 424 535 449.5 c 128,-1,47
 536 475 536 475 509 493 c 0,48,49
 484 509 484 509 449.5 517 c 128,-1,50
 415 525 415 525 377 525 c 128,-1,51
 339 525 339 525 301.5 517 c 128,-1,52
 264 509 264 509 235 493 c 0,53,54
 224 487 224 487 214.5 480.5 c 128,-1,55
 205 474 205 474 198 468 c 1,56,-1
 161 508 l 1,57,58
 169 519 169 519 183 528 c 128,-1,59
 197 537 197 537 213 547 c 0,60,61
 248 566 248 566 295 575.5 c 128,-1,62
 342 585 342 585 390.5 585 c 128,-1,63
 439 585 439 585 483 575.5 c 128,-1,64
 527 566 527 566 558 547 c 0,0,1
313 210 m 0,65,66
 329 214 329 214 338.5 239 c 128,-1,67
 348 264 348 264 348 283 c 1,68,69
 345 298 345 298 339 314 c 128,-1,70
 333 330 333 330 321 337 c 1,71,72
 315 343 315 343 308 340 c 0,73,74
 292 335 292 335 281 310.5 c 128,-1,75
 270 286 270 286 270 267 c 0,76,77
 271 252 271 252 278 236 c 128,-1,78
 285 220 285 220 295 213 c 1,79,80
 305 208 305 208 313 210 c 0,65,66
EndSplineSet
EndChar
StartChar: uni0E09
Encoding: 3593 3593 220
Width: 707
VWidth: 1467
Flags: W
HStem: -10.5 61.5<292.819 369.918> 528 62<336.021 455.3>
VStem: 124 47<190 244.633>
Fore
624 236 m 2,0,1
 666 236 666 236 678.5 198 c 128,-1,2
 691 160 691 160 679 106 c 0,3,4
 668 53 668 53 635.5 20.5 c 128,-1,5
 603 -12 603 -12 571 -13 c 2,6,-1
 565 -13 l 2,7,8
 537 -12 537 -12 526 6.5 c 128,-1,9
 515 25 515 25 512 47 c 0,10,11
 508 73 508 73 514 104 c 1,12,13
 494 66 494 66 463.5 39.5 c 128,-1,14
 433 13 433 13 397.5 0.5 c 128,-1,15
 362 -12 362 -12 327.5 -10.5 c 128,-1,16
 293 -9 293 -9 265.5 7 c 128,-1,17
 238 23 238 23 221.5 55 c 128,-1,18
 205 87 205 87 208 134 c 1,19,20
 207 135 207 135 207 150 c 1,21,22
 201 147 201 147 192 144 c 0,23,24
 178 139 178 139 160 144 c 0,25,26
 131 151 131 151 124 190 c 128,-1,27
 117 229 117 229 139 276 c 0,28,29
 156 311 156 311 184.5 335 c 128,-1,30
 213 359 213 359 241 367 c 0,31,32
 255 371 255 371 270 368 c 1,33,34
 291 361 291 361 301 340.5 c 128,-1,35
 311 320 311 320 305 291 c 2,36,-1
 279 167 l 2,37,38
 264 103 264 103 288.5 76.5 c 128,-1,39
 313 50 313 50 362 51 c 0,40,41
 406 54 406 54 452.5 94.5 c 128,-1,42
 499 135 499 135 516 216 c 2,43,-1
 556 403 l 2,44,45
 562 433 562 433 558.5 457 c 128,-1,46
 555 481 555 481 531 497 c 0,47,48
 508 512 508 512 469 520 c 128,-1,49
 430 528 430 528 386.5 528 c 128,-1,50
 343 528 343 528 300.5 520 c 128,-1,51
 258 512 258 512 229 497 c 0,52,53
 217 492 217 492 209 486 c 128,-1,54
 201 480 201 480 194 474 c 1,55,-1
 154 514 l 1,56,57
 166 525 166 525 178.5 534 c 128,-1,58
 191 543 191 543 207 552 c 0,59,60
 244 571 244 571 298 580.5 c 128,-1,61
 352 590 352 590 408 590 c 128,-1,62
 464 590 464 590 513.5 580.5 c 128,-1,63
 563 571 563 571 591 552 c 0,64,65
 618 533 618 533 632.5 506.5 c 128,-1,66
 647 480 647 480 638 442 c 0,67,68
 629 389 629 389 617.5 335.5 c 128,-1,69
 606 282 606 282 593 227 c 1,70,71
 606 233 606 233 618 236 c 1,72,-1
 624 236 l 2,0,1
202 192 m 1,73,74
 217 200 217 200 228 210 c 128,-1,75
 239 220 239 220 251 248 c 0,76,77
 261 267 261 267 260.5 292 c 128,-1,78
 260 317 260 317 246 321 c 0,79,80
 238 324 238 324 227.5 318.5 c 128,-1,81
 217 313 217 313 208.5 303 c 128,-1,82
 200 293 200 293 193 282 c 128,-1,83
 186 271 186 271 182 264 c 0,84,85
 172 245 172 245 171 220 c 128,-1,86
 170 195 170 195 185 189 c 0,87,88
 195 186 195 186 202 192 c 1,73,74
574 38 m 1,89,90
 593 35 593 35 610.5 55.5 c 128,-1,91
 628 76 628 76 635 106 c 0,92,93
 637 117 637 117 637.5 131 c 128,-1,94
 638 145 638 145 635 157 c 128,-1,95
 632 169 632 169 625.5 176 c 128,-1,96
 619 183 619 183 607 183 c 0,97,98
 599 183 599 183 590.5 174.5 c 128,-1,99
 582 166 582 166 575 154 c 128,-1,100
 568 142 568 142 562 129 c 128,-1,101
 556 116 556 116 555 106 c 0,102,103
 550 85 550 85 554.5 64.5 c 128,-1,104
 559 44 559 44 574 38 c 1,89,90
EndSplineSet
EndChar
StartChar: uni0E0A
Encoding: 3594 3594 221
Width: 529
VWidth: 1467
Flags: W
HStem: -11 53<202.57 315.49>
VStem: 154 42<406.161 406.5 406.5 451.151> 291 43.5<470.209 492.857 492.857 499.273 499.273 512.5 512.5 529.882> 418.5 73.5<304.158 362.388> 502 67<562.924 612>
Fore
569 612 m 1,0,1
 565 587 565 587 553 558.5 c 128,-1,2
 541 530 541 530 522 504 c 128,-1,3
 503 478 503 478 476 460 c 128,-1,4
 449 442 449 442 415 437 c 1,5,6
 458 409 458 409 475 385 c 128,-1,7
 492 361 492 361 492 329.5 c 128,-1,8
 492 298 492 298 480 254.5 c 128,-1,9
 468 211 468 211 455 145 c 0,10,11
 443 94 443 94 410 59.5 c 128,-1,12
 377 25 377 25 334.5 7.5 c 128,-1,13
 292 -10 292 -10 246.5 -11 c 128,-1,14
 201 -12 201 -12 166 4.5 c 128,-1,15
 131 21 131 21 112.5 54.5 c 128,-1,16
 94 88 94 88 104 139 c 0,17,18
 113 185 113 185 127.5 216.5 c 128,-1,19
 142 248 142 248 160.5 273.5 c 128,-1,20
 179 299 179 299 200.5 322 c 128,-1,21
 222 345 222 345 242 371 c 1,22,23
 232 362 232 362 219 361 c 0,24,25
 198 357 198 357 188 359 c 0,26,27
 158 368 158 368 154 406.5 c 128,-1,28
 150 445 150 445 172 492 c 0,29,30
 189 528 189 528 215 552.5 c 128,-1,31
 241 577 241 577 266 584 c 0,32,33
 282 588 282 588 296 584 c 0,34,35
 302 582 302 582 313 575 c 0,36,37
 321 568 321 568 328.5 554.5 c 128,-1,38
 336 541 336 541 339 524 c 0,39,40
 342 475 342 475 334.5 440 c 128,-1,41
 327 405 327 405 313 378 c 128,-1,42
 299 351 299 351 280 327.5 c 128,-1,43
 261 304 261 304 242.5 279.5 c 128,-1,44
 224 255 224 255 209 226.5 c 128,-1,45
 194 198 194 198 185 158 c 0,46,47
 173 100 173 100 196.5 70.5 c 128,-1,48
 220 41 220 41 256 42 c 128,-1,49
 292 43 292 43 329.5 74.5 c 128,-1,50
 367 106 367 106 383 167 c 0,51,52
 389 194 389 194 392 205 c 128,-1,53
 395 216 395 216 397 226 c 128,-1,54
 399 236 399 236 402 251 c 128,-1,55
 405 266 405 266 414 299 c 0,56,57
 420 327 420 327 418.5 344.5 c 128,-1,58
 417 362 417 362 409 377 c 128,-1,59
 401 392 401 392 387 406.5 c 128,-1,60
 373 421 373 421 355 443 c 1,61,62
 374 447 374 447 399 463.5 c 128,-1,63
 424 480 424 480 446 503.5 c 128,-1,64
 468 527 468 527 484 554.5 c 128,-1,65
 500 582 500 582 502 612 c 1,66,-1
 569 612 l 1,0,1
210 406 m 0,67,68
 223 403 223 403 234.5 409 c 128,-1,69
 246 415 246 415 256.5 425.5 c 128,-1,70
 267 436 267 436 274.5 447 c 128,-1,71
 282 458 282 458 285 464 c 0,72,73
 289 472 289 472 291 486 c 128,-1,74
 293 500 293 500 292.5 512.5 c 128,-1,75
 292 525 292 525 287 534.5 c 128,-1,76
 282 544 282 544 271 544 c 256,77,78
 261 544 261 544 257 541 c 0,79,80
 244 534 244 534 229 515 c 128,-1,81
 214 496 214 496 207 480 c 0,82,83
 197 461 197 461 196 436 c 128,-1,84
 195 411 195 411 210 406 c 0,67,68
EndSplineSet
EndChar
